<svg xmlns="http://www.w3.org/2000/svg" xmlns:xlink="http://www.w3.org/1999/xlink" viewBox="0 0 427.74 403.63"><defs><clipPath id="clip-path"><path d="M210.81,361.54a12.51,12.51,0,0,0-10.28.35c-3.09,1.76-3.09,4.66,0,6.44a9.83,9.83,0,0,0,2.74,1l.28.06.34.06a28.76,28.76,0,0,1,6.15,1.89c.66.37.67.87.13,1.18l-14.71,8.55a9.39,9.39,0,0,1-8.54,0l-12.52-7.23c-1.87-1.08-5-.92-6.46.35a11.18,11.18,0,0,0-2.54,3,2,2,0,0,0-.11.2l-.1.16a5.18,5.18,0,0,1-1.76,1.58,12.18,12.18,0,0,1-11.06,0c-2.78-1.62-3-4.21-.69-6a8.27,8.27,0,0,1,2.76-1.29l.73-.18.7-.17a28.17,28.17,0,0,0,4.9-1.66c2-.9,2.17-2.62.37-3.65l-12.25-7.07c-2.36-1.37-2.38-3.59,0-4.95l14.25-8.28a2.12,2.12,0,0,1,1.87,0c.3.15.6.32.89.48a14.63,14.63,0,0,1,4.6,4l.29.4.25.35a5.89,5.89,0,0,0,1.57,1.3,6.38,6.38,0,0,0,.74.37,12.47,12.47,0,0,0,10.28-.34c3.09-1.77,3.09-4.66,0-6.44a9.83,9.83,0,0,0-2.74-1l-.28-.06-.34-.07a26.69,26.69,0,0,1-8.28-2.95.59.59,0,0,1,0-1.11L187.07,332a8.43,8.43,0,0,1,7.67,0l12.8,7.38c2,1.13,5.22.89,6.62-.48a11.32,11.32,0,0,0,1.83-2.35l.12-.2.09-.16a5.09,5.09,0,0,1,1.76-1.58,12.18,12.18,0,0,1,11.06,0c2.77,1.63,3,4.21.68,6a8.43,8.43,0,0,1-2.75,1.3l-.73.17-.7.17a28,28,0,0,0-3.85,1.22c-2.18.87-2.48,2.66-.6,3.75l12.58,7.26c2.12,1.22,2.13,3.21,0,4.44l-14.5,8.43a2.1,2.1,0,0,1-1.92,0,13.85,13.85,0,0,1-3.59-3.34l-.3-.41a2.36,2.36,0,0,0-.24-.34,5.57,5.57,0,0,0-1.57-1.3C211.32,361.79,211.08,361.66,210.81,361.54Z" fill="none"/></clipPath></defs><g style="isolation:isolate"><g id="Layer_2" data-name="Layer 2"><g id="Layer"><path d="M35.08,227.22l-2.49-1.47c-.65-.38-.57-1,.18-1.47l21.64-12.61a2.82,2.82,0,0,1,2.54-.1L59.44,213c.65.38.57,1-.18,1.47L37.63,227.11A2.81,2.81,0,0,1,35.08,227.22Z" fill="#e3ecff"/><g style="isolation:isolate"><path d="M59.6,140.29l-2.55-1.48a2,2,0,0,0-2,.19l2.55,1.48A1.94,1.94,0,0,1,59.6,140.29Z" fill="#ff5740"/><path d="M29.3,182l2.55,1.48a1.94,1.94,0,0,1-.8-1.77l-2.55-1.48A1.94,1.94,0,0,0,29.3,182Z" fill="#ed341a"/><polygon points="30.98 159.13 28.43 157.65 28.5 180.24 31.05 181.72 30.98 159.13" fill="#ed341a"/><polygon points="57.63 140.48 55.08 139 31.19 152.88 33.74 154.35 57.63 140.48" fill="#ff5740"/><path d="M33.74,154.36l-2.55-1.48a6.07,6.07,0,0,0-2.76,4.77L31,159.13A6.07,6.07,0,0,1,33.74,154.36Z" fill="#ed341a"/><path d="M33.74,154.36A6.07,6.07,0,0,0,31,159.13l.07,22.59c0,1.75,1.25,2.46,2.77,1.58l23.9-13.88a6,6,0,0,0,2.75-4.77l-.06-22.59c0-1.76-1.25-2.46-2.78-1.58Z" fill="#de2910"/><path d="M34,163.06,56.63,150a1.69,1.69,0,0,0,.71-1.35V147.3c0-.52-.32-.76-.71-.54L34,159.86a1.67,1.67,0,0,0-.72,1.35v1.31C33.24,163,33.56,163.28,34,163.06Z" fill="#f2f2f2"/><path d="M34,168l22.67-13.09a1.72,1.72,0,0,0,.71-1.36v-1.31c0-.52-.32-.76-.71-.53L34,164.82a1.67,1.67,0,0,0-.72,1.35v1.31C33.24,168,33.56,168.24,34,168Z" fill="#f2f2f2"/><path d="M34,173l22.67-13.09a1.72,1.72,0,0,0,.71-1.36v-1.31c0-.52-.32-.76-.71-.53L34,169.78a1.69,1.69,0,0,0-.72,1.36v1.3C33.24,173,33.56,173.21,34,173Z" fill="#f2f2f2"/><path d="M34,177.94l22.67-13.09a1.72,1.72,0,0,0,.71-1.36v-1.3c0-.53-.32-.77-.71-.54L34,174.74a1.7,1.7,0,0,0-.72,1.36v1.3C33.24,177.93,33.56,178.17,34,177.94Z" fill="#f2f2f2"/></g><path d="M69.18,207.22l-2.44-1.41c-1.12-.64-1-1.77.31-2.51l43.31-25.16a4.86,4.86,0,0,1,4.35-.18l2.43,1.41c1.12.64,1,1.77-.31,2.51L73.52,207A4.84,4.84,0,0,1,69.18,207.22Z" fill="#e3ecff"/><g style="isolation:isolate"><path d="M117.23,40.41a2.74,2.74,0,0,0-2.77.28L65.71,68.83a8.54,8.54,0,0,0-3.88,6.73l.09,31.82a2.71,2.71,0,0,0,1.14,2.49L66.65,112a2.75,2.75,0,0,1-1.14-2.5l-.09-31.82a8.58,8.58,0,0,1,3.89-6.72l48.74-28.15a2.78,2.78,0,0,1,2.78-.27Z" fill="#eff0f2"/><path d="M69.31,70.92a8.58,8.58,0,0,0-3.89,6.72l.09,31.82c0,2.47,1.76,3.47,3.91,2.23L99.68,94.22,117,104.11l0-19.85,1.24-.72a8.54,8.54,0,0,0,3.88-6.72L122,45c0-2.48-1.75-3.47-3.91-2.23Z" fill="#ced3de"/></g><path d="M100.19,80.62c0,1.48,1,2.08,2.34,1.33a5.15,5.15,0,0,0,2.34-4c0-1.48-1.05-2.08-2.34-1.33A5.12,5.12,0,0,0,100.19,80.62Z" fill="#4d4d80"/><path d="M93.59,84.42c0,1.49,1,2.09,2.35,1.34a5.18,5.18,0,0,0,2.34-4c0-1.49-1-2.09-2.34-1.34A5.16,5.16,0,0,0,93.59,84.42Z" fill="#4d4d80"/><path d="M87,88.23c0,1.48,1,2.08,2.35,1.33a5.15,5.15,0,0,0,2.34-4c0-1.48-1-2.08-2.34-1.33A5.13,5.13,0,0,0,87,88.23Z" fill="#4d4d80"/><ellipse cx="82.75" cy="90.68" rx="3.3" ry="1.91" transform="translate(-37.3 116.36) rotate(-59.69)" fill="#4d4d80"/><path d="M37.14,301.88,1,281c-1.44-.83-1.26-2.28.4-3.24L49.29,250.1a6.24,6.24,0,0,1,5.6-.24l36.17,20.89c1.44.83,1.26,2.28-.4,3.23L42.75,301.65A6.26,6.26,0,0,1,37.14,301.88Z" fill="#e3ecff"/><g style="isolation:isolate"><polygon points="38 240.99 37.94 263.63 36.83 262.98 36.89 240.35 38 240.99" fill="#30306b"/><path d="M65.34,242.43l-.07,22.64c-7.56-4.37-12.73-4.4-27.33-1.44L38,241C52.6,238,57.78,238.07,65.34,242.43Z" fill="#4d4d80"/><polygon points="67.92 243.92 67.85 266.56 65.27 265.07 65.34 242.43 67.92 243.92" fill="#4d4d80"/><polygon points="82.54 250.79 82.48 273.42 81.11 274.21 81.18 251.58 82.54 250.79" fill="#30306b"/><polygon points="81.18 251.58 81.11 274.21 21.86 287.18 21.93 264.54 81.18 251.58" fill="#30306b"/><polygon points="39.1 276.11 39.04 298.74 7 280.24 7.06 257.61 39.1 276.11" fill="#595994"/><polygon points="55.01 267.72 54.94 290.36 39.04 298.74 39.1 276.11 55.01 267.72" fill="#4d4d80"/><path d="M53.88,267.07l1.13.65L39.1,276.11l-32-18.5,1.17-.68,59.69-13-2.58-1.49C57.78,238.07,52.6,238,38,241l-1.11-.64,14.67-7.45,31,17.89-1.36.79-59.25,13,2.12,1.23C31.39,270,42.36,270.79,53.88,267.07Z" fill="#6b6cb3"/></g><path d="M277.58,344.54,143,267c-2.12-1.23-1.86-3.37.6-4.79l4.4-2.54c2.46-1.42,6.17-1.57,8.29-.35l134.58,77.5c2.12,1.23,1.86,3.37-.6,4.79l-4.4,2.54C283.42,345.61,279.7,345.76,277.58,344.54Z" fill="#e3ecff"/><g style="isolation:isolate"><path d="M290.1,300.64l-7.3,4.25c1.35-.79,2.19-2.46,2.2-4.84l7.3-4.24C292.3,298.18,291.46,299.86,290.1,300.64Z" fill="#30306b"/><path d="M142.54,4.75,149.85.51c1.37-.8,3.26-.68,5.36.52L147.9,5.28C145.81,4.07,143.91,4,142.54,4.75Z" fill="#6b6cb3"/><polygon points="285.58 93.44 292.89 89.19 292.3 295.81 285 300.05 285.58 93.44" fill="#30306b"/><polygon points="147.9 5.28 155.21 1.03 285.38 76.19 278.07 80.43 147.9 5.28" fill="#6b6cb3"/><path d="M278.07,80.43l7.3-4.24a16.53,16.53,0,0,1,7.52,13l-7.31,4.25C285.6,88.66,282.23,82.84,278.07,80.43Z" fill="#6b6cb3"/><path d="M278.07,80.43c4.16,2.41,7.53,8.23,7.51,13L285,300.05c0,4.79-3.4,6.72-7.57,4.31L147.27,229.21a16.51,16.51,0,0,1-7.51-13l.58-206.61c0-4.79,3.4-6.71,7.56-4.31Z" fill="#4d4d80"/><path d="M277.37,81.23A16.41,16.41,0,0,1,284.8,94.1l-.58,204.39c0,4.74-3.36,6.64-7.48,4.27L148,228.41a16.38,16.38,0,0,1-7.43-12.87l.58-204.39c0-4.73,3.36-6.64,7.48-4.26Z" fill="#eff0f2"/><path d="M269.65,98a14.44,14.44,0,0,1,6.54,11.33l-.51,164.92c0,4.16-3,5.84-6.59,3.75l-113.4-65.47a14.43,14.43,0,0,1-6.54-11.34l.51-164.91c0-4.17,3-5.85,6.58-3.75Z" fill="#75c7eb"/><path d="M158.67,108.58V65.18c0-3.51,2.14-5.13,4.78-3.6L202.81,84.3c2.64,1.53,4.78,5.61,4.78,9.13v43.4c0,3.51-2.14,5.13-4.78,3.6l-39.36-22.72C160.81,116.18,158.67,112.1,158.67,108.58Z" fill="#fff"/><path d="M202.66,137.87,163.6,115.32a6.64,6.64,0,0,1-2.77-5.3V66.24c0-2,1.24-3,2.77-2.1l39.06,22.55a6.64,6.64,0,0,1,2.77,5.3v43.78C205.43,137.82,204.19,138.76,202.66,137.87Z" fill="#ed341a"/><polygon points="171.5 86.91 167.21 87.02 168.03 82 164.55 76.11 169.35 78.08 171.5 74.33 173.65 80.56 178.45 84.14 174.97 86.02 175.79 91.97 171.5 86.91" fill="#ffea00"/><polygon points="182.2 81.66 180.97 81.69 181.2 80.25 180.21 78.56 181.58 79.13 182.2 78.05 182.82 79.84 184.19 80.86 183.2 81.4 183.43 83.11 182.2 81.66" fill="#ffea00"/><polygon points="182.2 99.72 180.97 99.76 181.2 98.32 180.21 96.63 181.58 97.19 182.2 96.11 182.82 97.9 184.19 98.93 183.2 99.47 183.43 101.18 182.2 99.72" fill="#ffea00"/><polygon points="187.45 97.12 186.22 97.15 186.45 95.71 185.45 94.02 186.83 94.59 187.45 93.51 188.06 95.3 189.44 96.33 188.45 96.86 188.68 98.58 187.45 97.12" fill="#ffea00"/><polygon points="187.45 90.09 186.22 90.13 186.45 88.69 185.45 87 186.83 87.56 187.45 86.48 188.06 88.27 189.44 89.3 188.45 89.84 188.68 91.55 187.45 90.09" fill="#ffea00"/><path d="M158.67,182.19v-43.4c0-3.52,2.14-5.13,4.78-3.61l39.36,22.73c2.64,1.52,4.78,5.6,4.78,9.12v43.4c0,3.51-2.14,5.13-4.78,3.61l-39.36-22.73C160.81,189.79,158.67,185.7,158.67,182.19Z" fill="#fff"/><path d="M202.66,211.48,163.6,188.93a6.66,6.66,0,0,1-2.77-5.31V139.84c0-2.05,1.24-3,2.77-2.1l39.06,22.55a6.64,6.64,0,0,1,2.77,5.3v43.79C205.43,211.42,204.19,212.36,202.66,211.48Z" fill="#4d4d80"/><path d="M205.43,165.33V179.4l-44.6-25.76V139.57c0-1.89,1.34-2.66,3-1.7l38.79,22.34A6.34,6.34,0,0,1,205.43,165.33Z" fill="#f2f2f2"/><path d="M205.43,197.23v12.42c0,1.89-1.34,2.66-3,1.7l-38.62-22.3a6.58,6.58,0,0,1-3-5.16V171.48Z" fill="#ed341a"/><path d="M217.61,142.61V99.21c0-3.51,2.14-5.13,4.78-3.6l39.36,22.72c2.64,1.53,4.78,5.61,4.78,9.13v43.39c0,3.52-2.14,5.14-4.78,3.61l-39.36-22.72C219.75,150.21,217.61,146.13,217.61,142.61Z" fill="#fff"/><path d="M261.6,171.9l-39.06-22.55a6.64,6.64,0,0,1-2.77-5.3V100.27c0-2,1.24-3,2.77-2.1l39.06,22.55a6.64,6.64,0,0,1,2.77,5.3V169.8C264.37,171.85,263.13,172.79,261.6,171.9Z" fill="#4d4d80"/><path d="M264.38,125.75v5.1l-16,9.14-4.12-7.11,18.83-10.74h0A6.48,6.48,0,0,1,264.38,125.75Z" fill="#f2f2f2"/><path d="M242.76,132.13l-4.12,2.35-18.87-32.55V100c0-1.9,1.34-2.66,3-1.71l.58.33Z" fill="#f2f2f2"/><path d="M264.38,165.87v4.2c0,1.42-.76,2.21-1.83,2.11l-15-25.8,4.12-2.35Z" fill="#f2f2f2"/><path d="M264.38,125.75v.78L247,136.47l-1.67.94-1.64.94-1.66,1-.95.54L239.39,137l0,0,.94-.54,1.67-1,1.63-.93.74-.42.93-.53,18.38-10.48A5.79,5.79,0,0,1,264.38,125.75Z" fill="#ed341a"/><path d="M246.31,143l-1.66.95L242,139.3l-1.65-2.83,0,0L219.77,101v-1a2.23,2.23,0,0,1,.63-1.74l19.93,34.38,1.65,2.84,1.66,2.87Z" fill="#ed341a"/><path d="M264.38,166.53v3.54a2.28,2.28,0,0,1,0,.27l-19.08-32.93-2.38-4.09.73-.42.94-.53Z" fill="#ed341a"/><path d="M237.79,139.09l-16.32,9.31a6.59,6.59,0,0,1-1.7-4.08v-4.41l13.9-7.93Z" fill="#f2f2f2"/><path d="M244.37,134.17l-.74.41-1.63.94-1.67.95-.94.53-18.55,10.58a6.27,6.27,0,0,1-1.07-3.21l18.9-10.78,1.66-1,2.37-1.35.93,1.61.72,1.23Z" fill="#ed341a"/><polygon points="264.38 140.47 264.38 155.36 248.9 146.42 248.9 164.57 235.92 157.08 235.92 138.93 219.77 129.6 219.77 114.71 235.92 124.04 235.92 105.89 248.9 113.38 248.9 131.53 264.38 140.47" fill="#f2f2f2"/><polygon points="264.38 143.56 264.38 152.27 246.21 141.78 246.21 163.02 238.61 158.63 238.61 137.4 219.77 126.52 219.77 117.8 238.61 128.68 238.61 107.44 246.21 111.83 246.21 133.07 264.38 143.56" fill="#ed341a"/><path d="M217.61,216.22v-43.4c0-3.52,2.14-5.13,4.78-3.61l39.36,22.73c2.64,1.52,4.78,5.6,4.78,9.12v43.4c0,3.51-2.14,5.13-4.78,3.61l-39.36-22.73C219.75,223.82,217.61,219.73,217.61,216.22Z" fill="#fff"/><path d="M261.6,245.51,222.54,223a6.66,6.66,0,0,1-2.77-5.31V173.87c0-2.05,1.24-3,2.77-2.1l39.06,22.55a6.64,6.64,0,0,1,2.77,5.3v43.79C264.37,245.45,263.13,246.39,261.6,245.51Z" fill="#fa0"/><path d="M264.38,199.36v7.77l-44.61-25.75V173.6c0-1.89,1.34-2.66,3-1.71l38.62,22.3A6.6,6.6,0,0,1,264.38,199.36Z" fill="#ed341a"/><path d="M264.38,236.65v7c0,1.89-1.34,2.66-3,1.7l-38.62-22.3a6.58,6.58,0,0,1-3-5.16v-7Z" fill="#ed341a"/><path d="M236.2,162.61v.32L234,161.64v2.41l2.24,1.29v.32L234,164.37v2.41l2.24,1.29v.33l-2.52-1.46v-5.79Z"/><path d="M237.35,166.3v2.76l-.29-.16v-3.56l.29.17v.23a.87.87,0,0,1,.9.07,2.43,2.43,0,0,1,.89.91,2.52,2.52,0,0,1,.36,1.2v2.38l-.29-.16v-2.35a1.85,1.85,0,0,0-.28-.94,1.94,1.94,0,0,0-.68-.71.7.7,0,0,0-.67-.08A.48.48,0,0,0,237.35,166.3Z"/><path d="M243.49,171.9a1.09,1.09,0,0,1-.17.13,1.2,1.2,0,0,1-1.23-.13,3.85,3.85,0,0,1-1.73-3,1.05,1.05,0,0,1,1.73-1,3.41,3.41,0,0,1,1.23,1.29,2.79,2.79,0,0,1,.18.34v-.5l.29.16V172a1.15,1.15,0,0,1-.5,1.09,1.18,1.18,0,0,1-1.22-.13,3.34,3.34,0,0,1-1.23-1.29c-.07-.12-.13-.24-.19-.36l.31.06.09.18a2.93,2.93,0,0,0,1,1.07,1,1,0,0,0,1,.1A.91.91,0,0,0,243.49,171.9Zm0-1.51a3.29,3.29,0,0,0-.39-1,2.85,2.85,0,0,0-1-1.07.87.87,0,0,0-1.43.82,2.78,2.78,0,0,0,.42,1.4,2.83,2.83,0,0,0,1,1.07,1,1,0,0,0,1,.1.83.83,0,0,0,.39-.59Z"/><path d="M245,167.71v5.79l-.28-.17v-5.79Z"/><path d="M246.38,169.55a.52.52,0,0,1,.08.28c0,.1,0,.16-.08.18a.18.18,0,0,1-.2,0,.62.62,0,0,1-.2-.22.47.47,0,0,1-.08-.27c0-.1,0-.15.08-.19a.19.19,0,0,1,.2,0A.55.55,0,0,1,246.38,169.55Zm-.06,1.14v3.55l-.28-.16v-3.56Z"/><path d="M248.18,173.49a5.56,5.56,0,0,1-.5-.68,1.46,1.46,0,0,1-.22-.72.51.51,0,0,1,.22-.48.48.48,0,0,1,.52,0,1.39,1.39,0,0,1,.52.53,1.23,1.23,0,0,1,.19.63h0l-.24,0a1.34,1.34,0,0,0-.15-.5.82.82,0,0,0-.32-.32.29.29,0,0,0-.32,0,.3.3,0,0,0-.14.29.88.88,0,0,0,.14.45,5.06,5.06,0,0,0,.34.47,8.39,8.39,0,0,1,.57.78,1.79,1.79,0,0,1,.27.9.62.62,0,0,1-.27.59.6.6,0,0,1-.65-.06,1.89,1.89,0,0,1-.65-.69,1.65,1.65,0,0,1-.27-.83l.28.08a1.31,1.31,0,0,0,.19.64,1.36,1.36,0,0,0,.45.47.39.39,0,0,0,.64-.36,1.21,1.21,0,0,0-.19-.63C248.52,174,248.39,173.76,248.18,173.49Z"/><path d="M249.86,170.5l.28.16v2.42a.88.88,0,0,1,.87.1,2.51,2.51,0,0,1,.89.91,2.34,2.34,0,0,1,.35,1.2v2.38l-.28-.17v-2.34a1.82,1.82,0,0,0-.28-.94,1.87,1.87,0,0,0-.68-.71.69.69,0,0,0-.68-.08.58.58,0,0,0-.19.19v2.83l-.28-.16Z"/><path d="M181.44,131.31l-2.58-1.48V129l.36.2v-.3l-.36-.2-.44-.26v1.14l-2.58-1.49h0l-.44-.26v4.12l.44.26v-.76l2.58,1.48v3l.44.25v-3l2.58,1.49v.76l.45.26v-4.11h0l-.45-.26Zm-5.6-.39v-2.33l2.58,1.49v2.32Zm5.6,3.23-2.58-1.49v-2.32l2.58,1.49Z"/><path d="M190.86,143a23.07,23.07,0,0,1-3.73-4.61,5.47,5.47,0,0,0,2-2.09l.9.52v-.51l-2.91-1.68v-.84l.36.2v-.29l-.36-.21-.44-.26v1.14l-3.14-1.81v.51l.75.43a24.61,24.61,0,0,0,2,4.44,5.82,5.82,0,0,1-3.73.31l.16.68a6.14,6.14,0,0,0,3.95-.34,24.43,24.43,0,0,0,3.95,4.91Zm-5.93-9.15,3.64,2.1a5.11,5.11,0,0,1-1.82,1.79A23.61,23.61,0,0,1,184.93,133.84Z"/><path d="M234.58,237.49v.33l-2.24-1.29v2.4l2.24,1.3v.32l-2.24-1.29v2.41l2.24,1.29v.33l-2.52-1.46V236Z"/><path d="M236.3,242.45a5.33,5.33,0,0,1-.5-.67,1.43,1.43,0,0,1-.22-.73.49.49,0,0,1,.22-.48.5.5,0,0,1,.52.05,1.31,1.31,0,0,1,.51.53,1.28,1.28,0,0,1,.2.63v0l-.25,0a1.18,1.18,0,0,0-.15-.5.8.8,0,0,0-.31-.32.35.35,0,0,0-.32,0,.33.33,0,0,0-.14.3.88.88,0,0,0,.14.45,4.44,4.44,0,0,0,.33.47,6.51,6.51,0,0,1,.57.78,1.79,1.79,0,0,1,.27.9.62.62,0,0,1-.27.59.61.61,0,0,1-.65-.06,1.87,1.87,0,0,1-.64-.69,1.68,1.68,0,0,1-.27-.83l.28.08a1.3,1.3,0,0,0,.18.64,1.36,1.36,0,0,0,.45.47.46.46,0,0,0,.46.05.44.44,0,0,0,.18-.41,1.25,1.25,0,0,0-.18-.62C236.64,242.91,236.5,242.72,236.3,242.45Z"/><path d="M238,241.69l.28.17v.5l.18-.14a1.2,1.2,0,0,1,1.23.13,3.39,3.39,0,0,1,1.22,1.29,3.33,3.33,0,0,1,.51,1.7,1,1,0,0,1-1.73,1,3.34,3.34,0,0,1-1.23-1.29l-.18-.34v2.08l-.28-.17Zm.28,1.49v.68a3.21,3.21,0,0,0,.39,1,2.85,2.85,0,0,0,1,1.07,1,1,0,0,0,1,.1,1,1,0,0,0,.42-.92,2.78,2.78,0,0,0-.42-1.4,2.91,2.91,0,0,0-1-1.07,1,1,0,0,0-1-.1A.87.87,0,0,0,238.26,243.18Z"/><path d="M245.53,249.61l-.29-.17v-.72l-.17.14a1.2,1.2,0,0,1-1.23-.13,3.34,3.34,0,0,1-1.23-1.29,3.45,3.45,0,0,1-.5-1.7,1.17,1.17,0,0,1,.5-1.11,1.22,1.22,0,0,1,1.23.12,3.44,3.44,0,0,1,1.23,1.3,3.59,3.59,0,0,1,.17.34v-.5l.29.16Zm-.29-1.73v-.65a3,3,0,0,0-.39-1.06,2.83,2.83,0,0,0-1-1.07,1,1,0,0,0-1-.1,1,1,0,0,0-.41.92,3.07,3.07,0,0,0,1.43,2.46,1,1,0,0,0,1,.11A.83.83,0,0,0,245.24,247.88Z"/><path d="M246.76,247.55v2.77l-.28-.17V246.6l.28.16V247a.86.86,0,0,1,.9.08,2.36,2.36,0,0,1,.89.91,2.46,2.46,0,0,1,.36,1.2v2.38l-.29-.17V249a1.81,1.81,0,0,0-.28-.93,1.9,1.9,0,0,0-.68-.72.67.67,0,0,0-.67-.07A.56.56,0,0,0,246.76,247.55Zm.91-1.25a1.25,1.25,0,0,0,.4.44h0c.11.06.18,0,.22-.17l.22.12c-.05.29-.15.41-.32.37l-.13,0a1.21,1.21,0,0,1-.36-.38,1.63,1.63,0,0,0-.39-.44h0c-.1-.05-.17,0-.22.18l-.22-.13c0-.28.15-.41.32-.37l.13.06A1.16,1.16,0,0,1,247.67,246.3Z"/><path d="M251.39,249.12a3.82,3.82,0,0,1,1.74,3,1.16,1.16,0,0,1-.51,1.11,1.2,1.2,0,0,1-1.23-.13,3.8,3.8,0,0,1-1.73-3,1.05,1.05,0,0,1,1.73-1Zm-1,.24a1,1,0,0,0-.42.92,2.78,2.78,0,0,0,.42,1.4,2.91,2.91,0,0,0,1,1.07,1,1,0,0,0,1,.1,1,1,0,0,0,.42-.92,2.78,2.78,0,0,0-.42-1.4,2.85,2.85,0,0,0-1-1.07A1,1,0,0,0,250.38,249.36Z"/><path d="M254.17,248.8v5.79l-.29-.16v-5.79Z"/><path d="M172.45,205.41v2l-.28-.17v-5.79l1.32.77a3.49,3.49,0,0,1,1,1.12A3.2,3.2,0,0,1,175,205a1.1,1.1,0,0,1-.48,1.06,1.13,1.13,0,0,1-1.17-.12Zm0-3.46v3.13l.86.49a.93.93,0,0,0,1,.1.91.91,0,0,0,.4-.88,3,3,0,0,0-1.36-2.34Z"/><path d="M175.86,210.74l-.32-.19.82-1.54-1.18-3.57.32.18,1,3.07,1-1.89.32.18Z"/><path d="M181,211.52l.3.29a.9.9,0,0,1-.19.15,1.2,1.2,0,0,1-1.23-.13,3.84,3.84,0,0,1-1.73-3,1.16,1.16,0,0,1,.51-1.11,1.2,1.2,0,0,1,1.22.12,3.33,3.33,0,0,1,1.23,1.29l.19.36-.3-.05c0-.06-.07-.12-.1-.19a2.82,2.82,0,0,0-1-1.06.87.87,0,0,0-1.42.82,2.78,2.78,0,0,0,.42,1.4,2.71,2.71,0,0,0,1,1.06,1,1,0,0,0,1,.11Z"/><path d="M184.75,213.66l.3.3a.72.72,0,0,1-.19.14,1.2,1.2,0,0,1-1.22-.12,3.39,3.39,0,0,1-1.22-1.29,3.32,3.32,0,0,1-.51-1.7,1.17,1.17,0,0,1,.51-1.12,1.18,1.18,0,0,1,1.22.13,3.25,3.25,0,0,1,1.22,1.29,2.45,2.45,0,0,1,.19.35l-.3,0a1.14,1.14,0,0,0-.1-.19,2.8,2.8,0,0,0-1-1.06.87.87,0,0,0-1.43.81,2.78,2.78,0,0,0,.42,1.4,2.83,2.83,0,0,0,1,1.07,1,1,0,0,0,1,.1Z"/><path d="M187.56,212.58l-.76.65L188,216.4l-.35-.2-1-2.82-.63.44v1.41l-.29-.17V211.5l.29.17v1.63l1.21-.93Z"/><path d="M188.29,213l.28.17v3l2-1.87.31.18V218l-.29-.16v-3l-2,1.88h0l-.28-.16Z"/><path d="M191.5,214.86l.28.16v3l2-1.87.3.18v3.55l-.28-.16v-3l-2,1.88h0l-.28-.16Zm.77-.84a1.21,1.21,0,0,0,.15.41,1.07,1.07,0,0,0,.37.39.34.34,0,0,0,.36,0,.28.28,0,0,0,.14-.25l.23.14a.43.43,0,0,1-.21.39.48.48,0,0,1-.52,0,1.41,1.41,0,0,1-.53-.55,1.47,1.47,0,0,1-.22-.65Z"/></g><path d="M276.05,154.52l-.13,44L177,224.83l-21.32-12.31a14.39,14.39,0,0,1-6.54-11.33l0-12.89Z" fill="#4f5f66" style="mix-blend-mode:screen"/><path d="M276.19,109.09,149.32,142.86l0-13.57L268.78,97.5l.87.51A14.45,14.45,0,0,1,276.19,109.09Z" fill="#4f5f66" style="mix-blend-mode:screen"/><polygon points="276.17 118.11 276.13 131.68 149.26 165.46 149.3 151.89 276.17 118.11" fill="#4f5f66" style="mix-blend-mode:screen"/><ellipse cx="108.57" cy="331.19" rx="24.81" ry="42.98" transform="translate(-223.2 437.96) rotate(-89.69)" fill="#e3ecff"/><path d="M91.53,165.42a12.89,12.89,0,0,0-2.09-5.76,6,6,0,0,0-5.3-2.62c-1.72.2-2.34,1.45-3.09,2.83a22.37,22.37,0,0,0-1.82,4.45c-.65,2.31-1.15,4.66-1.63,7a37.26,37.26,0,0,1-2.43,8.08c-.22.5-.44,1-.65,1.51a65.22,65.22,0,0,0-4,13.11,83.67,83.67,0,0,0-1,13.88c-.06,3.25,0,6.4-1.21,9.5-.34.88-.69,1.76-1,2.63a3.53,3.53,0,0,0-.4,1.54,3.59,3.59,0,0,0,.33,1.16l1.21,2.86a2.2,2.2,0,0,0,.5.83,2.08,2.08,0,0,0,.68.39,25.83,25.83,0,0,0,3.25,1.09,2.07,2.07,0,0,0,.89.08c.19,0,.36-.13.55-.18.71-.18,1.49.29,2.19.05a3.71,3.71,0,0,1,.46-.19c.15,0,.32,0,.47-.07a1.14,1.14,0,0,0,.72-1.3,3.35,3.35,0,0,0-.77-1.42l-2.42-3.11a6.12,6.12,0,0,1-.91-1.42c.36,0,.72,0,1.08,0a.38.38,0,0,1,.23.06.36.36,0,0,1,.11.21,11.93,11.93,0,0,0,1.77,3.55,2.56,2.56,0,0,0,.79.78,1,1,0,0,0,1.06,0c.46-.34.38-1,.25-1.59l-.93-4.19A3.52,3.52,0,0,0,77.32,217c-.38-.29-1.06-.4-1.33-.82a4.58,4.58,0,0,1-.26-2.47,96.21,96.21,0,0,1,3-10.24c1.68-4.34,3-8.85,4.82-13.15,1.62-4,3.86-7.61,5.71-11.46,1.1-2.3,2.61-5.1,2.65-7.69A31.83,31.83,0,0,0,91.53,165.42Z" fill="#ffb78c"/><path d="M98.48,148.64a17.62,17.62,0,0,0,1.25-1.6A13.87,13.87,0,0,0,84.53,152a41,41,0,0,0-6,13.07,3.49,3.49,0,0,0-.19,1.8,3.07,3.07,0,0,0,.44.91,14.23,14.23,0,0,0,4.33,4.34,18.09,18.09,0,0,0,8.37,2.48,4.31,4.31,0,0,0,2-.2c1.48-.65,1-2.2.77-3.43a33.51,33.51,0,0,1-.37-4.8A40.25,40.25,0,0,1,95,156.56a9.53,9.53,0,0,0,.44-1.9,6,6,0,0,1,0-1.34A7.84,7.84,0,0,1,97,150.43C97.47,149.81,98,149.23,98.48,148.64Z" fill="#6b6cb3"/><path d="M72.83,333A11,11,0,0,0,72,334.6c-1,2.54-.47,6.12,2.45,7.07a5.88,5.88,0,0,0,3.14-.05c1-.26,2-.63,3.08-.82a20.34,20.34,0,0,1,5.92.26,11,11,0,0,0,5.85-.46,6.52,6.52,0,0,0,3.36-3.88c.55-1.58.94-3.92-1-4.63a17,17,0,0,0-3.85-.56,12.12,12.12,0,0,1-5.9-2.39,4.76,4.76,0,0,1-1.09-1c-.26-.37-.23-.6-.7-.81a19.9,19.9,0,0,0-3.69-.81,5.72,5.72,0,0,0-3.23.14c-2.14.87-2.1,3.65-3,5.45-.13.27-.29.54-.44.81Z" fill="#4d4d80"/><path d="M116.92,234.9a17.71,17.71,0,0,1-2-5.68,65.36,65.36,0,0,0-4.17-12.13,11.88,11.88,0,0,0-2.36-3.73,11.57,11.57,0,0,0-5.83-2.59,4.53,4.53,0,0,0-4.77,1.5c-.73,1-1.47,2-2.17,3.08-.46.71-1.21,1-1.64,1.72a34.3,34.3,0,0,0-5.38,16.3A97.8,97.8,0,0,0,89,243.78,72.88,72.88,0,0,1,88.38,254a73.89,73.89,0,0,1-6.54,23.72,69.14,69.14,0,0,0-4.68,12.83A70.72,70.72,0,0,0,75.59,301q-.24,3-.34,5.93c-.21,5.39-.2,10.78-.56,16.16-.11,1.56-.25,3.12-.43,4.68-.09.78-.23,1.55-.31,2.33-.22,2,3.29,1.86,4.47,1.85a15.61,15.61,0,0,0,6.17-1.29c.85-.37.94-.64.89-1.47-.07-1,.59-7.61.89-9.8a71.88,71.88,0,0,1,2.46-12.44c1.28-3.93,2.88-7.79,4.29-11.68.82-2.24,6.37-16.39,7.1-18q2.57-5.56,5.12-11.14c2.34-5.09,4.68-10.19,6.82-15.36,1.88-4.57,3.61-9.2,5.11-13.9a2.11,2.11,0,0,0,.16-.92A2.61,2.61,0,0,0,116.92,234.9Z" fill="#fa0"/><path d="M119.32,334.15a3.72,3.72,0,0,0,.92,2.52,3.43,3.43,0,0,0,2.38,1,6.89,6.89,0,0,0,2.56-.52c2.91-1.11,5.37-3.21,8.31-4.25a36,36,0,0,0,5.08-1.68,10.83,10.83,0,0,0,2.39-1.81,11.42,11.42,0,0,0,3-4.35c.48-1.35,1.18-4.15-.2-5.19a7.09,7.09,0,0,0-5.11-1.08,32.26,32.26,0,0,0-9,1.95c-1,.37-2,.78-2.9,1.24a12.29,12.29,0,0,0-2.36,1.23,11.2,11.2,0,0,0-2.29,2.7,16.15,16.15,0,0,0-2.4,5.55A11.51,11.51,0,0,0,119.32,334.15Z" fill="#6b6cb3"/><path d="M137.51,216.68c-.4,2.71-.94,4.72-3.74,5.6a11.84,11.84,0,0,1-5.49.18,20.87,20.87,0,0,1-7.2-2.66c-2.86-1.7-5.29-4.08-8.27-5.54-3.25-1.58-6.62-1.49-9,1.61a13.81,13.81,0,0,0-2.31,6.95c-.86,8.44,2.48,16.59,9.63,21.37a10,10,0,0,1,2.91,2.39,7.69,7.69,0,0,1,1,3.34c.8,6.07.21,12.16.59,18.24a184.18,184.18,0,0,1,.23,19.09c-.15,3.5-.38,7-.28,10.51a47.34,47.34,0,0,0,1.67,10.2c.82,3.3,1.46,6.72,2,10.08.31,1.86.57,3.73.82,5.59.07.53.33,4.95.65,5.05a9.55,9.55,0,0,0,9.06-2,1.83,1.83,0,0,0,.51-.64,1.75,1.75,0,0,0,.11-.72q.5-14.65,1-29.32a88.9,88.9,0,0,1,4.14-25.37c1.38-4.22,2.89-8.41,4-12.71a84,84,0,0,0,2.11-12.88c1-9-.62-18.11-3.59-26.6C138,217.87,137.73,217.27,137.51,216.68Z" fill="#ffea00"/><path d="M96.2,146.45a10.94,10.94,0,0,0-7.18,3c-3.78,3.83-4.6,10.26-4,15.38a36.9,36.9,0,0,0,4.21,13.3c1.83,3.37,4.21,6.51,5.31,10.19,1.67,5.57-3,26.87-3.3,31.84a3.31,3.31,0,0,0,1.06,3.22,31.15,31.15,0,0,0,12.18,7.89,50.32,50.32,0,0,0,14.33,2.8c6.84.44,14-.15,20-3.38a4.92,4.92,0,0,0,1.35-.95,4.75,4.75,0,0,0,.94-3.44c-.06-2.24-.91-4.36-1.35-6.56-2.11-10.57-4.59-21.29-3.55-32,.42-4.27,1.38-8.45,2.22-12.64.74-3.68,2.59-8.49-.3-11.54-4.61-4.84-10.93-7.63-17.07-10.29-3.74-1.63-7.5-3.25-11.38-4.5S100.78,146.09,96.2,146.45Z" fill="#4d4d80"/><path d="M124.88,125.58l0,.55a7.87,7.87,0,0,0,.09,2.74,26.13,26.13,0,0,1,.85,2.59,8,8,0,0,1-.28,3.15c-.34,1.51-.71,3-1.1,4.51a6.1,6.1,0,0,1-1.54,3.13c-.43.37-.94.61-1.4.95a6.6,6.6,0,0,0-2.28,5.05c-.1,1.91.24,3.81.21,5.72a30.91,30.91,0,0,1-10.18,1c-2.89-.2-5.89-.86-8.1-2.75a.83.83,0,0,1-.27-.32,1,1,0,0,1,0-.52c.5-4.67-2.66-8.68-3.56-13.08s-1.61-8.71-.89-13,3.1-8.58,7-10.52a17.58,17.58,0,0,1,8.57-1.34,20.16,20.16,0,0,1,7.39,1.43,9.29,9.29,0,0,1,5.17,5.25A14.24,14.24,0,0,1,124.88,125.58Z" fill="#ffb78c"/><path d="M120.63,114.74a13.73,13.73,0,0,0-4-1.86,19.91,19.91,0,0,0-5.19-.91,16,16,0,0,0-15.85,11.47c-.2.62-.37,1.24-.52,1.87a27,27,0,0,0,2.57,18.85,24.23,24.23,0,0,0,1.72,2.74c.75,1,1.16,1.59,2.48,1.79,3.47.5,7-.69,10.07-2.37A27.49,27.49,0,0,0,122.06,137c3.76-5.95,5.07-14.74.38-20.58A9.1,9.1,0,0,0,120.63,114.74Z" fill="#754600"/><path d="M180.07,115a2.23,2.23,0,0,0-1.78-.61,1.25,1.25,0,0,0-.72-1,2.85,2.85,0,0,1-1-.73,6.37,6.37,0,0,0-.41-.72c-.46-.5-1.29-.22-1.9.08s-1.48.52-1.88,0a1.45,1.45,0,0,1-.19-.85c0-2.71,1.28-5.39.83-8.07-.08-.46-.31-1-.78-1s-.71.34-.91.69a12.2,12.2,0,0,0-1.12,3.76c-.2,1.13-.41,2.27-.61,3.4-.35,1.93-.7,3.86-1,5.79a17.51,17.51,0,0,0-.33,4.39c.08,1,.47,2,.48,3,0,.82-3.87,14.53-4.8,17.35-.69,2.09-1.35,4.19-1.89,6.32a14.06,14.06,0,0,0-.46,2.48c-2.38,1.4-11,6.28-13.06,7s-3.88,1.05-5.37,2.63a2.47,2.47,0,0,0-.55.77,3,3,0,0,0,.06,1.69A15.09,15.09,0,0,1,141,172a4,4,0,0,0-.74,1.87,32,32,0,0,0,8.11-1.09,30,30,0,0,0,8.37-4.73q3-2.2,5.93-4.5a53.64,53.64,0,0,0,7.75-7.07c2.2-2.55,2.69-5.44,3.55-8.54a52.74,52.74,0,0,0,1.67-11.38,47,47,0,0,1,.84-8.55c.3-1.26.28-2.51,1-3.64a10.34,10.34,0,0,0,1.41-4.48,5.8,5.8,0,0,1,.4-1.59c.24-.54.63-1,.88-1.54A1.67,1.67,0,0,0,180.07,115Z" fill="#ffe5cc"/><path d="M136.18,157c-1.62,0-3.24.12-4.85.3-2.61.28-5.73.56-7.87,2.2-1.73,1.33-2.2,3.42-2.19,5.48s1.52,4.67,2.66,6.34c2.68,3.95,7.67,5.55,12.26,5.49a31.38,31.38,0,0,0,6-.68,7.54,7.54,0,0,0,3.16-1.22,11.14,11.14,0,0,0,2.17-3.53,18.61,18.61,0,0,0,1.74-8.27c-.07-2.54-1-6.07-4.1-6.1l-4.84,0C139,157,137.57,157,136.18,157Z" fill="#6b6cb3"/><path d="M99.37,152.23a9.93,9.93,0,0,0-2.24,9.11,5.89,5.89,0,0,1,.3,1.49,6,6,0,0,1-.35,1.6,8.63,8.63,0,0,0-.08,4.4,6.88,6.88,0,0,1,.38,2.09,6.56,6.56,0,0,1-.5,1.71,8.25,8.25,0,0,0,.1,5.65,7.37,7.37,0,0,1,.67,2.07,7.26,7.26,0,0,1-.28,1.84,8.26,8.26,0,0,0,.77,5.46,5.27,5.27,0,0,1,.67,1.52,4,4,0,0,1-.16,1.63c-.57,2.41-1.15,4.82-1.72,7.23a39.57,39.57,0,0,0-1.35,8.13,20.12,20.12,0,0,0,2.8,10.76c1.67-.55,2.71-2.2,3.41-3.81a21.12,21.12,0,0,0,1.32-12.48,26.55,26.55,0,0,0-2.25-6.41,2,2,0,0,1-.3-1.14,2.24,2.24,0,0,1,.62-1,8.8,8.8,0,0,0,1.23-9.37,5.54,5.54,0,0,1-.73-1.89,5.94,5.94,0,0,1,.71-2.45,7.77,7.77,0,0,0,.27-5,2.28,2.28,0,0,1,.23-2.37,6.47,6.47,0,0,0-.91-7.08,16.85,16.85,0,0,0,2.21-3.86,5.67,5.67,0,0,0,0-4.34,3.05,3.05,0,0,1-.49-1.29,2.45,2.45,0,0,1,.49-1.22,9.47,9.47,0,0,0,1.64-6.22c-.36-2.4-2.84-5.34-5.31-3.36a5.63,5.63,0,0,0-1.7,3.81,9.8,9.8,0,0,0,0,2.42C98.79,150.14,99.42,152.17,99.37,152.23Z" fill="#754600"/><path d="M318.42,402.71l-63.17-36.47c-2.36-1.36-2.06-3.74.66-5.31l96.47-55.7c2.72-1.57,6.83-1.74,9.19-.38l63.17,36.47c2.35,1.36,2.06,3.74-.66,5.31l-96.48,55.7C324.88,403.9,320.77,404.07,318.42,402.71Z" fill="#e3ecff"/><polygon points="262.83 360.01 319.12 327.36 326.85 370.56 318.69 392.13 312.47 390.84 262.83 360.01" fill="#ffea00"/><polygon points="268.82 343.03 268.82 358.78 318.88 387.7 318.88 375.23 314.78 369.83 268.82 343.03" fill="#eff0f2"/><polygon points="268.82 351.91 293.85 366.35 268.82 353.59 268.82 351.91" fill="#ced3de"/><path d="M318,393.66l86-49.55.24-.14a4.06,4.06,0,0,0,2-3.51V326.35l-2.56,1.48-12.76,7.37L387.82,337l-67.14,38.75-1.4,14.85Z" fill="#fa0"/><path d="M310.24,365.72l10.44,10L387.82,337l3.07-1.76,12.76-7.37,2.56-1.48a6.93,6.93,0,0,0-3.46-6l-7-4h0l-3.05,1.77L377,327.17l-3.06,1.77Z" fill="#ffd60a"/><path d="M318.88,375.23V387.7l-1.78-1v-3.74a19.62,19.62,0,0,0-.14-3.6,6.73,6.73,0,0,0-1.76-3.25l-.17-.16c-2.62-2.68-6.12-4.34-9.34-6.18l-9.4-5.37q-5-2.89-10.08-5.76l-9.35-5.36c-2.42-1.39-4.85-2.76-7.26-4.15l-.78-.45V343l46,26.81Z" fill="#ced3de"/><path d="M315,390.13l-4.77-2.75L262.83,360v3.53l47.41,27.36,4.28,2.47a4,4,0,0,0,2,.56,4.11,4.11,0,0,0,4.2-4.11V375.71a6.93,6.93,0,0,0-3.46-6l-7-4v0l-47.41-27.37v3.53l47.41,27.37,4.28,2.47.42.21.57.33a5.2,5.2,0,0,1,2.61,4.51v11.57A2.07,2.07,0,0,1,315,390.13Z" fill="#ffc400"/><polygon points="262.83 338.36 310.24 365.72 395.77 316.33 348.37 289 262.83 338.36" fill="#ffea00"/><path d="M351.35,369.92v.77l-5.18,3v-8.79l5.08-2.93v.77l-4.32,2.49v3.17l3.77-2.17V367l-3.77,2.17v3.36Z" fill="#f2f2f2"/><path d="M354.44,369a4,4,0,0,1-1.29.5,1.82,1.82,0,0,1-1.08-.09l.33-.77a2,2,0,0,0,1,.11,2.76,2.76,0,0,0,1.06-.39,3.65,3.65,0,0,0,1.1-.94,1.9,1.9,0,0,0,.4-1.13.51.51,0,0,0-.11-.39.44.44,0,0,0-.32-.14,1.88,1.88,0,0,0-.53.07c-.21.05-.46.12-.74.21s-.61.17-.85.22a1.53,1.53,0,0,1-.59,0,.47.47,0,0,1-.35-.22,1.24,1.24,0,0,1-.11-.58,2.61,2.61,0,0,1,.17-.95,3.59,3.59,0,0,1,.45-.87,4.07,4.07,0,0,1,.68-.76,4.52,4.52,0,0,1,.81-.59,3.22,3.22,0,0,1,1.19-.45,1.37,1.37,0,0,1,.86.14l-.36.71a1.09,1.09,0,0,0-.77-.12,2.83,2.83,0,0,0-.94.36,4,4,0,0,0-.54.38,2.79,2.79,0,0,0-.44.47,2.46,2.46,0,0,0-.3.55,1.81,1.81,0,0,0-.11.6.74.74,0,0,0,.08.38.3.3,0,0,0,.25.13,1.46,1.46,0,0,0,.44,0c.18,0,.39-.1.64-.18a9.22,9.22,0,0,1,1-.25,2,2,0,0,1,.69-.06.61.61,0,0,1,.42.25,1.08,1.08,0,0,1,.14.61,3,3,0,0,1-.6,1.75A4.82,4.82,0,0,1,354.44,369Z" fill="#f2f2f2"/><path d="M360.74,365.4a1.88,1.88,0,0,1-1.26.31,1.39,1.39,0,0,1-.89-.54v4l-.73.42v-9.08l.66-.38v1.25a6.63,6.63,0,0,1,.9-1.51,4.41,4.41,0,0,1,1.2-1.07,2.27,2.27,0,0,1,1.08-.35,1.43,1.43,0,0,1,.85.26,1.77,1.77,0,0,1,.56.75,3,3,0,0,1,.19,1.13,5.72,5.72,0,0,1-.18,1.4,6.09,6.09,0,0,1-.53,1.36,5.5,5.5,0,0,1-.81,1.2A4.05,4.05,0,0,1,360.74,365.4Zm-.2-.63a3.19,3.19,0,0,0,.83-.7,4.87,4.87,0,0,0,.64-1,5.36,5.36,0,0,0,.41-1.07,4.31,4.31,0,0,0,.14-1,2.22,2.22,0,0,0-.17-.9,1.3,1.3,0,0,0-.44-.58,1.07,1.07,0,0,0-.67-.18,1.83,1.83,0,0,0-.83.27,3,3,0,0,0-.59.47,6.3,6.3,0,0,0-.58.68,5.51,5.51,0,0,0-.45.77,2.49,2.49,0,0,0-.24.75v2a1.54,1.54,0,0,0,.33.45,1.1,1.1,0,0,0,.46.25,1.25,1.25,0,0,0,.55,0A1.84,1.84,0,0,0,360.54,364.77Z" fill="#f2f2f2"/><path d="M366,362.37a2,2,0,0,1-.75.28,1,1,0,0,1-.59-.09.82.82,0,0,1-.4-.4,1.53,1.53,0,0,1-.14-.71,2.63,2.63,0,0,1,.17-.88,4.44,4.44,0,0,1,.49-.9,5.26,5.26,0,0,1,.75-.83,5.41,5.41,0,0,1,.95-.7,6.53,6.53,0,0,1,.89-.42,3.59,3.59,0,0,1,.79-.21v-.58c0-.57-.14-.94-.43-1.11s-.67-.12-1.17.17a4.53,4.53,0,0,0-.89.71,10,10,0,0,0-.92,1.11l-.26-.41a7.56,7.56,0,0,1,2.13-2.07c.7-.41,1.26-.51,1.67-.28s.61.73.61,1.53v2.9c0,.24.09.3.27.19v.75l-.28.2c-.19.11-.34.14-.44.09s-.17-.16-.17-.35l0-.49a6.37,6.37,0,0,1-1,1.46A5.33,5.33,0,0,1,366,362.37Zm.17-.74a4.5,4.5,0,0,0,1.06-.86,4,4,0,0,0,.73-1.08,1.21,1.21,0,0,0,.15-.33,1,1,0,0,0,.05-.26V358a3.81,3.81,0,0,0-.77.2,4.86,4.86,0,0,0-.81.38,4.26,4.26,0,0,0-1.27,1.1,2.19,2.19,0,0,0-.49,1.26,1.06,1.06,0,0,0,.11.5.66.66,0,0,0,.28.29.67.67,0,0,0,.43.05A1.42,1.42,0,0,0,366.15,361.63Z" fill="#f2f2f2"/><path d="M375.23,356.91l-.74.42v-3.6a2.5,2.5,0,0,0-.3-1.5c-.2-.23-.5-.23-.92,0a4,4,0,0,0-.65.51,4.41,4.41,0,0,0-.6.74,6.16,6.16,0,0,0-.5.87,5,5,0,0,0-.31.92v4l-.74.42V353.2l.67-.38v1.45a6.77,6.77,0,0,1,1-1.71,4.92,4.92,0,0,1,1.41-1.24,1.52,1.52,0,0,1,.79-.26.64.64,0,0,1,.52.25,1.72,1.72,0,0,1,.28.72,5.89,5.89,0,0,1,.09,1.1ZM373.55,350a1.26,1.26,0,0,1-.43.17l-.34,0h-.3a.8.8,0,0,0-.33.11.85.85,0,0,0-.28.25,1.46,1.46,0,0,0-.17.29.9.9,0,0,0-.07.24c0,.07,0,.11,0,.13l-.46.26s0-.13,0-.28a2.79,2.79,0,0,1,.15-.47,2.37,2.37,0,0,1,.3-.53,1.52,1.52,0,0,1,.5-.44,1.05,1.05,0,0,1,.4-.15h.63a.72.72,0,0,0,.36-.13,1,1,0,0,0,.33-.27,1.18,1.18,0,0,0,.19-.31,1,1,0,0,0,.09-.25.93.93,0,0,0,0-.13l.46-.26a2,2,0,0,1-.05.27,2.1,2.1,0,0,1-.15.47,3,3,0,0,1-.33.55A2,2,0,0,1,373.55,350Z" fill="#f2f2f2"/><path d="M379.21,354.73a2.59,2.59,0,0,1-1.13.39,1.43,1.43,0,0,1-.88-.22,1.49,1.49,0,0,1-.58-.73,2.88,2.88,0,0,1-.21-1.15,5,5,0,0,1,.21-1.41,6.39,6.39,0,0,1,.59-1.4,6.86,6.86,0,0,1,.88-1.25,4.76,4.76,0,0,1,1.12-.91,2.52,2.52,0,0,1,1.13-.38,1.4,1.4,0,0,1,.89.22,1.56,1.56,0,0,1,.58.72,2.91,2.91,0,0,1,.22,1.17,5,5,0,0,1-.21,1.39,6.57,6.57,0,0,1-.58,1.4,6.84,6.84,0,0,1-.89,1.24A5,5,0,0,1,379.21,354.73Zm-2-2.13a2.39,2.39,0,0,0,.16.91,1.36,1.36,0,0,0,.44.57,1,1,0,0,0,.65.17,1.79,1.79,0,0,0,.8-.26,3.1,3.1,0,0,0,.8-.67,5.2,5.2,0,0,0,.66-.93,5.57,5.57,0,0,0,.44-1.08,4,4,0,0,0,.17-1.11,2.32,2.32,0,0,0-.17-.92,1.29,1.29,0,0,0-.44-.57,1.06,1.06,0,0,0-.66-.18,1.82,1.82,0,0,0-.8.26,3.19,3.19,0,0,0-.79.66,4.9,4.9,0,0,0-.65.94,5.44,5.44,0,0,0-.45,1.09A4.39,4.39,0,0,0,377.16,352.6Z" fill="#f2f2f2"/><path d="M383.3,343.21l.73-.43v7.58c0,.24.06.4.18.47s.28,0,.49-.08a2.59,2.59,0,0,0,.28-.2,2.68,2.68,0,0,0,.3-.28l.13.61a3.82,3.82,0,0,1-.5.45,3.54,3.54,0,0,1-.52.36.84.84,0,0,1-.8.14c-.2-.11-.29-.36-.29-.76Z" fill="#f2f2f2"/><path d="M339.43,380.13l-10.32,6c-.41.23-.74,0-.74-.55V374a1.74,1.74,0,0,1,.74-1.4l10.32-6c.41-.23.74,0,.74.56v11.58A1.76,1.76,0,0,1,339.43,380.13Z" fill="#ffea00"/><path d="M340.17,367.08v2.05l-11.8,6.81v-2.05a1.77,1.77,0,0,1,.79-1.37l10.22-5.89C339.81,366.37,340.17,366.58,340.17,367.08Z" fill="#e70317"/><path d="M340.17,376.94v1.86a1.75,1.75,0,0,1-.79,1.36l-10.22,5.9c-.43.25-.79.05-.79-.45v-1.86Z" fill="#e70317"/><path d="M278.66,357.7a3.56,3.56,0,0,0-.63.47,8.88,8.88,0,0,0-1.46,2c-.12.25-.27.53-.37.8-.78,1.63-1.35,3.36-2.26,4.94a12.49,12.49,0,0,1-5.81,5.11l.42-3.51-6.22.1a12.47,12.47,0,0,0,5.79-5.12c.9-1.55,1.48-3.28,2.23-4.91.13-.27.25-.55.4-.83a8.88,8.88,0,0,1,1.46-2,3.53,3.53,0,0,1,.57-.45Z" fill="#e70317"/><polygon points="274.46 334.6 330.75 301.95 338.48 345.15 330.32 366.72 324.1 365.43 274.46 334.6" fill="#d7dde8"/><polygon points="280.45 317.62 280.45 333.37 330.51 362.29 330.51 349.82 326.4 344.43 280.45 317.62" fill="#e6e6e6"/><polygon points="280.45 330.74 305.48 345.18 280.45 332.42 280.45 330.74" fill="#b3b3b3"/><path d="M329.66,368.25l86-49.55.24-.14a4.06,4.06,0,0,0,2-3.5V300.94l-2.56,1.48-12.76,7.37-3.07,1.76L332.31,350.3l-1.4,14.85Z" fill="#b3bac9"/><path d="M321.87,340.31l10.44,10,67.14-38.75,3.07-1.76,12.76-7.37,2.56-1.48a6.93,6.93,0,0,0-3.46-6l-7-4,0,0-3.05,1.76-15.7,9.07-3.06,1.76Z" fill="#d7dde8"/><path d="M330.51,349.82v12.47l-1.78-1v-3.74a19.62,19.62,0,0,0-.14-3.6,6.75,6.75,0,0,0-1.77-3.25l-.16-.16c-2.62-2.68-6.12-4.34-9.34-6.18l-9.4-5.37-10.08-5.76-9.35-5.36c-2.42-1.39-4.85-2.76-7.26-4.15l-.78-.45v-5.63l45.95,26.81Z" fill="#f2f2f2"/><path d="M326.64,364.72,321.86,362l-47.4-27.37v3.53l47.4,27.37,4.29,2.47a4.09,4.09,0,0,0,6.16-3.56V350.3a6.93,6.93,0,0,0-3.46-6l-7-4v0L274.46,313v3.52l47.4,27.37,4.29,2.47.42.21.57.33a5.2,5.2,0,0,1,2.61,4.51v11.57A2.07,2.07,0,0,1,326.64,364.72Z" fill="#ced3de"/><polygon points="274.46 312.95 321.87 340.31 407.4 290.92 360 263.59 274.46 312.95" fill="#e6e6e6"/><path d="M356.6,349v-8.79l3.19-1.84a1.79,1.79,0,0,1,.92-.29,1.22,1.22,0,0,1,.72.21,1.56,1.56,0,0,1,.48.61,2.13,2.13,0,0,1,.17.9,4.18,4.18,0,0,1-.16,1.14,5.42,5.42,0,0,1-.46,1.15,5.06,5.06,0,0,1-.7,1,3.53,3.53,0,0,1-.9.75l-2.5,1.45v3.24Zm.76-4.45,2.46-1.42a2.57,2.57,0,0,0,.62-.53,3.5,3.5,0,0,0,.47-.71,4.26,4.26,0,0,0,.3-.82,3.06,3.06,0,0,0,.11-.83,1.86,1.86,0,0,0-.12-.7,1,1,0,0,0-.34-.44.77.77,0,0,0-.5-.14,1.35,1.35,0,0,0-.6.19l-2.4,1.39Z" fill="#f2f2f2"/><path d="M363.2,346.87a.48.48,0,0,0,.33,0,1.12,1.12,0,0,0,.34-.13,1,1,0,0,0,.28-.26,2,2,0,0,0,.27-.48,5.91,5.91,0,0,0,.28-.77c.09-.31.2-.7.31-1.16l-2.46-5,.76-.44,2.09,4.46,2-6.79.71-.41-2.64,9a8.25,8.25,0,0,1-.34,1,4.88,4.88,0,0,1-.34.72,2.61,2.61,0,0,1-.38.5,2.3,2.3,0,0,1-.44.33c-.33.19-.58.24-.75.14Z" fill="#f2f2f2"/><path d="M368.5,338.86a5.39,5.39,0,0,1,.2-1.41,6.31,6.31,0,0,1,.59-1.39,6.39,6.39,0,0,1,.89-1.24,5,5,0,0,1,1.15-.92,2.32,2.32,0,0,1,1.4-.39,1.13,1.13,0,0,1,.91.6l-.72.67a.83.83,0,0,0-.67-.39,1.69,1.69,0,0,0-.95.27,3.36,3.36,0,0,0-.81.67,4.56,4.56,0,0,0-.65.91,5.12,5.12,0,0,0-.43,1.06,4,4,0,0,0-.16,1.12,2.43,2.43,0,0,0,.16.94,1.25,1.25,0,0,0,.45.57,1,1,0,0,0,.65.18,1.76,1.76,0,0,0,.8-.25,3.75,3.75,0,0,0,.54-.4,4.1,4.1,0,0,0,.49-.53,4.21,4.21,0,0,0,.39-.58,2.09,2.09,0,0,0,.23-.55l.73-.17a4.28,4.28,0,0,1-.35.84,5.19,5.19,0,0,1-.54.81,5.28,5.28,0,0,1-.68.74,4.5,4.5,0,0,1-.78.56,2.58,2.58,0,0,1-1.14.39,1.38,1.38,0,0,1-.9-.21,1.56,1.56,0,0,1-.59-.73A2.91,2.91,0,0,1,368.5,338.86Z" fill="#f2f2f2"/><path d="M374.4,335.45a5.45,5.45,0,0,1,.2-1.41,6.71,6.71,0,0,1,.58-1.39,6.08,6.08,0,0,1,.9-1.23,5.33,5.33,0,0,1,1.15-.93,2.37,2.37,0,0,1,1.4-.39,1.15,1.15,0,0,1,.9.6l-.72.68a.81.81,0,0,0-.66-.39,1.67,1.67,0,0,0-.95.27,3.31,3.31,0,0,0-.81.66,4.62,4.62,0,0,0-.65.92,4.94,4.94,0,0,0-.44,1.06,4.31,4.31,0,0,0-.15,1.12,2.38,2.38,0,0,0,.16.93,1.26,1.26,0,0,0,.44.58,1.06,1.06,0,0,0,.66.18,1.79,1.79,0,0,0,.8-.26,3,3,0,0,0,.54-.39,6.15,6.15,0,0,0,.49-.53,4.91,4.91,0,0,0,.39-.58,2.7,2.7,0,0,0,.23-.55l.73-.17a4.47,4.47,0,0,1-.35.83,4.84,4.84,0,0,1-.54.82,5.18,5.18,0,0,1-1.46,1.3,2.87,2.87,0,0,1-1.14.39,1.47,1.47,0,0,1-.9-.21,1.66,1.66,0,0,1-.59-.73A3,3,0,0,1,374.4,335.45Z" fill="#f2f2f2"/><path d="M384.1,326.64l.83-.48-2.14,4.36,2.32,2-.82.47-2-1.79-.8.46v3l-.73.42v-6.45l.73-.42V331l.73-.43Z" fill="#f2f2f2"/><path d="M386.74,330.38l3.38-7.21.6-.35v6.45l-.73.42v-5.16l-3.31,7.07L386,332v-6.45l.73-.43Z" fill="#f2f2f2"/><path d="M393.1,326.71l3.38-7.22.6-.34v6.45l-.73.42v-5.16L393,327.93l-.66.38v-6.45l.72-.42Zm3.22-9.54a2.07,2.07,0,0,1-.42,1.13,3.48,3.48,0,0,1-1.09.93,1.77,1.77,0,0,1-1.1.33c-.26-.05-.4-.26-.42-.64l.47-.27c0,.27.1.42.28.43a1.67,1.67,0,0,0,.77-.28,2.83,2.83,0,0,0,.77-.61,1.25,1.25,0,0,0,.28-.76Z" fill="#f2f2f2"/><path d="M349.81,355.21l-10,5.78c-.39.23-.71,0-.71-.53V349.21a1.72,1.72,0,0,1,.71-1.36l10-5.79c.4-.22.71,0,.71.54v11.24A1.7,1.7,0,0,1,349.81,355.21Z" fill="#0039a6"/><path d="M350.52,342.53v3.62l-11.45,6.61v-3.61a1.72,1.72,0,0,1,.77-1.33l9.92-5.72C350.18,341.85,350.52,342.05,350.52,342.53Z" fill="#f2f2f2"/><path d="M350.52,350.72v3.19a1.71,1.71,0,0,1-.76,1.33L339.84,361c-.42.25-.77.05-.77-.44v-3.18Z" fill="#d52b1e"/><path d="M297,340.5a3.56,3.56,0,0,0-.63.47,8.54,8.54,0,0,0-1.45,2,7.33,7.33,0,0,0-.38.8c-.78,1.63-1.35,3.36-2.26,4.94a12.4,12.4,0,0,1-5.81,5.11l.42-3.51-6.22.1a12.47,12.47,0,0,0,5.79-5.12c.91-1.55,1.48-3.28,2.23-4.91.13-.27.26-.55.4-.83a8.88,8.88,0,0,1,1.46-2,3.53,3.53,0,0,1,.57-.45Z" fill="#0039a6"/><polygon points="260.62 316.8 316.91 284.15 324.64 327.35 316.48 348.92 310.25 347.63 260.62 316.8" fill="#595994"/><polygon points="266.6 299.82 266.6 315.57 316.66 344.49 316.66 332.02 312.56 326.62 266.6 299.82" fill="#eff0f2"/><polygon points="266.6 306.07 291.63 320.5 266.6 307.74 266.6 306.07" fill="#ced3de"/><path d="M315.81,350.45l86-49.55.24-.14a4.07,4.07,0,0,0,2-3.51V283.14l-2.57,1.48L388.67,292l-3.06,1.76L318.46,332.5l-1.4,14.85Z" fill="#30306b"/><path d="M350.08,325.53v.77l-5.18,3V320.5l5.08-2.94v.77l-4.32,2.5V324l3.77-2.18v.73l-3.77,2.18v3.35Z" fill="#f2f2f2"/><path d="M356.05,322.85l-.74.43v-3.61a2.52,2.52,0,0,0-.3-1.5c-.2-.23-.5-.23-.92,0a3.61,3.61,0,0,0-.65.52,5,5,0,0,0-.6.73,6.11,6.11,0,0,0-.49.87,4.39,4.39,0,0,0-.32.92v3.95l-.74.43v-6.45l.68-.39v1.46a6.34,6.34,0,0,1,1-1.72,5.08,5.08,0,0,1,1.41-1.24,1.52,1.52,0,0,1,.79-.26.62.62,0,0,1,.52.26,1.62,1.62,0,0,1,.28.71,5.89,5.89,0,0,1,.09,1.1Z" fill="#f2f2f2"/><path d="M359.89,320.72a2.33,2.33,0,0,1-1.07.34,1.37,1.37,0,0,1-.83-.26,1.57,1.57,0,0,1-.55-.74,2.93,2.93,0,0,1-.2-1.11,5.36,5.36,0,0,1,.2-1.39,6.25,6.25,0,0,1,.53-1.38,6.33,6.33,0,0,1,.83-1.21,4.26,4.26,0,0,1,1.07-.89,1.86,1.86,0,0,1,1.26-.31,1.59,1.59,0,0,1,.91.52v-1.35l.67-.38V319a3.93,3.93,0,0,1-.23,1.31,5.89,5.89,0,0,1-.59,1.21,5.71,5.71,0,0,1-.88,1,6.08,6.08,0,0,1-1.07.8,3,3,0,0,1-1.58.51,1.32,1.32,0,0,1-1-.51l.45-.67a1,1,0,0,0,.89.4,2.83,2.83,0,0,0,1.2-.4,5.25,5.25,0,0,0,.78-.58,4.23,4.23,0,0,0,.64-.76,3.42,3.42,0,0,0,.44-.9,3.09,3.09,0,0,0,.17-1v-1.28a6,6,0,0,1-.89,1.5A4.54,4.54,0,0,1,359.89,320.72Zm.21-.83a2.65,2.65,0,0,0,.64-.51,4.75,4.75,0,0,0,.57-.69,5.25,5.25,0,0,0,.43-.76,2.91,2.91,0,0,0,.23-.71v-2a1.25,1.25,0,0,0-.33-.45,1.05,1.05,0,0,0-.47-.24,1.27,1.27,0,0,0-.55,0,2,2,0,0,0-.61.22,3.43,3.43,0,0,0-.85.72,5.28,5.28,0,0,0-1,2,4.38,4.38,0,0,0-.14,1,2.22,2.22,0,0,0,.17.9,1.16,1.16,0,0,0,.45.56,1,1,0,0,0,.66.17A1.83,1.83,0,0,0,360.1,319.89Z" fill="#f2f2f2"/><path d="M364.37,309l.73-.43v7.58c0,.24.06.39.18.46s.28.05.49-.08a2.33,2.33,0,0,0,.28-.19,2.68,2.68,0,0,0,.3-.28l.13.61a4.7,4.7,0,0,1-.5.45,4.55,4.55,0,0,1-.52.36c-.34.2-.61.24-.8.13s-.29-.35-.29-.75Z" fill="#f2f2f2"/><path d="M367.29,308.56v-1.24l.74-.42v1.23Zm0,7.8v-6.45l.74-.43v6.45Z" fill="#f2f2f2"/><path d="M371.53,314a4,4,0,0,1-1.29.5,1.78,1.78,0,0,1-1.09-.09l.34-.76a2,2,0,0,0,1,.1,2.76,2.76,0,0,0,1.06-.39,3.36,3.36,0,0,0,1.09-.94,1.83,1.83,0,0,0,.41-1.13.59.59,0,0,0-.11-.39.45.45,0,0,0-.32-.13,1.82,1.82,0,0,0-.53.06l-.74.22-.85.21a1.54,1.54,0,0,1-.59,0,.47.47,0,0,1-.35-.22,1.13,1.13,0,0,1-.11-.58,2.65,2.65,0,0,1,.17-.95,3.59,3.59,0,0,1,.45-.87,4.8,4.8,0,0,1,.67-.76,4.59,4.59,0,0,1,.82-.59,3.18,3.18,0,0,1,1.19-.44,1.25,1.25,0,0,1,.86.14l-.36.7a1.14,1.14,0,0,0-.77-.12,2.83,2.83,0,0,0-.94.36,3.48,3.48,0,0,0-.54.38,3.23,3.23,0,0,0-.44.47,2.29,2.29,0,0,0-.3.55,1.81,1.81,0,0,0-.11.6.72.72,0,0,0,.08.38.3.3,0,0,0,.25.14,1.55,1.55,0,0,0,.44-.05l.64-.18c.37-.11.68-.19,1-.25a2.21,2.21,0,0,1,.69-.06.61.61,0,0,1,.42.25,1.1,1.1,0,0,1,.14.61,3.08,3.08,0,0,1-.6,1.76A4.8,4.8,0,0,1,371.53,314Z" fill="#f2f2f2"/><path d="M379.7,309.2l-.74.42V306a2.25,2.25,0,0,0-.33-1.46c-.22-.23-.55-.23-1,0a3.06,3.06,0,0,0-.63.5,6.2,6.2,0,0,0-.58.73,5.41,5.41,0,0,0-.47.85,5.28,5.28,0,0,0-.3.9v3.95l-.74.43v-9l.74-.42v4a6.26,6.26,0,0,1,.94-1.7,4.36,4.36,0,0,1,1.29-1.16,1.69,1.69,0,0,1,.82-.28.78.78,0,0,1,.56.26,1.43,1.43,0,0,1,.31.69,5,5,0,0,1,.1,1.08Z" fill="#f2f2f2"/><path d="M336.65,337.29l-10.73,6.19c-.42.25-.76,0-.76-.57v-12a1.85,1.85,0,0,1,.76-1.46l10.73-6.19c.42-.25.76,0,.76.57v12A1.83,1.83,0,0,1,336.65,337.29Z" fill="#6b6cb3"/><path d="M337.41,323.73v1.4l-4.4,7.6-1.14-.65,5.18-8.92h0C337.27,323.2,337.41,323.41,337.41,323.73Z" fill="#f2f2f2"/><path d="M331.47,332.34l-1.13,2-5.18-3v-.53a1.8,1.8,0,0,1,.82-1.42l.16-.09Z" fill="#f2f2f2"/><path d="M337.41,334.75v1.16a1.86,1.86,0,0,1-.5,1.16l-4.11-2.35,1.13-2Z" fill="#f2f2f2"/><path d="M337.41,323.73v.21l-4.79,8.26-.46.79-.45.78-.45.79L331,335l-.45-.26h0l.26-.45.46-.79.45-.78.2-.34.26-.45,5-8.71A.6.6,0,0,1,337.41,323.73Z" fill="#c8102e"/><path d="M332.45,334.19,332,335l-.73-.42-.45-.26h0l-5.64-3.22v-.27a1.55,1.55,0,0,1,.17-.68l5.48,3.12.45.26.45.26Z" fill="#c8102e"/><path d="M337.41,334.93V336l-5.25-3-.65-.37.2-.35.26-.44Z" fill="#c8102e"/><path d="M330.11,335.83l-4.49,7.73c-.27,0-.46-.2-.46-.58v-1.21l3.82-6.59Z" fill="#f2f2f2"/><path d="M331.91,332.39l-.2.35-.45.77-.45.79-.26.45-5.1,8.79a.53.53,0,0,1-.29-.54l5.19-9,.46-.79.65-1.12.25.14.2.12Z" fill="#c8102e"/><polygon points="337.41 327.77 337.41 331.86 333.16 334.32 333.16 339.31 329.59 341.36 329.59 336.38 325.16 338.94 325.16 334.85 329.59 332.29 329.59 327.3 333.16 325.24 333.16 330.23 337.41 327.77" fill="#f2f2f2"/><polygon points="337.41 328.62 337.41 331.02 332.42 333.9 332.42 339.73 330.33 340.94 330.33 335.1 325.16 338.09 325.16 335.7 330.33 332.71 330.33 326.87 332.42 325.67 332.42 331.5 337.41 328.62" fill="#c8102e"/><path d="M308,322.51l10.44,10,67.15-38.75,3.06-1.76,12.76-7.37,2.57-1.48a6.94,6.94,0,0,0-3.47-6l-7-4h0l-3.06,1.77L374.78,284l-3.07,1.77Z" fill="#595994"/><path d="M316.67,332v12.47l-1.79-1v-3.74a19.62,19.62,0,0,0-.14-3.6,6.65,6.65,0,0,0-1.76-3.25l-.16-.16c-2.63-2.68-6.13-4.34-9.35-6.18l-9.39-5.37q-5-2.9-10.08-5.76l-9.36-5.36-7.26-4.15-.78-.45v-5.63l46,26.81Z" fill="#ced3de"/><path d="M312.79,346.92,308,344.17l-47.4-27.37v3.53L308,347.69l4.28,2.48a4,4,0,0,0,2,.55,4.11,4.11,0,0,0,4.19-4.11V332.5a6.91,6.91,0,0,0-3.46-6l-7-4v0l-47.4-27.37v3.53L308,326l4.28,2.47a3.42,3.42,0,0,0,.43.21l.56.33a5.2,5.2,0,0,1,2.61,4.51v11.57A2.07,2.07,0,0,1,312.79,346.92Z" fill="#4d4d80"/><polygon points="260.62 295.14 308.02 322.51 393.55 273.12 346.15 245.79 260.62 295.14" fill="#6b6cb3"/><path d="M292.34,321a3.56,3.56,0,0,0-.63.47,8.88,8.88,0,0,0-1.46,2c-.12.25-.27.53-.37.8-.78,1.63-1.35,3.36-2.26,4.94a12.49,12.49,0,0,1-5.81,5.11l.42-3.51-6.22.1a12.47,12.47,0,0,0,5.79-5.12c.9-1.55,1.48-3.28,2.23-4.91.13-.27.25-.55.4-.83a8.88,8.88,0,0,1,1.46-2,3.53,3.53,0,0,1,.57-.45Z" fill="#fa8406"/><polygon points="284.36 274.9 340.65 242.25 348.38 285.45 340.22 307.02 334 305.73 284.36 274.9" fill="#ff5740"/><polygon points="290.35 257.93 290.35 273.67 340.41 302.59 340.41 290.12 336.3 284.73 290.35 257.93" fill="#eff0f2"/><polygon points="290.35 267.67 335.73 293.85 290.35 269.35 290.35 267.67" fill="#ced3de"/><path d="M339.55,308.55l86-49.55.25-.14a4.06,4.06,0,0,0,2-3.5V241.24l-2.56,1.48-12.77,7.37-3.06,1.76L342.21,290.6l-1.41,14.85Z" fill="#de2910"/><path d="M382.74,271.26l-4,2.31v-1.3l.55-.32v-.46l-.55.32-.69.4V274l-4,2.32v0l-.69.4v6.4l.69-.4v-1.18l4-2.31v4.6l.69-.4v-4.6l4-2.31v1.18l.69-.4v-6.4l-.69.4Zm-8.7,9.43v-3.61l4-2.31v3.61Zm8.7-5-4,2.32v-3.61l4-2.31Z" fill="#f2f2f2"/><path d="M397.38,272.51a9.07,9.07,0,0,1-5.8-.49,38.24,38.24,0,0,0,3.18-6.9l1.39-.8v-.8l-4.52,2.61v-1.3l.55-.32V264l-.55.32-.69.4v1.77l-4.87,2.81v.8l1.15-.67a8.33,8.33,0,0,0,3.18,3.24,36,36,0,0,1-5.8,7.17l.25.77A37.82,37.82,0,0,0,391,273a9.56,9.56,0,0,0,6.14.53Zm-9.22-3.58,5.66-3.27a37.56,37.56,0,0,1-2.83,6A7.89,7.89,0,0,1,388.16,268.93Z" fill="#f2f2f2"/><path d="M360.19,295.52l-10.33,6c-.4.23-.73,0-.73-.55V289.35a1.76,1.76,0,0,1,.73-1.4l10.33-6c.41-.23.73,0,.73.56v11.58A1.75,1.75,0,0,1,360.19,295.52Z" fill="#e6e6e6"/><path d="M359.78,295.22l-9.51,5.49c-.37.21-.67,0-.67-.51V289.54a1.61,1.61,0,0,1,.67-1.29l9.51-5.49c.37-.22.68,0,.68.51v10.66A1.65,1.65,0,0,1,359.78,295.22Z" fill="#de2910"/><polygon points="352.13 291.56 351.05 292.83 351.26 291.34 350.39 290.87 351.59 289.98 352.13 288.43 352.66 289.36 353.86 288.87 352.99 290.34 353.2 291.59 352.13 291.56" fill="#ffde00"/><polygon points="354.8 287.17 354.49 287.54 354.55 287.11 354.3 286.98 354.64 286.72 354.8 286.27 354.95 286.54 355.29 286.4 355.04 286.82 355.1 287.18 354.8 287.17" fill="#ffde00"/><polygon points="354.8 291.68 354.49 292.04 354.55 291.62 354.3 291.48 354.64 291.23 354.8 290.78 354.95 291.05 355.29 290.91 355.04 291.33 355.1 291.69 354.8 291.68" fill="#ffde00"/><polygon points="356.1 289.52 355.8 289.88 355.86 289.45 355.61 289.32 355.95 289.06 356.1 288.62 356.26 288.89 356.6 288.75 356.35 289.17 356.41 289.53 356.1 289.52" fill="#ffde00"/><polygon points="356.1 287.77 355.8 288.13 355.86 287.7 355.61 287.57 355.95 287.31 356.1 286.87 356.26 287.13 356.6 286.99 356.35 287.42 356.41 287.77 356.1 287.77" fill="#ffde00"/><path d="M331.76,280.61l10.45,10,67.14-38.75,3.06-1.76,12.77-7.37,2.56-1.48a6.94,6.94,0,0,0-3.47-6l-7-4,0,0-3,1.76-15.7,9.07-3.07,1.76Z" fill="#ff4126"/><path d="M340.41,290.12V302.6l-1.79-1v-3.73a18.91,18.91,0,0,0-.14-3.61,6.58,6.58,0,0,0-1.76-3.24c-.06-.06-.1-.12-.16-.17-2.63-2.68-6.13-4.34-9.35-6.18l-9.39-5.37-10.08-5.76-9.36-5.36c-2.41-1.38-4.84-2.76-7.25-4.15l-.79-.44v-5.64l46,26.81Z" fill="#ced3de"/><path d="M336.54,305l-4.78-2.76-47.4-27.37v3.53l47.4,27.37,4.29,2.47a4.08,4.08,0,0,0,2,.56,4.12,4.12,0,0,0,4.19-4.12V290.6a6.92,6.92,0,0,0-3.46-6l-7-4v0l-47.4-27.36v3.53l47.4,27.36,4.29,2.47.42.21.57.33a5.21,5.21,0,0,1,2.6,4.51v11.57A2.07,2.07,0,0,1,336.54,305Z" fill="#ed341a"/><polygon points="284.36 253.25 331.76 280.61 417.3 231.22 369.89 203.89 284.36 253.25" fill="#ff5740"/><path d="M334.75,293.28a3.56,3.56,0,0,0-.63.47,8.35,8.35,0,0,0-1.45,2,7.33,7.33,0,0,0-.38.8c-.78,1.63-1.35,3.36-2.26,4.94a12.4,12.4,0,0,1-5.81,5.11l.42-3.51-6.22.1a12.47,12.47,0,0,0,5.79-5.12c.91-1.55,1.48-3.28,2.23-4.91.13-.28.25-.55.4-.83a8.88,8.88,0,0,1,1.46-2,3.53,3.53,0,0,1,.57-.45Z" fill="#b3b3b3"/><path d="M347,268.19,307.64,245.5c-1.22-.7-1.06-1.93.34-2.74l27.28-15.82a5.26,5.26,0,0,1,4.75-.19l39.31,22.69c1.22.7,1.06,1.93-.34,2.74L351.7,268A5.26,5.26,0,0,1,347,268.19Z" fill="#ed341a"/><g style="isolation:isolate"><polygon points="314.18 242.85 334.04 231.31 338.16 233.69 318.31 245.23 314.18 242.85" fill="#ffea00"/><polygon points="330.68 252.38 350.54 240.84 353.53 242.56 333.68 254.1 330.68 252.38" fill="#ffea00"/><path d="M357.7,243.24l-19.86,11.54c-1,.56-2.31.39-4.16-.68l19.85-11.54C355.38,243.63,356.73,243.81,357.7,243.24Z" fill="#ffea00"/><polygon points="330.75 227.95 350.61 216.41 350.54 240.84 330.68 252.38 330.75 227.95" fill="#ff8c00"/><polygon points="330.76 226.56 350.61 215.02 352.26 215.97 332.41 227.51 330.76 226.56" fill="#ffea00"/><path d="M356.37,216.72l-19.85,11.54c-.92.53-2.25.33-4.11-.75L352.27,216C354.13,217.05,355.45,217.25,356.37,216.72Z" fill="#ffea00"/><path d="M370,248.27l-19.86,11.54c1.87-1.08,2.9-3.45,2.91-7.44,0-7.66-4.66-14.23-12.67-20.17l19.86-11.54c8,5.94,12.69,12.51,12.67,20.17C372.92,244.82,371.88,247.19,370,248.27Z" fill="#ff8c00"/><polygon points="330.82 204.08 350.68 192.54 350.61 215.02 330.76 226.56 330.82 204.08" fill="#ff8c00"/><polygon points="314.32 193.17 334.18 181.63 353.17 192.59 333.31 204.13 314.32 193.17" fill="#ffea00"/><path d="M368.19,221.22l-19.86,11.54c1.68-1,2.58-3.09,2.59-6.48,0-9-6.44-15.7-17.61-22.15l19.86-11.54c11.17,6.45,17.63,13.12,17.61,22.16C370.77,218.13,369.87,220.24,368.19,221.22Z" fill="#ffd60a"/><path d="M340.4,232.2c6.68,2.61,10.5,1.09,10.52-5.92,0-9-6.44-15.7-17.61-22.15l-19-11v1.39l4.12,2.38-.14,48.29-4.12-2.38v1.39L332.84,255c11.94,6.89,20.2,8.67,20.23-2.64C353.1,244.71,348.41,238.14,340.4,232.2Zm-9.58-28.12,2,1.18c4.44,2.56,5.51,5.89,5.49,12.9v3.42c0,6-1.35,8.57-5.93,5.93l-1.65-.95ZM340,246.79c0,6.71-1.42,10.14-6.31,7.31l-3-1.73.07-24.42,1.47.85c6.15,3.55,7.79,8.15,7.78,14.12Z" fill="#ffc400"/></g><path d="M243.32,361.83,227,352.41l3.75-2.17c2.73-1.58,3-4,.66-5.33l-.66-.39c-2.37-1.36-6.5-1.19-9.23.39l-3.75,2.16-18.73-10.81a6.66,6.66,0,0,0-6,.25l-49.61,28.63c-1.78,1-2,2.59-.43,3.48l19.22,11.1-9.05,5.22c-2.73,1.58-3,4-.66,5.33l.67.38c2.37,1.37,6.5,1.2,9.23-.38l9-5.22,15.82,9.14a6.69,6.69,0,0,0,6-.25l49.61-28.63C244.67,364.28,244.86,362.72,243.32,361.83Z" fill="#e3ecff"/><g style="isolation:isolate"><path d="M229.7,340.57a8.43,8.43,0,0,1-2.75,1.3l-.73.17-.7.17a28,28,0,0,0-3.85,1.22c-1.21.48-1.84,1.24-1.84,2l0,7.57c0-.77.63-1.53,1.83-2a29.59,29.59,0,0,1,3.86-1.21l.7-.17.73-.18a8.31,8.31,0,0,0,2.75-1.29,3.49,3.49,0,0,0,1.6-2.74l0-7.58A3.49,3.49,0,0,1,229.7,340.57Z" fill="#b4bccf"/><path d="M183.6,346a9.83,9.83,0,0,0-2.74-1l-.28-.06-.34-.07a26.69,26.69,0,0,1-8.28-2.95.68.68,0,0,1-.4-.56l0,7.58a.66.66,0,0,0,.4.55,26.44,26.44,0,0,0,8.28,3l.34.07.28.06a9.47,9.47,0,0,1,2.73,1,3.92,3.92,0,0,1,2.32,3.23l0-7.58A4,4,0,0,0,183.6,346Z" fill="#ed341a"/><path d="M210.81,361.55v7.57a12.45,12.45,0,0,0-10.29.35,4.7,4.7,0,0,0-2,2,.31.31,0,0,0,0,.12,2.69,2.69,0,0,0-.24,1.09v-1.09l0-6.5a2.79,2.79,0,0,1,.26-1.15,4.79,4.79,0,0,1,2.05-2.05A12.43,12.43,0,0,1,210.81,361.55Z" fill="#ed341a"/><path d="M198.48,363.94v7.65h-.29l0-6.5A2.79,2.79,0,0,1,198.48,363.94Z" fill="#b4bccf"/><path d="M235.25,356.68l0,7.58a2.7,2.7,0,0,1-1.58,2.2L231,368l-6.73,3.91-3.25,1.9-1.85,1.07v-7.57l1.84-1.08,3.25-1.88,6.73-3.92,2.68-1.55A2.68,2.68,0,0,0,235.25,356.68Z" fill="#3a3a61"/><path d="M235.25,356.68l0,7.58a1.81,1.81,0,0,1-.28,1,3.19,3.19,0,0,1-1.3,1.24L231,368v-7.57l2.68-1.55a3.33,3.33,0,0,0,1.27-1.18A2,2,0,0,0,235.25,356.68Z" fill="#b4bccf"/><path d="M235.25,356.68l0,7.58a1.81,1.81,0,0,1-.28,1V357.7A2,2,0,0,0,235.25,356.68Z" fill="#ed341a"/><polygon points="221.01 366.23 221.01 373.81 219.16 374.88 219.17 367.31 221.01 366.23" fill="#ed341a"/><polygon points="224.26 364.35 224.26 371.91 221.01 373.81 221.01 366.23 224.26 364.35" fill="#b4bccf"/><path d="M213.66,364l-.3-.41a2.36,2.36,0,0,0-.24-.34,5.57,5.57,0,0,0-1.57-1.3c-.23-.13-.47-.26-.74-.38l0,7.58a6.4,6.4,0,0,1,.74.38,5.86,5.86,0,0,1,1.57,1.29,3.64,3.64,0,0,1,.24.35l.3.41a13.69,13.69,0,0,0,3.59,3.34l0-7.58A13.85,13.85,0,0,1,213.66,364Z" fill="#ed341a"/><path d="M219.17,367.31l0,7.57a2.13,2.13,0,0,1-1.92,0l0-7.58A2.1,2.1,0,0,0,219.17,367.31Z" fill="#ed341a"/><path d="M162.37,367.94l0,7.58a2.14,2.14,0,0,0-1.24-1.74l-1.52-.87-10.73-6.2a3,3,0,0,1-1.78-2.49l0-7.58a3,3,0,0,0,1.79,2.49l10.7,6.19,1.54.89A2.06,2.06,0,0,1,162.37,367.94Z" fill="#3a3a61"/><path d="M162.37,367.94l0,7.58a2.14,2.14,0,0,0-1.24-1.74l-1.52-.87v-7.59l1.54.89A2.06,2.06,0,0,1,162.37,367.94Z" fill="#b4bccf"/><path d="M174.39,373.86l0,7.58a6.13,6.13,0,0,0-3-.72,5.48,5.48,0,0,0-3.43,1.06,12.47,12.47,0,0,0-1.91,2,8,8,0,0,0-.63,1,2,2,0,0,0-.11.2l-.11.16,0-7.58.09-.16a1.28,1.28,0,0,0,.11-.2c.19-.31.4-.63.62-.95a11.89,11.89,0,0,1,1.93-2,5.46,5.46,0,0,1,3.41-1.07A6.22,6.22,0,0,1,174.39,373.86Z" fill="#ed341a"/><path d="M165.18,377.56l0,7.58a5.1,5.1,0,0,1-1.76,1.58,10.72,10.72,0,0,1-4.6,1.3,11.65,11.65,0,0,1-6.45-1.3,3.92,3.92,0,0,1-2.28-3.24l0-7.55a3.9,3.9,0,0,0,2.28,3.21,11.68,11.68,0,0,0,6.43,1.29,10.36,10.36,0,0,0,4.63-1.29A5.18,5.18,0,0,0,165.18,377.56Z" fill="#ed341a"/><path d="M166,376.25v7.56a8,8,0,0,0-.63,1,2,2,0,0,0-.11.2l-.11.16a5.1,5.1,0,0,1-1.76,1.58,10.72,10.72,0,0,1-4.6,1.3v-7.59a10.36,10.36,0,0,0,4.63-1.29,5.18,5.18,0,0,0,1.76-1.58l.09-.16a1.28,1.28,0,0,0,.11-.2C165.57,376.89,165.78,376.57,166,376.25Z" fill="#b4bccf"/><path d="M210.54,372l0,7.57a.66.66,0,0,1-.39.53l-1.71,1-7.83,4.55-.73.42-2.8,1.62-1.24.73-.39.23,0-7.58.37-.21,1.24-.73,2.8-1.62.73-.42,7.83-4.55,1.74-1A.67.67,0,0,0,210.54,372Z" fill="#3a3a61"/><polygon points="200.59 378.11 200.59 385.67 199.86 386.1 197.06 387.71 197.06 380.15 199.86 378.53 200.59 378.11" fill="#b4bccf"/><polygon points="199.86 378.53 199.86 386.1 195.82 388.44 195.82 380.88 199.86 378.53" fill="#ed341a"/><path d="M210.54,372l0,7.57a.66.66,0,0,1-.39.53l-1.71,1v-7.56l1.74-1A.67.67,0,0,0,210.54,372Z" fill="#b4bccf"/><polygon points="186.95 381.12 186.89 388.67 175.56 382.13 174.36 381.44 174.39 373.86 175.56 374.54 186.95 381.12" fill="#3a3a61"/><path d="M175.56,374.54v7.59l-1.2-.69a6.13,6.13,0,0,0-3-.72v-7.58a6.22,6.22,0,0,1,3,.72Z" fill="#b4bccf"/><path d="M210.81,361.54a12.51,12.51,0,0,0-10.28.35c-3.09,1.76-3.09,4.66,0,6.44a9.83,9.83,0,0,0,2.74,1l.28.06.34.06a28.76,28.76,0,0,1,6.15,1.89c.66.37.67.87.13,1.18l-14.71,8.55a9.39,9.39,0,0,1-8.54,0l-12.52-7.23c-1.87-1.08-5-.92-6.46.35a11.18,11.18,0,0,0-2.54,3,2,2,0,0,0-.11.2l-.1.16a5.18,5.18,0,0,1-1.76,1.58,12.18,12.18,0,0,1-11.06,0c-2.78-1.62-3-4.21-.69-6a8.27,8.27,0,0,1,2.76-1.29l.73-.18.7-.17a28.17,28.17,0,0,0,4.9-1.66c2-.9,2.17-2.62.37-3.65l-12.25-7.07c-2.36-1.37-2.38-3.59,0-4.95l14.25-8.28a2.12,2.12,0,0,1,1.87,0c.3.15.6.32.89.48a14.63,14.63,0,0,1,4.6,4l.29.4.25.35a5.89,5.89,0,0,0,1.57,1.3,6.38,6.38,0,0,0,.74.37,12.47,12.47,0,0,0,10.28-.34c3.09-1.77,3.09-4.66,0-6.44a9.83,9.83,0,0,0-2.74-1l-.28-.06-.34-.07a26.69,26.69,0,0,1-8.28-2.95.59.59,0,0,1,0-1.11L187.07,332a8.43,8.43,0,0,1,7.67,0l12.8,7.38c2,1.13,5.22.89,6.62-.48a11.32,11.32,0,0,0,1.83-2.35l.12-.2.09-.16a5.09,5.09,0,0,1,1.76-1.58,12.18,12.18,0,0,1,11.06,0c2.77,1.63,3,4.21.68,6a8.43,8.43,0,0,1-2.75,1.3l-.73.17-.7.17a28,28,0,0,0-3.85,1.22c-2.18.87-2.48,2.66-.6,3.75l12.58,7.26c2.12,1.22,2.13,3.21,0,4.44l-14.5,8.43a2.1,2.1,0,0,1-1.92,0,13.85,13.85,0,0,1-3.59-3.34l-.3-.41a2.36,2.36,0,0,0-.24-.34,5.57,5.57,0,0,0-1.57-1.3C211.32,361.79,211.08,361.66,210.81,361.54Z" fill="#499fd2"/><path d="M195.45,381.09l0,7.58a8.9,8.9,0,0,1-4.93,1,8.38,8.38,0,0,1-3.61-1l0-7.58a8.43,8.43,0,0,0,3.59,1A8.93,8.93,0,0,0,195.45,381.09Z" fill="#3a3a61"/><path d="M195.82,380.88v7.56l-.39.23a8.9,8.9,0,0,1-4.93,1v-7.57a8.93,8.93,0,0,0,4.95-1Z" fill="#b4bccf"/></g><g clip-path="url(#clip-path)"><path d="M189.07,384.66l-48-27.71c-1.88-1.09-1.64-3,.53-4.25l46.62-26.91a8.15,8.15,0,0,1,7.35-.31l48,27.72c1.89,1.09,1.65,3-.53,4.25l-46.61,26.91A8.15,8.15,0,0,1,189.07,384.66Z" fill="#4d4d80"/><path d="M243.32,357.28l-5.43,3.14-39.29-.07,0-5.84,46.15.08h0C245.05,355.54,244.58,356.56,243.32,357.28Z" fill="#f2f2f2"/><path d="M196.67,353.54l-10.1,0-.15-26.71,2.06-1.19a8.11,8.11,0,0,1,7.34,0l.7.41Z" fill="#f2f2f2"/><path d="M200.61,381.94l-4.48,2.59a8.11,8.11,0,0,1-5.61.64L190.4,364l10.11,0Z" fill="#f2f2f2"/><path d="M243.32,357.28l-.82.48-42.73-.07-4.08,0H185.28l0-2.33v0h14.5l45.05.08A2.68,2.68,0,0,1,243.32,357.28Z" fill="#ff5740"/><path d="M191.69,361.45h-4.08l0-3.78v-2.35l-.16-29.08,1.06-.61a6.94,6.94,0,0,1,3-.84l.15,28.21,0,2.32v2.36Z" fill="#ff5740"/><path d="M199.9,382.35l-3.77,2.18-.3.15-.14-27,0-3.36h4.08Z" fill="#ff5740"/><path d="M180.1,356.05l-40-.07c-.66-1.06-.26-2.28,1.2-3.12l4.69-2.71,34.08.07Z" fill="#f2f2f2"/><path d="M197.47,355.35H185.26l-45.45-.08a2.38,2.38,0,0,1,1.43-2.35l46.33.08h9.89v2.35Z" fill="#ff5740"/><polygon points="227.65 366.33 211.8 375.48 192.77 364.5 151.81 388.35 135.85 379.14 176.82 355.29 156.96 343.82 172.82 334.67 192.67 346.13 225.87 327.19 241.82 336.4 208.63 355.34 227.65 366.33" fill="#f2f2f2"/><polygon points="224.37 368.23 215.09 373.58 192.75 360.69 151.26 384.81 141.93 379.42 183.42 355.3 160.25 341.92 169.53 336.56 192.69 349.94 227.6 329.77 236.94 335.16 202.03 355.33 224.37 368.23" fill="#ff5740"/></g><path d="M366.29,179.47l2.44-1.4c1.11-.65,1-1.77-.31-2.51L312.07,143a4.86,4.86,0,0,0-4.35-.18l-2.44,1.41c-1.11.64-1,1.77.31,2.51l56.35,32.53A4.8,4.8,0,0,0,366.29,179.47Z" fill="#e3ecff"/><g style="isolation:isolate"><path d="M304.5,51.75l4.58-2.66a3.5,3.5,0,0,1,3.54.35L308,52.1A3.48,3.48,0,0,0,304.5,51.75Z" fill="#eff0f2"/><path d="M378.19,137.69l-4.58,2.66a3.49,3.49,0,0,0,1.45-3.18l4.59-2.66A3.46,3.46,0,0,1,378.19,137.69Z" fill="#eff0f2"/><polygon points="375.17 96.58 379.76 93.92 379.64 134.51 375.06 137.17 375.17 96.58" fill="#eff0f2"/><polygon points="308.04 52.1 312.62 49.44 374.81 85.34 370.22 88 308.04 52.1" fill="#eff0f2"/><path d="M370.22,88l4.59-2.66a10.91,10.91,0,0,1,4.95,8.58l-4.59,2.66A10.91,10.91,0,0,0,370.22,88Z" fill="#eff0f2"/><path d="M370.22,88a10.91,10.91,0,0,1,4.95,8.58l-.11,40.59c0,3.15-2.25,4.42-5,2.84l-38.6-22.29-22.06,12.62,0-25.32-1.57-.91a11,11,0,0,1-5-8.58l.12-40.59c0-3.16,2.24-4.43,5-2.84Z" fill="#ced3de"/></g><path d="M328.6,100.63c0,1.89-1.34,2.65-3,1.7a6.58,6.58,0,0,1-3-5.15c0-1.9,1.34-2.66,3-1.71A6.58,6.58,0,0,1,328.6,100.63Z" fill="#6b6cb3"/><path d="M337,105.48c0,1.9-1.34,2.66-3,1.71a6.61,6.61,0,0,1-3-5.16c0-1.89,1.34-2.66,3-1.7A6.58,6.58,0,0,1,337,105.48Z" fill="#6b6cb3"/><path d="M345.41,110.34c0,1.89-1.33,2.65-3,1.7a6.55,6.55,0,0,1-3-5.15c0-1.9,1.33-2.66,3-1.71A6.57,6.57,0,0,1,345.41,110.34Z" fill="#6b6cb3"/><path d="M353.82,115.19c0,1.9-1.33,2.66-3,1.71a6.6,6.6,0,0,1-3-5.16c0-1.89,1.33-2.66,3-1.7A6.55,6.55,0,0,1,353.82,115.19Z" fill="#6b6cb3"/><g style="isolation:isolate"><path d="M250.25,2.17,253.57.24a2.56,2.56,0,0,1,2.56.25l-3.32,1.93A2.53,2.53,0,0,0,250.25,2.17Z" fill="#ffea00"/><path d="M289.64,56.41l-3.32,1.92a2.49,2.49,0,0,0,1.05-2.3l3.32-1.92A2.5,2.5,0,0,1,289.64,56.41Z" fill="#ff8c00"/><polygon points="287.46 26.66 290.78 24.74 290.69 54.1 287.37 56.03 287.46 26.66" fill="#ff8c00"/><polygon points="252.81 2.42 256.13 0.49 287.19 18.53 283.87 20.46 252.81 2.42" fill="#ffea00"/><path d="M283.87,20.46l3.32-1.93a7.94,7.94,0,0,1,3.59,6.21l-3.32,1.92A7.89,7.89,0,0,0,283.87,20.46Z" fill="#ffea00"/><path d="M283.87,20.46a7.89,7.89,0,0,1,3.59,6.2L287.37,56c0,2.28-1.62,3.2-3.6,2l-31.07-18a7.91,7.91,0,0,1-3.58-6.21l.08-29.37c0-2.28,1.62-3.2,3.61-2Z" fill="#ffc400"/><path d="M283.59,31.77l-29.48-17a2.23,2.23,0,0,1-.92-1.77v-1.7c0-.68.41-1,.92-.69l29.48,17a2.2,2.2,0,0,1,.93,1.76v1.7C284.52,31.75,284.1,32.06,283.59,31.77Z" fill="#fff"/><path d="M283.59,38.22l-29.48-17a2.23,2.23,0,0,1-.92-1.77V17.74c0-.69.41-1,.92-.7l29.48,17a2.2,2.2,0,0,1,.93,1.76v1.7C284.52,38.2,284.1,38.51,283.59,38.22Z" fill="#fff"/><path d="M283.59,44.67l-29.48-17a2.23,2.23,0,0,1-.92-1.77V24.19c0-.68.41-1,.92-.7l29.48,17a2.2,2.2,0,0,1,.93,1.76V44C284.52,44.65,284.1,45,283.59,44.67Z" fill="#fff"/><path d="M283.59,51.12l-29.48-17a2.23,2.23,0,0,1-.92-1.77V30.64c0-.68.41-1,.92-.7l29.48,17a2.2,2.2,0,0,1,.93,1.76v1.7C284.52,51.1,284.1,51.41,283.59,51.12Z" fill="#fff"/></g></g></g></g></svg>