<svg xmlns="http://www.w3.org/2000/svg" width="253.295" height="246.873" viewBox="0 0 253.295 246.873"><g transform="translate(-22.91 -28.873)" opacity="0.396"><g transform="translate(24.944 141.805)"><ellipse cx="123.148" cy="66.971" rx="123.148" ry="66.971" transform="translate(0)" fill="#f5f5f5"/></g><g transform="translate(44.023 183.837)"><ellipse cx="18.555" cy="10.716" rx="18.555" ry="10.716" transform="translate(85.514)" fill="#e0e0e0"/><ellipse cx="29.332" cy="16.934" rx="29.332" ry="16.934" transform="translate(143.935 16.201)" fill="#e0e0e0"/><ellipse cx="29.332" cy="16.934" rx="29.332" ry="16.934" transform="translate(0 18.031)" fill="#e0e0e0"/></g><g transform="translate(22.91 163.711)"><g transform="translate(231.445 6.036)"><path d="M449.512,319.621l-5.54-2.266a118.178,118.178,0,0,1-1.2-14.454c0-9.051,5.639-20.12,12.794-18.268s-2.018,11.979-3.506,19.8S449.512,319.621,449.512,319.621Z" transform="translate(-442.77 -284.428)" fill="#407bff"/><path d="M449.512,319.621l-5.54-2.266a118.178,118.178,0,0,1-1.2-14.454c0-9.051,5.639-20.12,12.794-18.268s-2.018,11.979-3.506,19.8S449.512,319.621,449.512,319.621Z" transform="translate(-442.77 -284.428)" opacity="0.3"/><path d="M449.514,321.272h0a.231.231,0,0,0,.2-.259c-2.64-19.845,6.284-30.87,6.372-30.963a.233.233,0,1,0-.358-.3c-.088.11-9.145,11.267-6.477,31.322a.232.232,0,0,0,.265.2Z" transform="translate(-445.457 -286.779)" fill="#fff"/><path d="M457.344,329.788l-2.894-1.312a30.754,30.754,0,0,1,.386-13.456c1.858-7.133,8.043-11.532,11.157-10.8,3.809.887,4.178,4.41,3.065,6.863C467.73,313.984,458.568,321.85,457.344,329.788Z" transform="translate(-447.758 -293.273)" fill="#407bff"/><path d="M457.344,329.788l-2.894-1.312a30.754,30.754,0,0,1,.386-13.456c1.858-7.133,8.043-11.532,11.157-10.8,3.809.887,4.178,4.41,3.065,6.863C467.73,313.984,458.568,321.85,457.344,329.788Z" transform="translate(-447.758 -293.273)" opacity="0.1"/><path d="M457.113,331.1h0a.237.237,0,0,0,.209-.259c-1.3-12.59,9.685-22.27,9.8-22.364a.242.242,0,0,0,0-.331.232.232,0,0,0-.331,0c-.116.1-11.278,9.922-9.961,22.766a.243.243,0,0,0,.281.187Z" transform="translate(-449.032 -295.039)" fill="#fff"/></g><path d="M46.858,309.636l3.8-2.172s1.819-10.038.458-18.671c-1.918-12.127-10.181-16.322-13.18-15.115s-3.7,4.8,1.714,11.813C42.85,289.626,46.963,298.374,46.858,309.636Z" transform="translate(-28.617 -273.479)" fill="#407bff"/><g transform="translate(7.011)" opacity="0.15"><path d="M46.858,309.636l3.8-2.172s1.819-10.038.458-18.671c-1.918-12.127-10.181-16.322-13.18-15.115s-3.7,4.8,1.714,11.813C42.85,289.626,46.963,298.374,46.858,309.636Z" transform="translate(-35.628 -273.479)"/></g><path d="M51.569,306.212H51.53a.265.265,0,0,1-.226-.3c1.566-11.361-3-23.808-8.136-28.825a.276.276,0,1,1,.38-.391c5.226,5.082,9.884,17.761,8.3,29.282A.276.276,0,0,1,51.569,306.212Z" transform="translate(-31.95 -274.873)" fill="#fff"/><path d="M30.611,324.192c-.6.342-1.836-.408-2.31-.728a5.8,5.8,0,0,1-1.907-2.2,5.364,5.364,0,0,1-.474-3.225,12.484,12.484,0,0,1,.408-1.714l.48-1.654a4.272,4.272,0,0,0,.243-1.654c-.143-1.141-1.158-1.935-2.073-2.624a4.167,4.167,0,0,1-2.067-3.137,4.774,4.774,0,0,1,1.207-2.866c.65-.832,1.428-1.566,2.023-2.442a3.346,3.346,0,0,0,.678-2.144,3.511,3.511,0,0,0-.463-1.328A18.446,18.446,0,0,1,24.9,295.8a2.681,2.681,0,0,1,.463-2.839,3.125,3.125,0,0,1,2.354-.584,5.369,5.369,0,0,1,2.2.772c2.177,1.207,3.418,3.787,5.727,4.719a22.609,22.609,0,0,0,2.789.678,3.44,3.44,0,0,1,2.3,1.582c.849,1.692-.722,3.776-.127,5.573.551,1.588,2.073,2.2,2.938,3.633a3.385,3.385,0,0,1,.408,2.078,10.066,10.066,0,0,1-.876,3.517,25,25,0,0,1-1.935,3.17C41.118,318.139,30.7,324.126,30.611,324.192Z" transform="translate(-22.91 -281.944)" fill="#407bff"/><path d="M41.033,322.327h0a.276.276,0,0,1-.265-.287c.447-10.749-4.619-22.6-8.3-26.074a.27.27,0,0,1,0-.38.276.276,0,0,1,.386,0c3.732,3.5,8.908,15.573,8.451,26.482a.27.27,0,0,1-.27.259Z" transform="translate(-27.163 -283.364)" fill="#fff"/><path d="M38.508,319.634h-.083a36.674,36.674,0,0,0-7.8-1.262.276.276,0,1,1,0-.551,37.131,37.131,0,0,1,7.938,1.284.27.27,0,0,1,.182.336A.276.276,0,0,1,38.508,319.634Z" transform="translate(-26.249 -293.377)" fill="#fff"/></g><g transform="translate(177.286 61.71)"><g transform="translate(0 28.57)"><path d="M396.566,354.852l-5.138-.59L390.1,343.91l6.279,1.863Z" transform="translate(-342.065 -231.654)" fill="#b16668"/><path d="M381.334,372.914a1.549,1.549,0,0,0,.088,1.257,6.01,6.01,0,0,0,3.914,1.527,7.811,7.811,0,0,0,4.6-.8,3.214,3.214,0,0,0,1.72-2.514,6.836,6.836,0,0,1,.491-2.883c.491-.81,1.2-1.6,1.362-2.007a4.107,4.107,0,0,0,0-2.15Z" transform="translate(-338.089 -241.271)" fill="#263238"/><path d="M386.449,360.719a4.281,4.281,0,0,1-.215,1.174,10.784,10.784,0,0,1-1.136,2.321,9.5,9.5,0,0,1-.772,1.1c-.551.667-1.257,1.218-1.852,1.858a3.8,3.8,0,0,0-1.147,2.271c-.077,1.455,2.238,1.951,3.456,2.166a8.925,8.925,0,0,0,3.947-.2,3.622,3.622,0,0,0,2.657-2.894c.072-.408.044-.821.094-1.224a5.706,5.706,0,0,1,1.13-2.547,7.547,7.547,0,0,0,.865-1.384,4.349,4.349,0,0,0-.165-2.806c-.209-.777-.463-1.654-.739-1.593,0,.4,0,.458-.27.728s-.375.865-.761,1.169a5.571,5.571,0,0,0,.27-1.036.579.579,0,0,0-.083-.408,1.1,1.1,0,0,0-.447-.243,9.193,9.193,0,0,0-1.764-.4,10.836,10.836,0,0,0-2.464,0,.733.733,0,0,0-.435.254.9.9,0,0,0-.154.5C386.438,359.732,386.461,360.333,386.449,360.719Z" transform="translate(-338.127 -238.293)" fill="#455a64"/><path d="M387.792,368.316a6.976,6.976,0,0,1,3.159-.342,4,4,0,0,1,1.885.661.43.43,0,0,0,.551-.044h0a.408.408,0,0,0-.044-.617,4.1,4.1,0,0,0-2.117-.788,10.948,10.948,0,0,0-2.855.165S387.632,367.831,387.792,368.316Z" transform="translate(-341.019 -242.087)" fill="#f5f5f5"/><path d="M385.55,371.1a8.43,8.43,0,0,1,3.423-.276,3.765,3.765,0,0,1,1.83.7.435.435,0,0,0,.551-.044h0a.408.408,0,0,0-.044-.617,7.861,7.861,0,0,0-2.905-.849c-1.654-.116-2.056.215-2.056.215a1.373,1.373,0,0,0-.8.871Z" transform="translate(-340.023 -243.356)" fill="#f5f5f5"/><path d="M392.651,364.338a8.026,8.026,0,0,0-2.789.171c-.287.16-.48.617-.292.733a7.839,7.839,0,0,1,2.558-.254,5.458,5.458,0,0,1,1.764.485c.143.066.309.149.452.232a.38.38,0,0,0,.551-.165h0a.364.364,0,0,0-.138-.469A5.264,5.264,0,0,0,392.651,364.338Z" transform="translate(-341.793 -240.798)" fill="#f5f5f5"/><path d="M363.1,346.074l-4.884-1.362V334.84l6.058.265Z" transform="translate(-327.758 -227.584)" fill="#b16668"/><path d="M339.429,362.18a1.8,1.8,0,0,0,.072,1.3c.182.375,2.161,1.494,4.829,1.312a11.146,11.146,0,0,0,5.512-1.929,6.336,6.336,0,0,1,3.4-.871c1.323-.072,3.054-.739,3.346-1.356a2.949,2.949,0,0,0-.044-1.681Z" transform="translate(-319.286 -238.404)" fill="#263238"/><path d="M350.123,349.474l-.209-.044a.766.766,0,0,0-.353,0,.744.744,0,0,0-.331.22,6.55,6.55,0,0,0-.678,1.075,8.015,8.015,0,0,1-3.015,2.354c-.871.469-1.725.832-2.624,1.235a21.832,21.832,0,0,0-2.855,1.152,1.924,1.924,0,0,0,0,3.175,9.4,9.4,0,0,0,6.576.457c1.543-.441,3.263-2.089,5.292-2.249,1.29-.1,3.732-.463,4.564-1.444.309-.436-.1-1.814-.441-3-.369-1.3-.717-3.307-1.147-3.214a.584.584,0,0,1-.226.485,6.905,6.905,0,0,1-.551.419,3.39,3.39,0,0,0-.717,1.031.777.777,0,0,1-.364.4c-.22.077-.38-.055-.551-.143a1.1,1.1,0,0,0-.772-.055,5.186,5.186,0,0,1,.138-.766.408.408,0,0,0,0-.243.364.364,0,0,0-.165-.187A4.1,4.1,0,0,0,350.123,349.474Z" transform="translate(-319.232 -234.021)" fill="#455a64"/><path d="M352.9,354.405a1.191,1.191,0,0,1,.954-.639,3.471,3.471,0,0,1,2.266.854.48.48,0,0,1-.066.794h0a.474.474,0,0,1-.551-.061A3.693,3.693,0,0,0,352.9,354.405Z" transform="translate(-325.371 -236.07)" fill="#f5f5f5"/><path d="M349.59,356.314a1.384,1.384,0,0,1,1.13-.584,4.289,4.289,0,0,1,2.486.932.469.469,0,0,1-.066.766h0a.458.458,0,0,1-.551-.061,3.693,3.693,0,0,0-3-1.053Z" transform="translate(-323.885 -236.959)" fill="#f5f5f5"/><path d="M346,358.024a1.532,1.532,0,0,1,1.169-.524,4.151,4.151,0,0,1,2.381.937.474.474,0,0,1-.066.772h0a.457.457,0,0,1-.551-.061A3.522,3.522,0,0,0,346,358.024Z" transform="translate(-322.275 -237.753)" fill="#f5f5f5"/><path d="M380.747,233.927c.336,10.181.358,32.231.358,32.231.1,1.268.215,3.517.309,8.081.138,6.615.458,22.948.458,22.948a8.363,8.363,0,0,1-6.064.276s-4.035-22.965-4.862-29.514c-.722-5.716-2.106-19.123-2.106-19.123l-1.907,17.017s0,4.41-.259,8.3c-.215,3.032-3.159,18.649-3.159,18.649a10.121,10.121,0,0,1-5.838-.193s-.265-23.974-.32-26.757c-.061-3.164.755-37.374.755-37.374Z" transform="translate(-327.37 -179.85)" fill="#455a64"/><path d="M372.277,258.251l-.728-5.772a20.17,20.17,0,0,1-6.56-3.01s1.4,1.874,5.512,3.859l.926,5.237-1.047,16.7Z" transform="translate(-330.796 -189.274)" fill="#37474f"/><path d="M333.444,184.19c-1.488,1.951-9.145,12.458-9.145,12.458l-7.072-5.479c-1.654-1.3-2.144-2.993-3.181-4.167s-2.172-1.455-3.335-2.436-1.61-1.725-2.007-.888.888,2.3,1.1,2.651,1.543,1.2-.21,1.1-5.127-2.095-5.942-2.464-.838.639-.452,1.3.193,2.5.645,3.688a4.945,4.945,0,0,0,2.861,2.712c1.5.75,5.165,1.218,6.356,1.968h0c2.613,2.679,7.541,7.679,8.787,8.6,1.714,1.273,3.374,2.448,6-.077s10.226-12.431,10.226-12.431l1.571-9.421A6.582,6.582,0,0,0,333.444,184.19Z" transform="translate(-302.96 -158.684)" fill="#b16668"/><path d="M341.67,208.678a6.3,6.3,0,0,1,2.073,3.048,4.961,4.961,0,0,0-1.654-3.616Z" transform="translate(-320.331 -170.713)" fill="#9a4a4d"/><path d="M359.216,180.9s-3.638-.044-5.237,1.075-2.784,2.756-5.38,6.532c-2.277,3.307-3.379,4.9-3.379,4.9a12.2,12.2,0,0,0,6.179,4.719l6.791-8.412Z" transform="translate(-321.924 -158.502)" fill="#37474f"/><path d="M372.134,180.56c2.062.2,4.961.22,7,.43,1.417.584,4.151,2.966,3.947,4.664-.761,6.345-2.3,16.747-2.3,16.747l.507,11.025c-2.839,2.833-16.124,3.941-22.97-.59,0,0,.22-19.8.695-23.152.843-6,1.582-8.23,4.68-8.759A55.651,55.651,0,0,1,372.134,180.56Z" transform="translate(-327.803 -158.339)" fill="#407bff"/><path d="M399.52,184.48c1.488,1.951,9.151,12.458,9.151,12.458l7.078-5.479c1.654-1.3,2.144-3,3.181-4.167s2.172-1.455,3.335-2.437,1.61-1.725,2.007-.893-.887,2.3-1.1,2.657-1.543,1.2.209,1.1,5.121-2.1,5.942-2.47.832.639.452,1.3-.2,2.508-.645,3.693a4.944,4.944,0,0,1-2.861,2.712c-1.5.75-5.165,1.218-6.356,1.968h0c-2.613,2.674-7.541,7.679-8.787,8.6-1.714,1.273-3.374,2.448-6-.072s-8.621-10.363-8.621-10.363L393.33,181.6A6.565,6.565,0,0,1,399.52,184.48Z" transform="translate(-343.514 -158.814)" fill="#b16668"/><path d="M419.473,208.963a6.3,6.3,0,0,0-2.073,3.048,4.961,4.961,0,0,1,1.654-3.622Z" transform="translate(-354.316 -170.839)" fill="#9a4a4d"/><path d="M392.13,181.1s3.269-.2,4.989,1.1c1.549,1.191,2.756,2.756,5.38,6.532,2.277,3.307,3.379,4.9,3.379,4.9a12.238,12.238,0,0,1-6.185,4.719l-4.625-5.7C392.659,189.6,390.272,184.948,392.13,181.1Z" transform="translate(-342.678 -158.587)" fill="#37474f"/><path d="M373.9,148.339a6.394,6.394,0,1,1-6.45-6.339,6.394,6.394,0,0,1,6.45,6.339Z" transform="translate(-329.055 -141.046)" fill="#263238"/><path d="M390.668,161.68a55.265,55.265,0,0,1-1.406,5.678A2.2,2.2,0,0,1,388,168.4l.039-3.429Z" transform="translate(-341.122 -149.877)" fill="#263238"/><path d="M389.89,149.034a2.387,2.387,0,0,1,1.99.678c.86.865.408,3.6-.628,6.284l-1.951.243Z" transform="translate(-341.706 -144.194)" fill="#263238"/><path d="M376.919,153.874c.391.232.943-.551,1.422-1.036a1.711,1.711,0,0,1,2.85.435c.8,1.648-.661,3.925-1.9,4.322-2.133.695-2.47-.678-2.47-.678l-.088,7.949h0c-2.624,3.434-10.005,3.208-6.962-.375v-2.348a13.517,13.517,0,0,1-2.878.171c-1.577-.226-2.574-1.461-3.07-3.159-.788-2.723-1.1-4.928-.5-10.314.662-5.9,7.513-6.02,11.234-3.721S376.919,153.874,376.919,153.874Z" transform="translate(-329.909 -141.823)" fill="#b16668"/><path d="M376.211,152.976c.193,0,.932-1.246,1.417-1.692.667-.623-.248-6.174-.248-6.174a2.7,2.7,0,0,0-.5-3c-.932-1.009-2.233-2.238-6.422-1.709-2.993.38-6.24,1.345-8.881.077a4.482,4.482,0,0,0,1.6,4.741,8.977,8.977,0,0,0,3.467.888,37.147,37.147,0,0,0,6.935-.193c.728-.1.887.6,1.3,2.519C375.235,150.109,375.549,152.97,376.211,152.976Z" transform="translate(-329.195 -140.269)" fill="#263238"/><path d="M390.244,148.179l2.354-1.29a1.3,1.3,0,0,0-1.8-.579,1.411,1.411,0,0,0-.557,1.869Z" transform="translate(-342.059 -142.909)" fill="#263238"/><path d="M375.25,174.612a26.956,26.956,0,0,0,4.724-1.4,4.035,4.035,0,0,0,1.681-1.692,5.512,5.512,0,0,1-.943,1.984c-.887,1.158-5.452,2.04-5.452,2.04Z" transform="translate(-335.401 -154.293)" fill="#9a4a4d"/><path d="M374.74,160.5a.711.711,0,0,0,.706.722.733.733,0,1,0-.706-.722Z" transform="translate(-335.172 -149.016)" fill="#263238"/><path d="M377.2,156.141l-1.566-.711a.9.9,0,0,0,.441,1.169.843.843,0,0,0,1.125-.458Z" transform="translate(-335.539 -147.073)" fill="#263238"/><path d="M365.272,155.15l-1.362,1.069a.821.821,0,0,0,1.191.171.915.915,0,0,0,.171-1.24Z" transform="translate(-330.312 -146.947)" fill="#263238"/><path d="M364.89,160.226a.673.673,0,1,0,.667-.706.684.684,0,0,0-.667.706Z" transform="translate(-330.751 -148.908)" fill="#263238"/><path d="M369.414,159.77l-.4,4.217-2.177-.838Z" transform="translate(-331.627 -149.02)" fill="#9a4a4d"/><path d="M373.68,169.742a.678.678,0,1,0,.678-.673.678.678,0,0,0-.678.673Z" transform="translate(-334.696 -153.194)" fill="#9a4a4d"/></g><g transform="translate(45.921 0)"><path d="M396.537,88.65a11.515,11.515,0,0,1,3.01,1.13,8.638,8.638,0,0,1,2.392,1.9,6.819,6.819,0,0,1,1.411,2.58,6.064,6.064,0,0,1,.066,3.1,6.257,6.257,0,0,1-.948,2.266,7.4,7.4,0,0,1-1.483,1.56,12.085,12.085,0,0,1-1.769,1.141l-1.753.926a9.61,9.61,0,0,0-1.5.97,2.839,2.839,0,0,0-.937,1.251,1.307,1.307,0,0,1-.447.551.788.788,0,0,1-.673.138l-2.58-.551a.954.954,0,0,1-.606-.419.783.783,0,0,1-.11-.7,6.147,6.147,0,0,1,1.1-2.2,8.676,8.676,0,0,1,1.588-1.532,12.422,12.422,0,0,1,1.814-1.1c.628-.314,1.213-.617,1.753-.915a7.657,7.657,0,0,0,1.384-.937,2.205,2.205,0,0,0,.733-1.213,2.63,2.63,0,0,0-.617-2.359,4.73,4.73,0,0,0-2.707-1.472,4.555,4.555,0,0,0-4.884,1.946,1.781,1.781,0,0,1-.48.48.865.865,0,0,1-.667.05l-2.756-.612a.744.744,0,0,1-.48-.32.7.7,0,0,1-.1-.59,5.391,5.391,0,0,1,1.268-2.266,8.533,8.533,0,0,1,2.365-1.83,10.16,10.16,0,0,1,3.115-1.036,9.051,9.051,0,0,1,3.5.072Zm-2.911,19.591a.9.9,0,0,1,.584.419.91.91,0,0,1,.127.706l-.661,2.988a.943.943,0,0,1-1.1.711l-2.922-.645a.909.909,0,0,1-.584-.413.893.893,0,0,1-.127-.706l.662-2.993a.943.943,0,0,1,1.1-.711Z" transform="translate(-386.265 -88.442)" fill="#407bff"/><path d="M416.3,139.726a7.719,7.719,0,0,1,2.2-.044,5.959,5.959,0,0,1,2.023.606,4.708,4.708,0,0,1,1.555,1.279,4.134,4.134,0,0,1,.832,1.968,4.218,4.218,0,0,1,0,1.692,5.077,5.077,0,0,1-.551,1.384,8.6,8.6,0,0,1-.838,1.18l-.887,1.047a7.187,7.187,0,0,0-.717,1,1.974,1.974,0,0,0-.276,1.042.91.91,0,0,1-.143.485.551.551,0,0,1-.391.259l-1.8.3a.678.678,0,0,1-.5-.116.551.551,0,0,1-.248-.419,4.1,4.1,0,0,1,.127-1.687,5.6,5.6,0,0,1,.623-1.395,8.561,8.561,0,0,1,.876-1.174c.325-.364.617-.706.893-1.036a5.388,5.388,0,0,0,.645-.954,1.521,1.521,0,0,0,.16-.965,1.814,1.814,0,0,0-1-1.356,3.231,3.231,0,0,0-2.106-.254,3.159,3.159,0,0,0-2.635,2.5,1.291,1.291,0,0,1-.187.435.612.612,0,0,1-.413.2l-1.918.314a.551.551,0,0,1-.391-.083.491.491,0,0,1-.22-.353,3.721,3.721,0,0,1,.237-1.775,5.778,5.778,0,0,1,1.047-1.781,7.05,7.05,0,0,1,1.731-1.461A6.273,6.273,0,0,1,416.3,139.726Zm3.148,13.335a.65.65,0,0,1,.744.535l.342,2.084a.639.639,0,0,1-.116.485.618.618,0,0,1-.419.259l-2.04.336a.634.634,0,0,1-.48-.116.618.618,0,0,1-.265-.419l-.342-2.089a.656.656,0,0,1,.551-.744Z" transform="translate(-397.36 -111.41)" fill="#407bff"/><g transform="translate(13.629 28.214)" opacity="0.2"><path d="M416.3,139.726a7.719,7.719,0,0,1,2.2-.044,5.959,5.959,0,0,1,2.023.606,4.708,4.708,0,0,1,1.555,1.279,4.134,4.134,0,0,1,.832,1.968,4.218,4.218,0,0,1,0,1.692,5.077,5.077,0,0,1-.551,1.384,8.6,8.6,0,0,1-.838,1.18l-.887,1.047a7.187,7.187,0,0,0-.717,1,1.974,1.974,0,0,0-.276,1.042.91.91,0,0,1-.143.485.551.551,0,0,1-.391.259l-1.8.3a.678.678,0,0,1-.5-.116.551.551,0,0,1-.248-.419,4.1,4.1,0,0,1,.127-1.687,5.6,5.6,0,0,1,.623-1.395,8.561,8.561,0,0,1,.876-1.174c.325-.364.617-.706.893-1.036a5.388,5.388,0,0,0,.645-.954,1.521,1.521,0,0,0,.16-.965,1.814,1.814,0,0,0-1-1.356,3.231,3.231,0,0,0-2.106-.254,3.159,3.159,0,0,0-2.635,2.5,1.291,1.291,0,0,1-.187.435.612.612,0,0,1-.413.2l-1.918.314a.551.551,0,0,1-.391-.083.491.491,0,0,1-.22-.353,3.721,3.721,0,0,1,.237-1.775,5.778,5.778,0,0,1,1.047-1.781,7.05,7.05,0,0,1,1.731-1.461A6.273,6.273,0,0,1,416.3,139.726Zm3.148,13.335a.65.65,0,0,1,.744.535l.342,2.084a.639.639,0,0,1-.116.485.618.618,0,0,1-.419.259l-2.04.336a.634.634,0,0,1-.48-.116.618.618,0,0,1-.265-.419l-.342-2.089a.656.656,0,0,1,.551-.744Z" transform="translate(-410.989 -139.624)"/></g><path d="M450.93,138.127a.777.777,0,0,1,.182,1.069l-1.455,2.04a.777.777,0,0,1-1.069.182l-2-1.417a.744.744,0,0,1-.309-.5.772.772,0,0,1,.127-.551l1.455-2.045a.766.766,0,0,1,.5-.309.755.755,0,0,1,.551.132Zm8.423-13.831a9.141,9.141,0,0,1,1.907,1.808,7.084,7.084,0,0,1,1.2,2.2,5.6,5.6,0,0,1,.248,2.376,4.961,4.961,0,0,1-.937,2.354,5.143,5.143,0,0,1-1.433,1.406,5.991,5.991,0,0,1-1.621.7,9.921,9.921,0,0,1-1.692.3l-1.621.138a8.715,8.715,0,0,0-1.433.254,2.359,2.359,0,0,0-1.1.65,1.163,1.163,0,0,1-.518.292.661.661,0,0,1-.551-.116l-1.764-1.251a.8.8,0,0,1-.32-.507.639.639,0,0,1,.138-.551,4.961,4.961,0,0,1,1.516-1.317,6.792,6.792,0,0,1,1.687-.65,10.309,10.309,0,0,1,1.72-.265c.551-.033,1.1-.077,1.61-.127a6.065,6.065,0,0,0,1.339-.27,1.78,1.78,0,0,0,.937-.678,2.133,2.133,0,0,0,.287-1.973,3.858,3.858,0,0,0-1.565-1.968,3.731,3.731,0,0,0-4.3-.094,1.543,1.543,0,0,1-.513.209.717.717,0,0,1-.524-.176l-1.874-1.334a.634.634,0,0,1-.265-.4.584.584,0,0,1,.116-.474,4.371,4.371,0,0,1,1.654-1.306,7,7,0,0,1,2.365-.623,8.439,8.439,0,0,1,2.674.209,7.343,7.343,0,0,1,2.641,1.18Z" transform="translate(-413.195 -103.896)" fill="#407bff"/><g transform="translate(33.08 18.984)" opacity="0.6"><path d="M450.93,138.127a.777.777,0,0,1,.182,1.069l-1.455,2.04a.777.777,0,0,1-1.069.182l-2-1.417a.744.744,0,0,1-.309-.5.772.772,0,0,1,.127-.551l1.455-2.045a.766.766,0,0,1,.5-.309.755.755,0,0,1,.551.132Zm8.423-13.831a9.141,9.141,0,0,1,1.907,1.808,7.084,7.084,0,0,1,1.2,2.2,5.6,5.6,0,0,1,.248,2.376,4.961,4.961,0,0,1-.937,2.354,5.143,5.143,0,0,1-1.433,1.406,5.991,5.991,0,0,1-1.621.7,9.921,9.921,0,0,1-1.692.3l-1.621.138a8.715,8.715,0,0,0-1.433.254,2.359,2.359,0,0,0-1.1.65,1.163,1.163,0,0,1-.518.292.661.661,0,0,1-.551-.116l-1.764-1.251a.8.8,0,0,1-.32-.507.639.639,0,0,1,.138-.551,4.961,4.961,0,0,1,1.516-1.317,6.792,6.792,0,0,1,1.687-.65,10.309,10.309,0,0,1,1.72-.265c.551-.033,1.1-.077,1.61-.127a6.065,6.065,0,0,0,1.339-.27,1.78,1.78,0,0,0,.937-.678,2.133,2.133,0,0,0,.287-1.973,3.858,3.858,0,0,0-1.565-1.968,3.731,3.731,0,0,0-4.3-.094,1.543,1.543,0,0,1-.513.209.717.717,0,0,1-.524-.176l-1.874-1.334a.634.634,0,0,1-.265-.4.584.584,0,0,1,.116-.474,4.371,4.371,0,0,1,1.654-1.306,7,7,0,0,1,2.365-.623,8.439,8.439,0,0,1,2.674.209,7.343,7.343,0,0,1,2.641,1.18Z" transform="translate(-446.274 -122.879)" fill="#fff"/></g></g></g><g transform="translate(33.886 62.718)"><g transform="translate(11.333 30.256)"><path d="M127,334.016c-.055-1.654,1.136-17.816,1.136-17.816l-7.872,5.711c1.615,9.636,1.962,11.912,1.99,13.489h0a1.46,1.46,0,0,0-.044.4c0,1.874,2.122,2.883,3.771,4.134a31.218,31.218,0,0,0,4.46,2.911c1.2.6,3.633.656,3.93-.116a57.318,57.318,0,0,1-6.521-5.573C127.084,336.32,127.057,335.659,127,334.016Z" transform="translate(-88.905 -221.914)" fill="#ffa8a7"/><path d="M138.582,364.54a1.466,1.466,0,0,1-.336,1.5,6.747,6.747,0,0,1-5.005,1.191,8.785,8.785,0,0,1-4.856-1.874,10.4,10.4,0,0,0-3.539-2.266,6.824,6.824,0,0,1-2.525-1.036c-.336-.325-.292-1.77-.292-1.77Z" transform="translate(-89.698 -241.7)" fill="#263238"/><path d="M123.037,350.2a.4.4,0,0,0-.38.336c-.077.4-.16,1.555-.325,2.2a11.769,11.769,0,0,0-.243,3.506c.138.744,1.847,1.257,2.944,1.654a13.865,13.865,0,0,1,3.55,2.238,10.01,10.01,0,0,0,5.275,1.968c1.929,0,4.1-.639,4.6-1.532.612-1.1.132-1.747-2.729-3.076-.551-.248-2.442-1.378-3.092-1.786a10.639,10.639,0,0,1-4.3-4.592,1.1,1.1,0,0,0-.408-.6.915.915,0,0,0-.551-.055,4.805,4.805,0,0,0-1.378.419c-.38.182-.926.4-.921.887a1.7,1.7,0,0,0,.11.5c.033.1.061.237,0,.3s-.193,0-.27-.077a7.267,7.267,0,0,1-.766-.926,2.993,2.993,0,0,0-.458-.458,4.333,4.333,0,0,1-.485-.32C123,350.641,123.048,350.432,123.037,350.2Z" transform="translate(-89.709 -237.172)" fill="#455a64"/><path d="M132.63,365.884c-.5-.408-1.031-.81-1.56-1.163h0s3.363,2.045,4.719,1.1a1.213,1.213,0,0,0,.441-1.555,7.532,7.532,0,0,1,2.988-1.328h0c.237.132.435.237.551.292,2.861,1.328,3.341,1.968,2.729,3.076-.5.893-2.073,1.593-4.564,1.593A10.122,10.122,0,0,1,132.63,365.884Z" transform="translate(-93.756 -242.889)" fill="#37474f"/><path d="M132.34,357.875c1.781.711,1.02,1.042.524,1.1s-3.489-1.654-5.319-3.12-3.1-3.159-3.809-3.71c-.265-.2-.551-.458-.8-.695.05-.391.088-.75.121-.937a.4.4,0,0,1,.38-.336c0,.232-.033.446.143.617a4.341,4.341,0,0,0,.485.32,2.993,2.993,0,0,1,.458.458,7.272,7.272,0,0,0,.766.926A23.152,23.152,0,0,0,132.34,357.875Z" transform="translate(-90.103 -237.163)" fill="#263238"/><path d="M140.577,364.4a.176.176,0,0,1-.11-.044.171.171,0,0,1-.028-.243,4.228,4.228,0,0,1,3.258-1.29.182.182,0,0,1,.16.2.176.176,0,0,1-.193.154,3.925,3.925,0,0,0-2.949,1.158A.182.182,0,0,1,140.577,364.4Z" transform="translate(-97.943 -242.835)" fill="#f5f5f5"/><path d="M137.776,362.717a.171.171,0,0,1-.116-.039.182.182,0,0,1,0-.248,4.239,4.239,0,0,1,3.258-1.284.177.177,0,0,1-.039.353,3.9,3.9,0,0,0-2.949,1.158A.176.176,0,0,1,137.776,362.717Z" transform="translate(-96.692 -242.081)" fill="#f5f5f5"/><path d="M134.959,361.027a.171.171,0,0,1-.11-.039.176.176,0,0,1,0-.248,4.245,4.245,0,0,1,3.258-1.284.177.177,0,1,1-.033.353,3.9,3.9,0,0,0-2.949,1.158.188.188,0,0,1-.165.061Z" transform="translate(-95.429 -241.323)" fill="#f5f5f5"/><path d="M132.347,359.156a.165.165,0,0,1-.11-.287,4.228,4.228,0,0,1,3.258-1.284.175.175,0,1,1-.039.347,3.941,3.941,0,0,0-2.949,1.158A.177.177,0,0,1,132.347,359.156Z" transform="translate(-94.256 -240.484)" fill="#f5f5f5"/><path d="M129.8,357.259a.2.2,0,0,1-.11-.039.176.176,0,0,1,0-.248,4.311,4.311,0,0,1,3.555-1.3.165.165,0,0,1,.154.193.176.176,0,0,1-.193.154,4.007,4.007,0,0,0-3.241,1.169.187.187,0,0,1-.165.072Z" transform="translate(-93.113 -239.617)" fill="#f5f5f5"/><path d="M99.113,329.433l-7.943-.143c.116,5.3.959,11.185,1.1,16.157,0,.937,0,7.276.331,9.206.551,2.894,3.969,2.5,4.151.772s-.22-9.134-.209-9.922c-.033-3.186,1.461-8.572,2.249-14.3C98.827,330.944,99.075,329.709,99.113,329.433Z" transform="translate(-75.851 -227.788)" fill="#ffa8a7"/><path d="M97.926,378.036a7.933,7.933,0,0,1-.551,3.9,2.5,2.5,0,0,1-2.756,1.3,3.819,3.819,0,0,1-3.2-2.2A9.327,9.327,0,0,1,90.958,377Z" transform="translate(-75.733 -249.199)" fill="#263238"/><path d="M92.178,357.5c-.469.083-.38,2.37-.424,4.669-.05,2.47-.673,3.55-.733,5.573-.072,2.315.154,3.307,1.1,4.619s3.908,2.37,5.1.254c.976-1.725.843-3.517.507-5.788s-.6-3.991-.689-5.788-.127-3.39-.551-3.539v.827c0,.248.039,1.1-.226,1.158a4.122,4.122,0,0,1-.072-.645.783.783,0,0,0-.182-.551.9.9,0,0,0-.551-.176,12.3,12.3,0,0,0-1.422-.077,4.356,4.356,0,0,0-.711.039,1.786,1.786,0,0,0-.59.149.43.43,0,0,0-.237.254.711.711,0,0,0,0,.265,1.945,1.945,0,0,1,0,.474c0,.072-.05.16-.121.149s-.083-.077-.088-.132c-.033-.276,0-.48-.033-.8v-.5C92.26,357.781,92.183,357.649,92.178,357.5Z" transform="translate(-75.778 -240.448)" fill="#455a64"/><path d="M91.025,374.835c0,.336-.072,2.547.551,2.878s.865-1.389.865-1.389a5.783,5.783,0,0,1,3.754.127c-.077.364.375,1.5.954,1.191s.551-2.828.551-2.861c.314,2.2.413,3.914-.551,5.59-1.2,2.117-4.167,1.047-5.1-.254s-1.163-2.3-1.1-4.619C90.97,375.265,91.009,375.05,91.025,374.835Z" transform="translate(-75.745 -248.202)" fill="#37474f"/><path d="M93.219,368.678c.072.827-.766.634-.921-.551s.209-3.991,0-6c.044-2.3-.044-4.586.424-4.669a.42.42,0,0,0,0,.083l.055,1.163a3.774,3.774,0,0,0,0,.5c.154,1.687.248,4.961.254,6.516A27.779,27.779,0,0,0,93.219,368.678Z" transform="translate(-76.339 -240.43)" fill="#263238"/><path d="M100,368.7a26.338,26.338,0,0,0,.16-2.938c0-1.543.1-4.779.254-6.477a4.245,4.245,0,0,0,.072-.954V357.5c.309.116.419,1.025.485,2.172,0,.667,0,1.494-.061,2.5-.209,2.007.154,4.851,0,6.014S99.943,369.523,100,368.7Z" transform="translate(-79.811 -240.448)" fill="#263238"/><path d="M97.352,377.374h-.061a5.634,5.634,0,0,0-3.677,0,.177.177,0,1,1-.127-.331,5.843,5.843,0,0,1,3.93,0,.171.171,0,0,1-.066.331Z" transform="translate(-76.84 -249.065)" fill="#f5f5f5"/><path d="M97.411,374.056a.126.126,0,0,1-.061,0,6.935,6.935,0,0,0-4.112,0,.176.176,0,0,1-.226-.11.171.171,0,0,1,.11-.22,7.166,7.166,0,0,1,4.349,0,.176.176,0,0,1-.061.342Z" transform="translate(-76.673 -247.577)" fill="#f5f5f5"/><path d="M93.158,370.846a.182.182,0,0,1-.16-.1.176.176,0,0,1,.088-.232,6.025,6.025,0,0,1,4.338-.028.171.171,0,0,1,.1.226.176.176,0,0,1-.226.1,5.884,5.884,0,0,0-4.063,0,.192.192,0,0,1-.077.039Z" transform="translate(-76.664 -246.098)" fill="#f5f5f5"/><path d="M93.087,367.851a.174.174,0,0,1-.077-.331,5.452,5.452,0,0,1,4.41-.05.174.174,0,1,1-.149.314,5.237,5.237,0,0,0-4.123.05.2.2,0,0,1-.061.017Z" transform="translate(-76.632 -244.724)" fill="#f5f5f5"/><path d="M93.014,364.573a.176.176,0,0,1-.077-.336,5.69,5.69,0,0,1,4.46,0,.165.165,0,0,1,.088.232.176.176,0,0,1-.232.088,5.46,5.46,0,0,0-4.156,0A.155.155,0,0,1,93.014,364.573Z" transform="translate(-76.598 -243.26)" fill="#f5f5f5"/><path d="M93.539,236c-2.8,7.756-2.31,12.623-1.83,20.754.441,7.453,1.141,14.018,1.141,14.018-.11,1.323-1.951,3.9-2.2,9.746a95.721,95.721,0,0,0,.551,12.32s3.666,1.34,6.764,0c0,0,3.17-14,4.035-20.837.75-5.97,2.062-13.6,2.062-13.6l2.756,13.572a20.055,20.055,0,0,0-.821,5.617c0,3.192,1.483,12.067,1.483,12.067s4.107,1.328,6.709-.981c0,0,1.031-12.772,1.395-17.64.485-6.494-.22-24.293-1.781-33.405Z" transform="translate(-75.607 -185.924)" fill="#455a64"/><path d="M115.05,265.951l1.147-10.209s5.132-.684,7.458-2.872a8.418,8.418,0,0,1-6.064,3.82l-1.654,9.5,1.874,13.329Z" transform="translate(-86.567 -193.494)" fill="#37474f"/><path d="M130.293,205.6c-2.5-2.569-7.006-8.379-7.006-8.379l-2.547-8.82a16.469,16.469,0,0,0,1.709,0c2.756.182,3.567.419,5.281,2.293,1.362,1.494,6.554,8.583,8.357,10.97l4.79-6.1c1.152-1.736.965-3.682,1.56-5.1s1.56-2.04,2.332-3.307.954-2.117,1.588-1.461-.1,2.42-.193,2.822-1.064,1.6.551.976,4.107-3.572,4.746-4.173.981.331.838,1.069.551,2.4.3,3.622a4.961,4.961,0,0,1-1.709,3.148c-1.163,1.169-4.008,2.607-5.121,4.145s-3.489,6.317-4.961,9.195c-1.847,3.66-3.418,4.867-5.512,3.633A25.907,25.907,0,0,1,130.293,205.6Z" transform="translate(-89.121 -163.096)" fill="#ffa8a7"/><path d="M121.591,190.863a9.14,9.14,0,0,1,4.156.551c1.494.673,2.508,2.117,3.969,4.074s4.068,5.38,4.068,5.38-.706,2.971-5.358,5.639l-7.6-7.822Z" transform="translate(-89.161 -165.648)" fill="#37474f"/><path d="M147.105,214.676a5.821,5.821,0,0,0-1.736,3.214s-.551-1.769,1.328-3.759Z" transform="translate(-100.139 -176.109)" fill="#f28f8f"/><path d="M114.181,206.556c3.39-2.789,2.271-6.422,1.036-8.87-2.475-4.89-5.049-6.813-6.124-6.8l-6.742.066c-3.219.441-5.711.22-6.488.4-1.984.469-2.029,2.1-2.106,4.211-.083,2.315-1.268,1.924-.667,5.749a39.489,39.489,0,0,1,1.863,4.382c.364,1.323,1.389,3.429.843,5.568-.209.827-.772,1.654-1.615,3.919a42.681,42.681,0,0,0-2.122,7.861,9.464,9.464,0,0,0,4.206-2.839s3.059,4.1,10.418,3.682c7.635-.43,8.307-4.41,8.307-4.41l-1.169-7.166C114,209.423,114.077,208.375,114.181,206.556Z" transform="translate(-76.25 -165.68)" fill="#407bff"/><path d="M116.272,215.792a6.919,6.919,0,0,1-5.992,1.147,5.512,5.512,0,0,1-3.743-3.859,4.841,4.841,0,0,0,3.793,4.845A5.292,5.292,0,0,0,116.272,215.792Z" transform="translate(-82.745 -175.638)" opacity="0.1"/><path d="M85.509,185.138c-1-.728-6.372,6.466-3.859,8.269s5.193-3.307,4.652-5.722S85.509,185.138,85.509,185.138Z" transform="translate(-71.281 -163.076)" fill="#37474f"/><path d="M72.729,163.648c1.345-1.863,2.26-3.269,3.489-4.867.695-.91,1.141-1.555,1.808-2.486.463-.639.733-1.18,1.251-1.384a4.41,4.41,0,0,0,1.516-1.1,8.979,8.979,0,0,0,.711-.943,13.781,13.781,0,0,1,2.756-2.844c1.1-.854,2.31-1.516,3.434-2.332.667-.485,1.384-1.284.551-2.007a1.979,1.979,0,0,0-.893-.408c-2.007-.4-3.743.32-5.694.854a17.026,17.026,0,0,0-2.481.888,4.261,4.261,0,0,0-1.1.656,5.7,5.7,0,0,0-1.1,1.654c-.854,1.571-2.657,2.971-3.919,4.2-1.483,1.444-2.806,2.756-4.5,4.36-1.521,1.433-3.015,2.756-4.41,4.322a2.2,2.2,0,0,0-.551,2.618c.992,1.951,2.073,2.64,3.374,3.859.43.4.865.788,1.3,1.18,1.687,1.521,3.374,2.944,5.127,4.41,1.874,1.543,2.646,2.293,4.316,3.793a12.4,12.4,0,0,1,2.6,3.379c2.894.48,5.738-3.947,3.258-9.123a5.413,5.413,0,0,0-1.792-2.084C78.721,168.063,72.729,163.648,72.729,163.648Z" transform="translate(-63.38 -145.158)" fill="#ffa8a7"/><path d="M77.495,178.7A7.618,7.618,0,0,1,74,181.186s1.847.441,4.327-1.869Z" transform="translate(-68.146 -160.21)" fill="#f28f8f"/><path d="M91.684,188.752c-.678-.469-2.326-1.466-5.617-3.572,0,0,.507,1.064-.292,3.737s-2.486,4.366-3.545,4.559c0,0,1.841,1.455,3.539,3.1s3.092,2.806,4.074,4.713c0,0,2.425-.623,2.977-4.735C93.205,193.669,92.974,190.285,91.684,188.752Z" transform="translate(-71.839 -163.118)" fill="#455a64"/><path d="M115.458,158.83a6.615,6.615,0,0,0-.447-6.455c-2.089-2.971-5.612-4.41-9.5-4.366H104.3c-5.253.088-10.027,4.6-10.121,9.674h0c0,3.572,0,6.874,1.968,9.311,1.814,2.266,4.641,3.01,7.028,3.374,4.564.695,9.691.165,11.764-2.944,0,0-2.756.551-2.409-2.3.05-.452-.38-.948-1.136-1.461a15.308,15.308,0,0,1,1.858-2.563C114.03,160.318,114.929,159.883,115.458,158.83Z" transform="translate(-77.202 -146.437)" fill="#263238"/><path d="M116.194,166.334c-.028,5.319-1.731,6.659-2.585,7.056s-2.53.187-4.156-.05l.055,3.192s1.9,1.924,1.792,3.39-2.911,1.654-5.033.281a15.743,15.743,0,0,1-3.153-2.756,1.158,1.158,0,0,1-.281-.733l-.132-7.5s-.871.954-2.459-.094a2.9,2.9,0,0,1-.821-4.195,2.139,2.139,0,0,1,3.263.336c.485.9.441,1.544,1.1,1.439s.689-.821.733-1.334,0-.678.066-1.351c1.571-.336,3.2-2.525,3.379-4.123a7.524,7.524,0,0,0,3.423.772c1.758-.121,2.668-.474,3.533-1.742a3.859,3.859,0,0,1,.491.943,12.26,12.26,0,0,1,.551,2.089,26.912,26.912,0,0,1,.232,4.382Z" transform="translate(-79.299 -151.334)" fill="#ffa8a7"/><path d="M113.341,183.025c-1.714-.2-5.248-1.147-5.821-2.525a3.605,3.605,0,0,0,1.262,1.753c1.069.882,4.575,1.836,4.575,1.836Z" transform="translate(-83.188 -161.018)" fill="#f28f8f"/><path d="M120.07,179.323a.7.7,0,1,1-.711-.684.7.7,0,0,1,.711.684Z" transform="translate(-88.192 -160.183)" fill="#b16668"/><path d="M118.343,169.8a.744.744,0,0,1-.678.81.761.761,0,1,1,.678-.81Z" transform="translate(-87.363 -155.901)" fill="#263238"/><path d="M127.511,169.28a.684.684,0,0,1-.623.733.634.634,0,0,1-.711-.645.673.673,0,0,1,.617-.739.689.689,0,0,1,.717.65Z" transform="translate(-91.559 -155.691)" fill="#263238"/><path d="M122.37,168.56,122.9,173l2.277-.948Z" transform="translate(-89.852 -155.66)" fill="#f28f8f"/><path d="M114.76,165.877l1.323-1.257a.959.959,0,0,1-.039,1.323.887.887,0,0,1-1.284-.066Z" transform="translate(-86.437 -153.892)" fill="#263238"/><path d="M126.633,163.88l1.466,1.1a.882.882,0,0,1-1.268.2A.97.97,0,0,1,126.633,163.88Z" transform="translate(-91.689 -153.559)" fill="#263238"/></g><g transform="translate(0 0)"><path d="M82.336,90.469a11.207,11.207,0,0,1,3.208-.143,8.588,8.588,0,0,1,2.949.8,6.786,6.786,0,0,1,2.3,1.8,6.064,6.064,0,0,1,1.279,2.817,6.157,6.157,0,0,1,0,2.459,7.254,7.254,0,0,1-.75,2.018,11.752,11.752,0,0,1-1.174,1.742c-.441.551-.86,1.058-1.251,1.549a9.922,9.922,0,0,0-.992,1.477,2.85,2.85,0,0,0-.369,1.521,1.389,1.389,0,0,1-.182.706.8.8,0,0,1-.551.391l-2.6.491a.937.937,0,0,1-.717-.149.761.761,0,0,1-.38-.6,6.064,6.064,0,0,1,.121-2.448,8.572,8.572,0,0,1,.854-2.034,12.128,12.128,0,0,1,1.229-1.72c.458-.551.871-1.047,1.251-1.532a7.987,7.987,0,0,0,.9-1.406,2.2,2.2,0,0,0,.193-1.4,2.613,2.613,0,0,0-1.494-1.929,4.73,4.73,0,0,0-3.065-.292A4.578,4.578,0,0,0,79.386,98.3a2,2,0,0,1-.254.628.9.9,0,0,1-.6.309l-2.756.524a.788.788,0,0,1-.551-.1.744.744,0,0,1-.325-.507,5.4,5.4,0,0,1,.276-2.58,8.522,8.522,0,0,1,1.411-2.629,10.391,10.391,0,0,1,2.459-2.2A9.14,9.14,0,0,1,82.336,90.469Zm5.033,19.156a.959.959,0,0,1,1.1.75l.551,3.01a.887.887,0,0,1-.149.7.921.921,0,0,1-.6.4l-2.938.551a.9.9,0,0,1-.706-.149.921.921,0,0,1-.4-.6l-.551-3.01a.91.91,0,0,1,.154-.7.882.882,0,0,1,.6-.4Z" transform="translate(-57.194 -90.27)" fill="#407bff"/><path d="M131.431,112.488a7.669,7.669,0,0,1,1.764,1.345,5.783,5.783,0,0,1,1.207,1.731,4.735,4.735,0,0,1,.424,1.968,4.145,4.145,0,0,1-.551,2.062,4.411,4.411,0,0,1-1.075,1.312,5.144,5.144,0,0,1-1.3.733,8.268,8.268,0,0,1-1.395.408l-1.345.265a6.39,6.39,0,0,0-1.18.347,1.94,1.94,0,0,0-.865.639.937.937,0,0,1-.413.292.551.551,0,0,1-.469-.039l-1.593-.893a.667.667,0,0,1-.32-.4.551.551,0,0,1,.066-.485,4.167,4.167,0,0,1,1.147-1.24,5.9,5.9,0,0,1,1.356-.706,8.818,8.818,0,0,1,1.417-.375c.48-.083.926-.165,1.345-.254a5.839,5.839,0,0,0,1.1-.347,1.566,1.566,0,0,0,.728-.656,1.819,1.819,0,0,0,.055-1.687,3.252,3.252,0,0,0-1.494-1.51,3.159,3.159,0,0,0-3.616.32,1.3,1.3,0,0,1-.413.226.623.623,0,0,1-.452-.1l-1.7-.948a.551.551,0,0,1-.254-.309.507.507,0,0,1,.05-.413,3.765,3.765,0,0,1,1.284-1.246,5.854,5.854,0,0,1,1.929-.739,7.028,7.028,0,0,1,2.266-.072A6.312,6.312,0,0,1,131.431,112.488Zm-5.81,12.375a.645.645,0,0,1,.309.391.628.628,0,0,1-.055.491l-1.031,1.847a.65.65,0,0,1-.882.254l-1.8-1.009a.59.59,0,0,1-.3-.391.612.612,0,0,1,.05-.491l1.031-1.847a.639.639,0,0,1,.391-.3.606.606,0,0,1,.491.055Z" transform="translate(-78.275 -99.87)" fill="#407bff"/><g transform="translate(43.551 11.792)" opacity="0.2"><path d="M131.431,112.488a7.669,7.669,0,0,1,1.764,1.345,5.783,5.783,0,0,1,1.207,1.731,4.735,4.735,0,0,1,.424,1.968,4.145,4.145,0,0,1-.551,2.062,4.411,4.411,0,0,1-1.075,1.312,5.144,5.144,0,0,1-1.3.733,8.268,8.268,0,0,1-1.395.408l-1.345.265a6.39,6.39,0,0,0-1.18.347,1.94,1.94,0,0,0-.865.639.937.937,0,0,1-.413.292.551.551,0,0,1-.469-.039l-1.593-.893a.667.667,0,0,1-.32-.4.551.551,0,0,1,.066-.485,4.167,4.167,0,0,1,1.147-1.24,5.9,5.9,0,0,1,1.356-.706,8.818,8.818,0,0,1,1.417-.375c.48-.083.926-.165,1.345-.254a5.839,5.839,0,0,0,1.1-.347,1.566,1.566,0,0,0,.728-.656,1.819,1.819,0,0,0,.055-1.687,3.252,3.252,0,0,0-1.494-1.51,3.159,3.159,0,0,0-3.616.32,1.3,1.3,0,0,1-.413.226.623.623,0,0,1-.452-.1l-1.7-.948a.551.551,0,0,1-.254-.309.507.507,0,0,1,.05-.413,3.765,3.765,0,0,1,1.284-1.246,5.854,5.854,0,0,1,1.929-.739,7.028,7.028,0,0,1,2.266-.072A6.312,6.312,0,0,1,131.431,112.488Zm-5.81,12.375a.645.645,0,0,1,.309.391.628.628,0,0,1-.055.491l-1.031,1.847a.65.65,0,0,1-.882.254l-1.8-1.009a.59.59,0,0,1-.3-.391.612.612,0,0,1,.05-.491l1.031-1.847a.639.639,0,0,1,.391-.3.606.606,0,0,1,.491.055Z" transform="translate(-121.826 -111.662)"/></g><path d="M57.147,139a.75.75,0,0,1,.551-.2.772.772,0,0,1,.551.243l1.7,1.841a.777.777,0,0,1-.044,1.1l-1.8,1.654a.777.777,0,0,1-1.1-.044l-1.7-1.841a.772.772,0,0,1,.044-1.1Zm-11.8-11.108a9.222,9.222,0,0,1,2.161-1.5,7.1,7.1,0,0,1,2.392-.717,5.683,5.683,0,0,1,2.376.243,4.961,4.961,0,0,1,2.111,1.406,5.082,5.082,0,0,1,1.1,1.692,5.975,5.975,0,0,1,.353,1.725,9.923,9.923,0,0,1-.055,1.72c-.072.551-.138,1.1-.2,1.615a8.169,8.169,0,0,0-.05,1.455,2.315,2.315,0,0,0,.408,1.218,1.1,1.1,0,0,1,.176.551.634.634,0,0,1-.22.513l-1.588,1.472a.788.788,0,0,1-.551.2.628.628,0,0,1-.524-.248,5.055,5.055,0,0,1-.981-1.753,6.935,6.935,0,0,1-.287-1.781,10.1,10.1,0,0,1,.1-1.742c.083-.551.149-1.1.2-1.6a6.378,6.378,0,0,0,0-1.373,1.791,1.791,0,0,0-.469-1.053,2.144,2.144,0,0,0-1.874-.689,3.9,3.9,0,0,0-2.249,1.1,3.76,3.76,0,0,0-.976,4.195,1.593,1.593,0,0,1,.1.551.711.711,0,0,1-.281.469l-1.692,1.566a.629.629,0,0,1-.441.176.59.59,0,0,1-.441-.209A4.355,4.355,0,0,1,43,135.209a6.912,6.912,0,0,1-.127-2.442,8.357,8.357,0,0,1,.761-2.574,7.4,7.4,0,0,1,1.714-2.3Z" transform="translate(-42.821 -106.142)" fill="#407bff"/><g transform="translate(0 19.496)" opacity="0.6"><path d="M57.147,139a.75.75,0,0,1,.551-.2.772.772,0,0,1,.551.243l1.7,1.841a.777.777,0,0,1-.044,1.1l-1.8,1.654a.777.777,0,0,1-1.1-.044l-1.7-1.841a.772.772,0,0,1,.044-1.1Zm-11.8-11.108a9.222,9.222,0,0,1,2.161-1.5,7.1,7.1,0,0,1,2.392-.717,5.683,5.683,0,0,1,2.376.243,4.961,4.961,0,0,1,2.111,1.406,5.082,5.082,0,0,1,1.1,1.692,5.975,5.975,0,0,1,.353,1.725,9.923,9.923,0,0,1-.055,1.72c-.072.551-.138,1.1-.2,1.615a8.169,8.169,0,0,0-.05,1.455,2.315,2.315,0,0,0,.408,1.218,1.1,1.1,0,0,1,.176.551.634.634,0,0,1-.22.513l-1.588,1.472a.788.788,0,0,1-.551.2.628.628,0,0,1-.524-.248,5.055,5.055,0,0,1-.981-1.753,6.935,6.935,0,0,1-.287-1.781,10.1,10.1,0,0,1,.1-1.742c.083-.551.149-1.1.2-1.6a6.378,6.378,0,0,0,0-1.373,1.791,1.791,0,0,0-.469-1.053,2.144,2.144,0,0,0-1.874-.689,3.9,3.9,0,0,0-2.249,1.1,3.76,3.76,0,0,0-.976,4.195,1.593,1.593,0,0,1,.1.551.711.711,0,0,1-.281.469l-1.692,1.566a.629.629,0,0,1-.441.176.59.59,0,0,1-.441-.209A4.355,4.355,0,0,1,43,135.209a6.912,6.912,0,0,1-.127-2.442,8.357,8.357,0,0,1,.761-2.574,7.4,7.4,0,0,1,1.714-2.3Z" transform="translate(-42.821 -125.638)" fill="#fff"/></g></g></g><g transform="translate(116.317 28.873)"><path d="M249.809,213.847c-1.571-.9-8.186-4.724-10.435-6.025-.447-.254-.728-.419-.75-.435a5.281,5.281,0,0,0-3.677-.551,9.586,9.586,0,0,0-3.043,1.185c-.154.088-.309.193-.458.292a19.223,19.223,0,0,0-6.543,7.6,23.566,23.566,0,0,0-2.894,11.025q0,5.479,2.922,7.69a5.9,5.9,0,0,0,.617.4c1.825,1.036,10.975,6.339,11.179,6.455h.05a5.141,5.141,0,0,1-.645-.419q-2.927-2.205-2.922-7.684a23.565,23.565,0,0,1,2.894-11.025,18.883,18.883,0,0,1,7-7.9q3.914-2.26,6.758-.59Z" transform="translate(-205.665 -108.682)" fill="#407bff"/><path d="M252.547,213.865q-2.844-1.654-6.758.584a18.193,18.193,0,0,0-6.587,7.166L228,215.127a18.541,18.541,0,0,1,6.13-6.852c.149-.094.3-.2.458-.292a9.437,9.437,0,0,1,3.043-1.18,5.248,5.248,0,0,1,3.677.551l.75.435c2.249,1.3,8.864,5.121,10.435,6.02Z" transform="translate(-208.353 -108.667)" opacity="0.4"/><path d="M236.778,248.332h-.05c-.2-.116-9.371-5.419-11.179-6.455a5.9,5.9,0,0,1-.617-.4q-2.922-2.2-2.922-7.684a23.533,23.533,0,0,1,2.894-11.025c.132-.259.27-.513.413-.755l11.2,6.466c-.138.243-.276.5-.408.75a23.565,23.565,0,0,0-2.894,11.025q0,5.479,2.922,7.684A5.141,5.141,0,0,0,236.778,248.332Z" transform="translate(-205.665 -115.545)" opacity="0.3"/><path d="M231.619,39.454q8.153-4.713,13.88-4.008a11.576,11.576,0,0,1,4.41,1.466,1.17,1.17,0,0,1-.11-.066c-1.312-.739-9.217-5.3-11.025-6.361a11.526,11.526,0,0,0-4.5-1.5q-5.733-.7-13.886,4-12.679,7.315-20.4,21.5a59.218,59.218,0,0,0-7.635,28.957l11.2,6.466a58.735,58.735,0,0,1,7.635-28.962Q218.94,46.769,231.619,39.454Z" transform="translate(-192.358 -28.883)" fill="#407bff"/><path d="M255.53,36.842a11.8,11.8,0,0,0-4.322-1.406q-5.722-.706-13.88,4.008-12.679,7.309-20.4,21.5c-.215.391-.424.788-.628,1.18L205.08,55.645c.2-.391.413-.788.628-1.18q7.75-14.172,20.4-21.5,8.164-4.708,13.886-4a11.532,11.532,0,0,1,4.5,1.5C246.313,31.545,254.218,36.109,255.53,36.842Z" transform="translate(-198.067 -28.873)" opacity="0.2"/><path d="M210.571,83.906a58.308,58.308,0,0,0-7.006,27.777l-11.2-6.466a58.372,58.372,0,0,1,7.006-27.777Z" transform="translate(-192.362 -50.668)" opacity="0.3"/><path d="M253.923,80.816q-3.048-1.621-8.142,1.268a20.3,20.3,0,0,1-1.235,5.909q-1.273,3.429-7.409,14.145a94.243,94.243,0,0,0-9.195,21.162,75.046,75.046,0,0,0-2.833,20.4l.055,3.434,7.64,4.41,3.561,2.056-.061-3.44v-.044a75.3,75.3,0,0,1,2.833-20.33,94.006,94.006,0,0,1,9.2-21.157q6.13-10.716,7.4-14.15a20.132,20.132,0,0,0,1.279-7.078Q257.021,82.464,253.923,80.816Z" transform="translate(-207.056 -51.921)" fill="#407bff"/><path d="M254.646,105.336q-1.9,3.947-6.306,11.653a93.779,93.779,0,0,0-9.2,21.162,75.267,75.267,0,0,0-2.833,20.346v.088l.061,3.44-3.561-2.051-7.64-4.41-.055-3.44a75.079,75.079,0,0,1,2.833-20.4,94.244,94.244,0,0,1,9.195-21.162q4.41-7.717,6.317-11.648Z" transform="translate(-207.056 -60.307)" opacity="0.3"/><path d="M271.956,87.4a20.131,20.131,0,0,1-1.273,7.056q-.356.967-1.1,2.5L258.39,90.49q.733-1.532,1.1-2.5a20.3,20.3,0,0,0,1.235-5.909q5.094-2.889,8.142-1.268T271.956,87.4Z" transform="translate(-221.991 -51.921)" opacity="0.4"/><path d="M227.832,86.39l-15.154,8.754a58.735,58.735,0,0,1,7.635-28.962q7.75-14.178,20.4-21.5,8.153-4.713,13.88-4.008t9.167,6.279q3.445,5.573,3.445,13.9a44.939,44.939,0,0,1-1.1,9.581,72.126,72.126,0,0,1-3.467,11.025A135.774,135.774,0,0,1,255.979,94.4a125.535,125.535,0,0,0-6.306,12.243,43.8,43.8,0,0,0-2.089,7.921,83.09,83.09,0,0,0-1.1,12.2l-15.672,9.051-.061-3.44a75.08,75.08,0,0,1,2.833-20.4,94.007,94.007,0,0,1,9.2-21.157q6.13-10.716,7.4-14.15a20.132,20.132,0,0,0,1.257-7.078q0-4.961-3.092-6.582t-8.3,1.356a23.454,23.454,0,0,0-8.737,9.228,26.46,26.46,0,0,0-3.478,12.783Z" transform="translate(-201.476 -34.128)" fill="#407bff"/><path d="M252.165,219.77q4.217-2.442,7.2-.3t2.982,7.613a23.648,23.648,0,0,1-2.949,11.074,19.176,19.176,0,0,1-7.117,8q-4.173,2.409-7.089.2t-2.922-7.69a23.565,23.565,0,0,1,2.894-11.025A18.856,18.856,0,0,1,252.165,219.77Z" transform="translate(-214.757 -113.955)" fill="#407bff"/></g></g></svg>