<svg xmlns="http://www.w3.org/2000/svg" xmlns:xlink="http://www.w3.org/1999/xlink" width="185.75" height="148.6" viewBox="0 0 185.75 148.6"><defs><linearGradient id="a" x1="0.897" y1="0.912" x2="0.097" gradientUnits="objectBoundingBox"><stop offset="0" stop-color="#b7ab23"/><stop offset="1" stop-color="#ef6038"/></linearGradient></defs><path d="M181.106,102.162h-4.644V70.788a13.932,13.932,0,0,0-4.092-9.839L143.375,31.955a13.932,13.932,0,0,0-9.839-4.092h-12.8V13.931A13.935,13.935,0,0,0,106.806,0h-74.3A13.935,13.935,0,0,0,18.575,13.931V27.862H2.322A2.329,2.329,0,0,0,0,30.184v4.644A2.329,2.329,0,0,0,2.322,37.15H81.265a2.329,2.329,0,0,1,2.322,2.322v4.644a2.329,2.329,0,0,1-2.322,2.322H11.609a2.329,2.329,0,0,0-2.322,2.322V53.4a2.329,2.329,0,0,0,2.322,2.322H71.978A2.329,2.329,0,0,1,74.3,58.047V62.69a2.329,2.329,0,0,1-2.322,2.322H2.322A2.329,2.329,0,0,0,0,67.334v4.644A2.329,2.329,0,0,0,2.322,74.3H62.69a2.329,2.329,0,0,1,2.322,2.322v4.644a2.329,2.329,0,0,1-2.322,2.322H18.575v37.15a27.862,27.862,0,0,0,55.725,0h37.15a27.862,27.862,0,0,0,55.725,0h13.931a4.657,4.657,0,0,0,4.644-4.644v-9.287A4.657,4.657,0,0,0,181.106,102.162ZM46.437,134.668a13.931,13.931,0,1,1,13.931-13.931A13.935,13.935,0,0,1,46.437,134.668Zm92.875,0a13.931,13.931,0,1,1,13.931-13.931A13.935,13.935,0,0,1,139.312,134.668ZM162.531,74.3H120.737V41.794h12.8l28.994,28.994Z" opacity="0.059" fill="url(#a)"/></svg>