<svg xmlns="http://www.w3.org/2000/svg" width="149.681" height="114.197" viewBox="0 0 149.681 114.197"><g transform="translate(0 0)"><circle cx="9.485" cy="9.485" r="9.485" transform="translate(11.896 48.461)" fill="#ef6038"/><path d="M363.041,377.689h-.01a1.261,1.261,0,0,1-1.26-1.26V302.478a1.261,1.261,0,0,1,1.26-1.26h62.244a1.261,1.261,0,0,1,1.26,1.26v57.5a1.261,1.261,0,0,1-1.25,1.26Z" transform="translate(-322.237 -266.169)" fill="#f2f2f2"/><path d="M514.671,126.8h-28.9V110.052a1.335,1.335,0,0,1,1.334-1.334h26.231a1.335,1.335,0,0,1,1.334,1.334Zm-28.6-.3h28.306v-16.45a1.038,1.038,0,0,0-1.037-1.037H487.106a1.039,1.039,0,0,0-1.037,1.037Z" transform="translate(-427.86 -102.198)" fill="#3f3d56"/><path d="M439.458,87h12.449a1.186,1.186,0,0,1,1.186,1.186v17.784h-14.82V88.186A1.186,1.186,0,0,1,439.458,87Z" transform="translate(-373.32 -74.107)" fill="#e6e6e6"/><path d="M522.848,71.535h-6.076V65.459a.742.742,0,0,1,.741-.741h4.594a.742.742,0,0,1,.741.741Zm-5.78-.3h5.483v-5.78a.445.445,0,0,0-.445-.445h-4.594a.445.445,0,0,0-.445.445Z" transform="translate(-454.266 -64.718)" fill="#3f3d56"/><path d="M834.707,466.672c-.059,0-.117,0-.176,0a15.045,15.045,0,0,1-9.914-3.875q-.151-.137-.3-.278l-.046-.044v-28.4l.014-.03c.1-.208.2-.413.3-.618,3.083-6.258,6.678-9.7,10.123-9.7,4.969,0,8.823,6.816,10.678,10.879,2.579,5.65,4.381,12.651,4.381,17.025a15.053,15.053,0,0,1-14.886,15.048C834.823,466.672,834.764,466.672,834.707,466.672Zm-10.138-4.326c.082.078.165.154.248.23a14.75,14.75,0,0,0,9.72,3.8c.06,0,.117,0,.174,0h.163a14.806,14.806,0,0,0,14.6-14.752c0-4.336-1.79-11.287-4.354-16.9-1.825-4-5.6-10.706-10.408-10.706-3.327,0-6.828,3.387-9.857,9.538-.094.193-.188.388-.281.584Z" transform="translate(-716.195 -370.515)" fill="#3f3d56"/><path d="M893.7,632.785a.171.171,0,0,1-.17-.171V597.807a.171.171,0,0,1,.341,0v34.807A.171.171,0,0,1,893.7,632.785Z" transform="translate(-775.186 -518.659)" fill="#ccc"/><path d="M296.7,632.785a.171.171,0,0,1-.171-.171V597.807a.171.171,0,0,1,.341,0v34.807A.171.171,0,0,1,296.7,632.785Z" transform="translate(-266.66 -518.659)" fill="#ccc"/><path d="M844.409,583.868a.17.17,0,0,1-.129-.059L835.7,573.92a.171.171,0,1,1,.258-.223l8.575,9.889a.17.17,0,0,1-.129.282Z" transform="translate(-725.897 -498.216)" fill="#ccc"/><path d="M893.7,651.213a.17.17,0,0,1-.121-.291l4.873-4.873a.171.171,0,0,1,.241.241l-4.873,4.873A.169.169,0,0,1,893.7,651.213Z" transform="translate(-775.186 -559.854)" fill="#ccc"/><path d="M927.864,797.8H915.119v-.148a6.373,6.373,0,0,1,12.746,0Zm-12.448-.3h12.15a6.077,6.077,0,0,0-12.15,0Z" transform="translate(-793.578 -683.604)" fill="#3f3d56"/><path d="M945.55,809.875a.168.168,0,0,0-.168.168v1.787l-1.741-1.494a.168.168,0,1,0-.219.255l1.96,1.682v1.05a.168.168,0,0,0,.336,0v-3.281A.168.168,0,0,0,945.55,809.875Z" transform="translate(-817.637 -699.444)" fill="#3f3d56"/><path d="M206.865,797.8H194.119v-.148a6.373,6.373,0,0,1,12.746,0Zm-12.448-.3h12.15a6.077,6.077,0,0,0-12.15,0Z" transform="translate(-179.43 -683.604)" fill="#3f3d56"/><path d="M224.55,809.875a.168.168,0,0,0-.168.168v1.787l-1.741-1.494a.168.168,0,1,0-.219.255l1.96,1.682v1.05a.168.168,0,0,0,.336,0v-3.281a.168.168,0,0,0-.168-.168Z" transform="translate(-203.488 -699.444)" fill="#3f3d56"/><path d="M212.122,466.672c-.059,0-.117,0-.176,0a15.054,15.054,0,0,1-14.884-15.048c0-4.374,1.8-11.375,4.381-17.025,1.855-4.063,5.709-10.879,10.679-10.879,2.047,0,4.108,1.167,6.127,3.468.1.113.2.23.3.35l.034.041v37.64l-.084.04c-.1.048-.2.094-.3.137a14.91,14.91,0,0,1-5.9,1.275Zm0-42.658c-4.8,0-8.584,6.708-10.409,10.706-2.564,5.615-4.354,12.566-4.354,16.9a14.807,14.807,0,0,0,14.593,14.752c.06,0,.116,0,.174,0h.163a14.62,14.62,0,0,0,5.789-1.25c.07-.03.139-.061.208-.093V427.684q-.129-.155-.259-.3C216.066,425.147,214.08,424.015,212.122,424.015Z" transform="translate(-181.937 -370.515)" fill="#3f3d56"/><path d="M248.409,583.868a.17.17,0,0,1-.129-.059L239.7,573.92a.171.171,0,1,1,.258-.223l8.575,9.889a.17.17,0,0,1-.129.282Z" transform="translate(-218.224 -498.216)" fill="#ccc"/><path d="M297.7,651.213a.17.17,0,0,1-.121-.291l4.873-4.873a.171.171,0,0,1,.241.241l-4.873,4.873A.17.17,0,0,1,297.7,651.213Z" transform="translate(-267.512 -559.854)" fill="#ccc"/><path d="M347.5,230.2l.11.216a.656.656,0,0,1,.074.3v5.854h5.187v-5.854a.655.655,0,0,1,.074-.3l.11-.216Zm5.074.519v5.557h-4.594v-5.557a.928.928,0,0,0-.027-.222H352.6a.93.93,0,0,0-.027.222Zm1.446-.519.11.216a.655.655,0,0,1,.074.3v5.854h5.187v-5.854a.656.656,0,0,1,.074-.3l.11-.216Zm5.074.519v5.557H354.5v-5.557a.93.93,0,0,0-.027-.222h4.648a.933.933,0,0,0-.027.222Zm1.446-.519.11.216a.655.655,0,0,1,.074.3v5.854h5.187v-5.854a.655.655,0,0,1,.074-.3l.11-.216Zm5.074.519v5.557H361.02v-5.557a.93.93,0,0,0-.027-.222h4.648a.931.931,0,0,0-.027.222Zm1.446-.519.11.216a.655.655,0,0,1,.074.3v5.854h5.187v-5.854a.656.656,0,0,1,.074-.3l.11-.216Zm5.074.519v5.557H367.54v-5.557a.931.931,0,0,0-.027-.222h4.648a.933.933,0,0,0-.027.222Zm1.446-.519.11.216a.655.655,0,0,1,.074.3v5.854h5.187v-5.854a.656.656,0,0,1,.074-.3l.11-.216Zm5.074.519v5.557h-4.594v-5.557a.931.931,0,0,0-.027-.222h4.648a.93.93,0,0,0-.027.222Zm1.446-.519.11.216a.655.655,0,0,1,.074.3v5.854h5.187v-5.854a.655.655,0,0,1,.074-.3l.11-.216Zm5.074.519v5.557h-4.594v-5.557a.931.931,0,0,0-.027-.222H385.2a.93.93,0,0,0-.027.222Zm1.446-.519.11.216a.656.656,0,0,1,.074.3v5.854h5.187v-5.854a.655.655,0,0,1,.074-.3l.11-.216Zm5.074.519v5.557H387.1v-5.557a.93.93,0,0,0-.027-.222h4.648a.929.929,0,0,0-.027.222Zm1.446-.519.11.216a.655.655,0,0,1,.074.3v5.854h5.187v-5.854a.656.656,0,0,1,.074-.3l.11-.216Zm5.074.519v5.557h-4.594v-5.557a.931.931,0,0,0-.027-.222h4.648a.931.931,0,0,0-.027.222Zm1.446-.519.11.216a.655.655,0,0,1,.074.3v5.854h5.187v-5.854a.656.656,0,0,1,.074-.3l.11-.216Zm5.074.519v5.557h-4.594v-5.557a.931.931,0,0,0-.027-.222h4.648a.931.931,0,0,0-.026.222Zm-5.074-.519.11.216a.655.655,0,0,1,.074.3v5.854h5.187v-5.854a.656.656,0,0,1,.074-.3l.11-.216Zm5.074.519v5.557h-4.594v-5.557a.931.931,0,0,0-.027-.222h4.648a.931.931,0,0,0-.026.222Zm-11.6-.519.11.216a.655.655,0,0,1,.074.3v5.854h5.187v-5.854a.656.656,0,0,1,.074-.3l.11-.216Zm5.074.519v5.557h-4.594v-5.557a.93.93,0,0,0-.027-.222h4.648a.928.928,0,0,0-.027.222Zm-11.6-.519.11.216a.655.655,0,0,1,.074.3v5.854h5.187v-5.854a.656.656,0,0,1,.074-.3l.11-.216Zm5.074.519v5.557H387.1v-5.557a.93.93,0,0,0-.027-.222h4.648a.931.931,0,0,0-.026.222Zm-11.6-.519.11.216a.656.656,0,0,1,.074.3v5.854h5.187v-5.854a.655.655,0,0,1,.074-.3l.11-.216Zm5.074.519v5.557h-4.594v-5.557a.93.93,0,0,0-.027-.222H385.2a.931.931,0,0,0-.027.222Zm-11.6-.519.11.216a.655.655,0,0,1,.074.3v5.854h5.187v-5.854a.655.655,0,0,1,.074-.3l.11-.216Zm5.074.519v5.557h-4.594v-5.557a.93.93,0,0,0-.027-.222h4.648a.933.933,0,0,0-.027.222Zm-11.6-.519.11.216a.656.656,0,0,1,.074.3v5.854h5.187v-5.854a.656.656,0,0,1,.074-.3l.11-.216Zm5.074.519v5.557H367.54v-5.557a.931.931,0,0,0-.027-.222h4.648a.931.931,0,0,0-.027.222Zm-11.6-.519.11.216a.656.656,0,0,1,.074.3v5.854h5.187v-5.854a.655.655,0,0,1,.074-.3l.11-.216Zm5.074.519v5.557H361.02v-5.557a.931.931,0,0,0-.027-.222h4.648a.929.929,0,0,0-.027.222Zm-11.6-.519.11.216a.655.655,0,0,1,.074.3v5.854h5.187v-5.854a.655.655,0,0,1,.074-.3l.11-.216Zm5.074.519v5.557H354.5v-5.557a.933.933,0,0,0-.027-.222h4.648a.931.931,0,0,0-.027.222Zm-11.6-.519.11.216a.655.655,0,0,1,.074.3v5.854h5.187v-5.854a.656.656,0,0,1,.074-.3l.11-.216Zm5.074.519v5.557h-4.594v-5.557a.931.931,0,0,0-.027-.222H352.6a.929.929,0,0,0-.027.222Zm47.092-.519.11.216a.656.656,0,0,1,.074.3v5.854h5.187v-5.854a.655.655,0,0,1,.074-.3l.11-.216Zm5.074.519v5.557h-4.594v-5.557a.931.931,0,0,0-.027-.222h4.648a.928.928,0,0,0-.027.222Zm-11.6-.519.11.216a.656.656,0,0,1,.074.3v5.854h5.187v-5.854a.656.656,0,0,1,.074-.3l.11-.216Zm5.074.519v5.557h-4.594v-5.557a.931.931,0,0,0-.027-.222h4.648a.929.929,0,0,0-.027.222Zm-11.6-.519.11.216a.655.655,0,0,1,.074.3v5.854h5.187v-5.854a.655.655,0,0,1,.074-.3l.11-.216Zm5.074.519v5.557H387.1v-5.557a.931.931,0,0,0-.027-.222h4.648a.928.928,0,0,0-.027.222Zm-11.6-.519.11.216a.655.655,0,0,1,.074.3v5.854h5.187v-5.854a.655.655,0,0,1,.074-.3l.11-.216Zm5.074.519v5.557h-4.594v-5.557a.931.931,0,0,0-.027-.222H385.2a.93.93,0,0,0-.027.222Zm-11.6-.519.11.216a.656.656,0,0,1,.074.3v5.854h5.187v-5.854a.656.656,0,0,1,.074-.3l.11-.216Zm5.074.519v5.557h-4.594v-5.557a.93.93,0,0,0-.027-.222h4.648a.929.929,0,0,0-.027.222Zm-11.6-.519.11.216a.655.655,0,0,1,.074.3v5.854h5.187v-5.854a.655.655,0,0,1,.074-.3l.11-.216Zm5.074.519v5.557H367.54v-5.557a.928.928,0,0,0-.027-.222h4.648a.933.933,0,0,0-.027.222Zm-11.6-.519.11.216a.655.655,0,0,1,.074.3v5.854h5.187v-5.854a.655.655,0,0,1,.074-.3l.11-.216Zm5.074.519v5.557H361.02v-5.557a.93.93,0,0,0-.027-.222h4.648a.933.933,0,0,0-.027.222Zm-11.6-.519.11.216a.656.656,0,0,1,.074.3v5.854h5.187v-5.854a.655.655,0,0,1,.074-.3l.11-.216Zm5.074.519v5.557H354.5v-5.557a.931.931,0,0,0-.027-.222h4.648a.931.931,0,0,0-.027.222Zm-11.6-.519.11.216a.655.655,0,0,1,.074.3v5.854h5.187v-5.854a.655.655,0,0,1,.074-.3l.11-.216Zm5.074.519v5.557h-4.594v-5.557a.931.931,0,0,0-.027-.222H352.6a.931.931,0,0,0-.027.222Zm47.092-.519.11.216a.656.656,0,0,1,.074.3v5.854h5.187v-5.854a.655.655,0,0,1,.074-.3l.11-.216Zm5.074.519v5.557h-4.594v-5.557a.93.93,0,0,0-.027-.222h4.648a.93.93,0,0,0-.027.222Zm-11.6-.519.11.216a.656.656,0,0,1,.074.3v5.854h5.187v-5.854a.655.655,0,0,1,.074-.3l.11-.216Zm5.074.519v5.557h-4.594v-5.557a.928.928,0,0,0-.027-.222h4.648a.931.931,0,0,0-.027.222Zm-11.6-.519.11.216a.656.656,0,0,1,.074.3v5.854h5.187v-5.854a.656.656,0,0,1,.074-.3l.11-.216Zm5.074.519v5.557H387.1v-5.557a.931.931,0,0,0-.027-.222h4.648a.93.93,0,0,0-.027.222Zm-11.6-.519.11.216a.656.656,0,0,1,.074.3v5.854h5.187v-5.854a.655.655,0,0,1,.074-.3l.11-.216Zm5.074.519v5.557h-4.594v-5.557a.931.931,0,0,0-.027-.222H385.2a.928.928,0,0,0-.027.222Zm-11.6-.519.11.216a.655.655,0,0,1,.074.3v5.854h5.187v-5.854a.655.655,0,0,1,.074-.3l.11-.216Zm5.074.519v5.557h-4.594v-5.557a.933.933,0,0,0-.027-.222h4.648a.93.93,0,0,0-.027.222Zm-11.6-.519.11.216a.655.655,0,0,1,.074.3v5.854h5.187v-5.854a.655.655,0,0,1,.074-.3l.11-.216Zm5.074.519v5.557H367.54v-5.557a.931.931,0,0,0-.027-.222h4.648a.931.931,0,0,0-.027.222Zm-11.6-.519.11.216a.655.655,0,0,1,.074.3v5.854h5.187v-5.854a.655.655,0,0,1,.074-.3l.11-.216Zm5.074.519v5.557H361.02v-5.557a.931.931,0,0,0-.027-.222h4.648a.931.931,0,0,0-.027.222Zm-11.6-.519.11.216a.655.655,0,0,1,.074.3v5.854h5.187v-5.854a.656.656,0,0,1,.074-.3l.11-.216Zm5.074.519v5.557H354.5v-5.557a.93.93,0,0,0-.027-.222h4.648a.933.933,0,0,0-.027.222Zm-11.6-.519.11.216a.656.656,0,0,1,.074.3v5.854h5.187v-5.854a.655.655,0,0,1,.074-.3l.11-.216Zm5.074.519v5.557h-4.594v-5.557a.929.929,0,0,0-.027-.222H352.6a.931.931,0,0,0-.027.222Zm47.092-.519.11.216a.655.655,0,0,1,.074.3v5.854h5.187v-5.854a.656.656,0,0,1,.074-.3l.11-.216Zm5.074.519v5.557h-4.594v-5.557a.931.931,0,0,0-.027-.222h4.648a.933.933,0,0,0-.027.222Zm-11.6-.519.11.216a.656.656,0,0,1,.074.3v5.854h5.187v-5.854a.656.656,0,0,1,.074-.3l.11-.216Zm5.074.519v5.557h-4.594v-5.557a.93.93,0,0,0-.027-.222h4.648a.931.931,0,0,0-.027.222Zm-11.6-.519.11.216a.656.656,0,0,1,.074.3v5.854h5.187v-5.854a.655.655,0,0,1,.074-.3l.11-.216Zm5.074.519v5.557H387.1v-5.557a.928.928,0,0,0-.027-.222h4.648a.93.93,0,0,0-.027.222Zm-11.6-.519.11.216a.655.655,0,0,1,.074.3v5.854h5.187v-5.854a.656.656,0,0,1,.074-.3l.11-.216Zm5.074.519v5.557h-4.594v-5.557a.931.931,0,0,0-.027-.222H385.2a.931.931,0,0,0-.027.222Zm-11.6-.519.11.216a.655.655,0,0,1,.074.3v5.854h5.187v-5.854a.655.655,0,0,1,.074-.3l.11-.216Zm5.074.519v5.557h-4.594v-5.557a.93.93,0,0,0-.027-.222h4.648a.928.928,0,0,0-.027.222Zm-11.6-.519.11.216a.655.655,0,0,1,.074.3v5.854h5.187v-5.854a.655.655,0,0,1,.074-.3l.11-.216Zm5.074.519v5.557h-4.594v-5.557a.931.931,0,0,0-.027-.222h4.648a.93.93,0,0,0-.027.222Zm-11.6-.519.11.216a.655.655,0,0,1,.074.3v5.854h5.187v-5.854a.656.656,0,0,1,.074-.3l.11-.216Zm5.074.519v5.557H361.02v-5.557a.93.93,0,0,0-.027-.222h4.648a.93.93,0,0,0-.027.222Zm-11.6-.519.11.216a.655.655,0,0,1,.074.3v5.854h5.187v-5.854a.656.656,0,0,1,.074-.3l.11-.216Zm5.074.519v5.557H354.5v-5.557a.931.931,0,0,0-.027-.222h4.648a.93.93,0,0,0-.027.222Zm-11.6-.519.11.216a.655.655,0,0,1,.074.3v5.854h5.187v-5.854a.656.656,0,0,1,.074-.3l.11-.216Zm5.074.519v5.557h-4.594v-5.557a.93.93,0,0,0-.027-.222H352.6a.933.933,0,0,0-.027.222Zm47.092-.519.11.216a.656.656,0,0,1,.074.3v5.854h5.187v-5.854a.656.656,0,0,1,.074-.3l.11-.216Zm5.074.519v5.557h-4.594v-5.557a.931.931,0,0,0-.027-.222h4.648a.931.931,0,0,0-.027.222Zm-11.485-.3a.655.655,0,0,1,.074.3v5.854h5.187v-5.854a.656.656,0,0,1,.074-.3l.11-.216h-5.555Zm4.991.08a.933.933,0,0,0-.027.222v5.557h-4.594v-5.557a.933.933,0,0,0-.027-.222Zm-11.512-.08a.655.655,0,0,1,.074.3v5.854h5.187v-5.854a.656.656,0,0,1,.074-.3l.11-.216h-5.555Zm4.991.08a.93.93,0,0,0-.027.222v5.557H387.1v-5.557a.93.93,0,0,0-.027-.222Zm-11.512-.08a.655.655,0,0,1,.074.3v5.854h5.187v-5.854a.655.655,0,0,1,.074-.3l.11-.216H380.1Zm4.991.08a.931.931,0,0,0-.027.222v5.557h-4.594v-5.557a.928.928,0,0,0-.027-.222Zm-11.512-.08a.655.655,0,0,1,.074.3v5.854h5.187v-5.854a.655.655,0,0,1,.074-.3l.11-.216h-5.555Zm4.991.08a.93.93,0,0,0-.027.222v5.557h-4.594v-5.557a.93.93,0,0,0-.027-.222Zm-11.512-.08a.656.656,0,0,1,.074.3v5.854h5.187v-5.854a.655.655,0,0,1,.074-.3l.11-.216H367.06Zm4.991.08a.93.93,0,0,0-.027.222v5.557h-4.594v-5.557a.93.93,0,0,0-.027-.222Zm-11.512-.08a.656.656,0,0,1,.074.3v5.854h5.187v-5.854a.656.656,0,0,1,.074-.3l.11-.216H360.54Zm4.991.08a.931.931,0,0,0-.027.222v5.557H361.02v-5.557a.931.931,0,0,0-.027-.222Zm-11.512-.08a.655.655,0,0,1,.074.3v5.854h5.187v-5.854a.655.655,0,0,1,.074-.3l.11-.216h-5.555Zm4.991.08a.933.933,0,0,0-.027.222v5.557H354.5v-5.557a.93.93,0,0,0-.027-.222Zm-11.512-.08a.656.656,0,0,1,.074.3v5.854h5.187v-5.854a.656.656,0,0,1,.074-.3l.11-.216H347.5Zm4.991.08a.93.93,0,0,0-.027.222v5.557h-4.594v-5.557a.93.93,0,0,0-.027-.222Zm47.175-.08a.655.655,0,0,1,.074.3v5.854h5.187v-5.854a.655.655,0,0,1,.074-.3l.11-.216h-5.555Zm4.991.08a.933.933,0,0,0-.027.222v5.557h-4.594v-5.557a.931.931,0,0,0-.027-.222Zm-11.512-.08a.656.656,0,0,1,.074.3v5.854h5.187v-5.854a.656.656,0,0,1,.074-.3l.11-.216h-5.555Zm4.991.08a.931.931,0,0,0-.027.222v5.557h-4.594v-5.557a.93.93,0,0,0-.027-.222Zm-11.512-.08a.655.655,0,0,1,.074.3v5.854h5.187v-5.854a.655.655,0,0,1,.074-.3l.11-.216h-5.555Zm4.991.08a.933.933,0,0,0-.027.222v5.557H387.1v-5.557a.933.933,0,0,0-.027-.222Zm-11.512-.08a.655.655,0,0,1,.074.3v5.854h5.187v-5.854a.656.656,0,0,1,.074-.3l.11-.216H380.1Zm4.991.08a.93.93,0,0,0-.027.222v5.557h-4.594v-5.557a.931.931,0,0,0-.027-.222Zm-11.512-.08a.655.655,0,0,1,.074.3v5.854h5.187v-5.854a.656.656,0,0,1,.074-.3l.11-.216h-5.555Zm4.991.08a.93.93,0,0,0-.027.222v5.557h-4.594v-5.557a.93.93,0,0,0-.027-.222Zm-11.512-.08a.655.655,0,0,1,.074.3v5.854h5.187v-5.854a.656.656,0,0,1,.074-.3l.11-.216H367.06Zm4.991.08a.93.93,0,0,0-.027.222v5.557h-4.594v-5.557a.93.93,0,0,0-.027-.222Zm-11.512-.08a.655.655,0,0,1,.074.3v5.854h5.187v-5.854a.656.656,0,0,1,.074-.3l.11-.216H360.54Zm4.991.08a.93.93,0,0,0-.027.222v5.557H361.02v-5.557a.93.93,0,0,0-.027-.222Zm-11.512-.08a.656.656,0,0,1,.074.3v5.854h5.187v-5.854a.655.655,0,0,1,.074-.3l.11-.216h-5.555Zm4.991.08a.931.931,0,0,0-.027.222v5.557H354.5v-5.557a.93.93,0,0,0-.027-.222Zm-11.512-.08a.656.656,0,0,1,.074.3v5.854h5.187v-5.854a.655.655,0,0,1,.074-.3l.11-.216H347.5Zm4.991.08a.931.931,0,0,0-.027.222v5.557h-4.594v-5.557a.93.93,0,0,0-.027-.222Zm58.364,6.965H409.2a1.635,1.635,0,0,0-1.568-1.186h-.963v-5.557a.926.926,0,0,0-.067-.348.888.888,0,0,0-.452-1.652H346.57a.888.888,0,0,0-.452,1.652.927.927,0,0,0-.067.348v5.557h-.963a1.635,1.635,0,0,0-1.568,1.186h-1.915a1.336,1.336,0,0,0-1.334,1.334v78.249a1.337,1.337,0,0,0,1.334,1.334h69.357a1.336,1.336,0,0,0,1.334-1.334V238.8a1.336,1.336,0,0,0-1.334-1.334ZM412,317.045a1.038,1.038,0,0,1-.677.972,1,1,0,0,1-.36.065H341.606a1,1,0,0,1-.36-.065,1.038,1.038,0,0,1-.677-.972V238.8a1.039,1.039,0,0,1,1.037-1.037h2.152l.024-.119a1.339,1.339,0,0,1,1.307-1.067h1.26v-5.854a.666.666,0,0,1,.095-.342l.092-.153-.167-.062a.591.591,0,0,1,.2-1.147h59.576a.591.591,0,0,1,.2,1.147l-.167.062.092.153a.665.665,0,0,1,.095.342v5.854h1.26a1.339,1.339,0,0,1,1.307,1.067l.024.119h2A1.039,1.039,0,0,1,412,238.8ZM347.5,230.2l.11.216a.656.656,0,0,1,.074.3v5.854h5.187v-5.854a.655.655,0,0,1,.074-.3l.11-.216Zm5.074.519v5.557h-4.594v-5.557a.931.931,0,0,0-.027-.222H352.6A.928.928,0,0,0,352.573,230.719Zm1.446-.519.11.216a.656.656,0,0,1,.074.3v5.854h5.187v-5.854a.655.655,0,0,1,.074-.3l.11-.216Zm5.074.519v5.557H354.5v-5.557a.931.931,0,0,0-.027-.222h4.648A.931.931,0,0,0,359.093,230.719Zm1.446-.519.11.216a.656.656,0,0,1,.074.3v5.854h5.187v-5.854a.655.655,0,0,1,.074-.3l.11-.216Zm5.074.519v5.557H361.02v-5.557a.931.931,0,0,0-.027-.222h4.648A.933.933,0,0,0,365.614,230.719Zm1.446-.519.11.216a.656.656,0,0,1,.074.3v5.854h5.187v-5.854a.656.656,0,0,1,.074-.3l.11-.216Zm5.074.519v5.557h-4.594v-5.557a.93.93,0,0,0-.027-.222h4.648A.933.933,0,0,0,372.135,230.719Zm1.446-.519.11.216a.655.655,0,0,1,.074.3v5.854h5.187v-5.854a.655.655,0,0,1,.074-.3l.11-.216Zm5.074.519v5.557h-4.594v-5.557a.931.931,0,0,0-.027-.222h4.648A.93.93,0,0,0,378.656,230.719Zm1.446-.519.11.216a.655.655,0,0,1,.074.3v5.854h5.187v-5.854a.655.655,0,0,1,.074-.3l.11-.216Zm5.074.519v5.557h-4.594v-5.557a.931.931,0,0,0-.027-.222H385.2a.931.931,0,0,0-.027.222Zm1.446-.519.11.216a.656.656,0,0,1,.074.3v5.854h5.187v-5.854a.656.656,0,0,1,.074-.3l.11-.216Zm5.074.519v5.557H387.1v-5.557a.93.93,0,0,0-.027-.222h4.648a.931.931,0,0,0-.027.222Zm1.446-.519.11.216a.656.656,0,0,1,.074.3v5.854h5.187v-5.854a.655.655,0,0,1,.074-.3l.11-.216Zm5.074.519v5.557h-4.594v-5.557a.93.93,0,0,0-.027-.222h4.648a.93.93,0,0,0-.027.222Zm1.446-.519.11.216a.656.656,0,0,1,.074.3v5.854h5.187v-5.854a.656.656,0,0,1,.074-.3l.11-.216Zm5.074.519v5.557h-4.594v-5.557a.931.931,0,0,0-.027-.222h4.648a.931.931,0,0,0-.027.222ZM347.5,230.2l.11.216a.655.655,0,0,1,.074.3v5.854h5.187v-5.854a.656.656,0,0,1,.074-.3l.11-.216Zm5.074.519v5.557h-4.594v-5.557a.931.931,0,0,0-.027-.222H352.6A.931.931,0,0,0,352.573,230.719Zm1.446-.519.11.216a.655.655,0,0,1,.074.3v5.854h5.187v-5.854a.655.655,0,0,1,.074-.3l.11-.216Zm5.074.519v5.557H354.5v-5.557a.931.931,0,0,0-.027-.222h4.648a.931.931,0,0,0-.027.222Zm1.446-.519.11.216a.655.655,0,0,1,.074.3v5.854h5.187v-5.854a.655.655,0,0,1,.074-.3l.11-.216Zm5.074.519v5.557H361.02v-5.557a.93.93,0,0,0-.027-.222h4.648a.931.931,0,0,0-.027.222Zm1.446-.519.11.216a.656.656,0,0,1,.074.3v5.854h5.187v-5.854a.655.655,0,0,1,.074-.3l.11-.216Zm5.074.519v5.557h-4.594v-5.557a.933.933,0,0,0-.027-.222h4.648a.931.931,0,0,0-.027.222Zm1.446-.519.11.216a.655.655,0,0,1,.074.3v5.854h5.187v-5.854a.655.655,0,0,1,.074-.3l.11-.216Zm5.074.519v5.557h-4.594v-5.557a.933.933,0,0,0-.027-.222h4.648a.93.93,0,0,0-.027.222Zm1.446-.519.11.216a.656.656,0,0,1,.074.3v5.854h5.187v-5.854a.656.656,0,0,1,.074-.3l.11-.216Zm5.074.519v5.557h-4.594v-5.557a.931.931,0,0,0-.027-.222H385.2a.93.93,0,0,0-.027.222Zm1.446-.519.11.216a.655.655,0,0,1,.074.3v5.854h5.187v-5.854a.655.655,0,0,1,.074-.3l.11-.216Zm5.074.519v5.557H387.1v-5.557a.931.931,0,0,0-.027-.222h4.648a.931.931,0,0,0-.027.222Zm1.446-.519.11.216a.655.655,0,0,1,.074.3v5.854h5.187v-5.854a.656.656,0,0,1,.074-.3l.11-.216Zm5.074.519v5.557h-4.594v-5.557a.931.931,0,0,0-.027-.222h4.648a.93.93,0,0,0-.027.222Zm1.446-.519.11.216a.656.656,0,0,1,.074.3v5.854h5.187v-5.854a.656.656,0,0,1,.074-.3l.11-.216Zm5.074.519v5.557h-4.594v-5.557a.931.931,0,0,0-.027-.222h4.648a.931.931,0,0,0-.027.222ZM347.5,230.2l.11.216a.655.655,0,0,1,.074.3v5.854h5.187v-5.854a.656.656,0,0,1,.074-.3l.11-.216Zm5.074.519v5.557h-4.594v-5.557a.93.93,0,0,0-.027-.222H352.6a.931.931,0,0,0-.027.222Zm1.446-.519.11.216a.655.655,0,0,1,.074.3v5.854h5.187v-5.854a.655.655,0,0,1,.074-.3l.11-.216Zm5.074.519v5.557H354.5v-5.557a.93.93,0,0,0-.027-.222h4.648a.931.931,0,0,0-.027.222Zm1.446-.519.11.216a.655.655,0,0,1,.074.3v5.854h5.187v-5.854a.656.656,0,0,1,.074-.3l.11-.216Zm5.074.519v5.557H361.02v-5.557a.93.93,0,0,0-.027-.222h4.648a.931.931,0,0,0-.027.222Zm1.446-.519.11.216a.655.655,0,0,1,.074.3v5.854h5.187v-5.854a.656.656,0,0,1,.074-.3l.11-.216Zm5.074.519v5.557h-4.594v-5.557a.931.931,0,0,0-.027-.222h4.648a.931.931,0,0,0-.027.222Zm1.446-.519.11.216a.655.655,0,0,1,.074.3v5.854h5.187v-5.854a.656.656,0,0,1,.074-.3l.11-.216Zm5.074.519v5.557h-4.594v-5.557a.93.93,0,0,0-.027-.222h4.648a.928.928,0,0,0-.027.222Zm1.446-.519.11.216a.655.655,0,0,1,.074.3v5.854h5.187v-5.854a.656.656,0,0,1,.074-.3l.11-.216Zm5.074.519v5.557h-4.594v-5.557a.928.928,0,0,0-.027-.222H385.2a.93.93,0,0,0-.027.222Zm1.446-.519.11.216a.655.655,0,0,1,.074.3v5.854h5.187v-5.854a.656.656,0,0,1,.074-.3l.11-.216Zm5.074.519v5.557H387.1v-5.557a.931.931,0,0,0-.027-.222h4.648a.931.931,0,0,0-.027.222Zm1.446-.519.11.216a.655.655,0,0,1,.074.3v5.854h5.187v-5.854a.656.656,0,0,1,.074-.3l.11-.216Zm5.074.519v5.557h-4.594v-5.557a.931.931,0,0,0-.027-.222h4.648a.93.93,0,0,0-.027.222Zm1.446-.519.11.216a.655.655,0,0,1,.074.3v5.854h5.187v-5.854a.656.656,0,0,1,.074-.3l.11-.216Zm5.074.519v5.557h-4.594v-5.557a.931.931,0,0,0-.027-.222h4.648a.933.933,0,0,0-.027.222ZM347.5,230.2l.11.216a.655.655,0,0,1,.074.3v5.854h5.187v-5.854a.655.655,0,0,1,.074-.3l.11-.216Zm5.074.519v5.557h-4.594v-5.557a.93.93,0,0,0-.027-.222H352.6a.931.931,0,0,0-.027.222Zm1.446-.519.11.216a.655.655,0,0,1,.074.3v5.854h5.187v-5.854a.656.656,0,0,1,.074-.3l.11-.216Zm5.074.519v5.557H354.5v-5.557a.93.93,0,0,0-.027-.222h4.648a.93.93,0,0,0-.027.222Zm1.446-.519.11.216a.655.655,0,0,1,.074.3v5.854h5.187v-5.854a.655.655,0,0,1,.074-.3l.11-.216Zm5.074.519v5.557H361.02v-5.557a.93.93,0,0,0-.027-.222h4.648a.93.93,0,0,0-.027.222Zm1.446-.519.11.216a.656.656,0,0,1,.074.3v5.854h5.187v-5.854a.655.655,0,0,1,.074-.3l.11-.216Zm5.074.519v5.557h-4.594v-5.557a.93.93,0,0,0-.027-.222h4.648a.931.931,0,0,0-.027.222Zm1.446-.519.11.216a.655.655,0,0,1,.074.3v5.854h5.187v-5.854a.655.655,0,0,1,.074-.3l.11-.216Zm5.074.519v5.557h-4.594v-5.557a.928.928,0,0,0-.027-.222h4.648a.93.93,0,0,0-.027.222Zm1.446-.519.11.216a.655.655,0,0,1,.074.3v5.854h5.187v-5.854a.656.656,0,0,1,.074-.3l.11-.216Zm5.074.519v5.557h-4.594v-5.557a.931.931,0,0,0-.027-.222H385.2a.931.931,0,0,0-.027.222Zm1.446-.519.11.216a.656.656,0,0,1,.074.3v5.854h5.187v-5.854a.655.655,0,0,1,.074-.3l.11-.216Zm5.074.519v5.557H387.1v-5.557a.93.93,0,0,0-.027-.222h4.648a.93.93,0,0,0-.027.222Zm1.446-.519.11.216a.655.655,0,0,1,.074.3v5.854h5.187v-5.854a.655.655,0,0,1,.074-.3l.11-.216Zm5.074.519v5.557h-4.594v-5.557a.93.93,0,0,0-.027-.222h4.648a.933.933,0,0,0-.027.222Zm1.446-.519.11.216a.656.656,0,0,1,.074.3v5.854h5.187v-5.854a.655.655,0,0,1,.074-.3l.11-.216Zm5.074.519v5.557h-4.594v-5.557a.93.93,0,0,0-.027-.222h4.648a.93.93,0,0,0-.027.222Z" transform="translate(-303.923 -204.414)" fill="#3f3d56"/><path d="M440.12,370.276H429.191a.869.869,0,0,1-.868-.868v-5.822a.869.869,0,0,1,.868-.868H440.12a.869.869,0,0,1,.868.868v5.822A.869.869,0,0,1,440.12,370.276Z" transform="translate(-378.925 -318.555)" fill="#14279b"/><path d="M552.339,370.276H541.41a.869.869,0,0,1-.868-.868v-5.822a.869.869,0,0,1,.868-.868h10.929a.869.869,0,0,1,.868.868v5.822A.869.869,0,0,1,552.339,370.276Z" transform="translate(-474.513 -318.555)" fill="#14279b"/><path d="M664.559,370.276H653.63a.869.869,0,0,1-.868-.868v-5.822a.869.869,0,0,1,.868-.868h10.929a.869.869,0,0,1,.868.868v5.822A.869.869,0,0,1,664.559,370.276Z" transform="translate(-570.102 -318.555)" fill="#14279b"/><path d="M440.12,501.276H429.191a.869.869,0,0,1-.868-.868v-5.822a.869.869,0,0,1,.868-.868H440.12a.869.869,0,0,1,.868.868v5.822A.869.869,0,0,1,440.12,501.276Z" transform="translate(-378.925 -430.141)" fill="#14279b"/><path d="M552.339,501.276H541.41a.869.869,0,0,1-.868-.868v-5.822a.869.869,0,0,1,.868-.868h10.929a.869.869,0,0,1,.868.868v5.822A.869.869,0,0,1,552.339,501.276Z" transform="translate(-474.513 -430.141)" fill="#14279b"/><path d="M664.559,501.276H653.63a.869.869,0,0,1-.868-.868v-5.822a.869.869,0,0,1,.868-.868h10.929a.869.869,0,0,1,.868.868v5.822A.869.869,0,0,1,664.559,501.276Z" transform="translate(-570.102 -430.141)" fill="#14279b"/><path d="M440.12,632.276H429.191a.869.869,0,0,1-.868-.868v-5.822a.869.869,0,0,1,.868-.868H440.12a.869.869,0,0,1,.868.868v5.822A.869.869,0,0,1,440.12,632.276Z" transform="translate(-378.925 -541.727)" fill="#14279b"/><path d="M552.339,632.276H541.41a.869.869,0,0,1-.868-.868v-5.822a.869.869,0,0,1,.868-.868h10.929a.869.869,0,0,1,.868.868v5.822A.869.869,0,0,1,552.339,632.276Z" transform="translate(-474.513 -541.727)" fill="#14279b"/><path d="M664.559,632.276H653.63a.869.869,0,0,1-.868-.868v-5.822a.869.869,0,0,1,.868-.868h10.929a.869.869,0,0,1,.868.868v5.822A.869.869,0,0,1,664.559,632.276Z" transform="translate(-570.102 -541.727)" fill="#14279b"/><path d="M416.586,366.73h-12.66a1.155,1.155,0,0,1-1.154-1.154v-6.744a1.155,1.155,0,0,1,1.154-1.154h12.66a1.155,1.155,0,0,1,1.154,1.154v6.744A1.155,1.155,0,0,1,416.586,366.73Zm-12.66-8.756a.858.858,0,0,0-.857.858v6.744a.858.858,0,0,0,.858.858h12.66a.858.858,0,0,0,.858-.858v-6.744a.858.858,0,0,0-.858-.858Z" transform="translate(-357.16 -314.261)" fill="#3f3d56"/><path d="M546.586,366.73h-12.66a1.155,1.155,0,0,1-1.154-1.154v-6.744a1.155,1.155,0,0,1,1.154-1.154h12.66a1.155,1.155,0,0,1,1.154,1.154v6.744A1.155,1.155,0,0,1,546.586,366.73Zm-12.66-8.756a.858.858,0,0,0-.858.858v6.744a.859.859,0,0,0,.858.858h12.66a.859.859,0,0,0,.858-.858v-6.744a.859.859,0,0,0-.858-.858Z" transform="translate(-467.894 -314.261)" fill="#3f3d56"/><path d="M676.586,366.73h-12.66a1.155,1.155,0,0,1-1.154-1.154v-6.744a1.155,1.155,0,0,1,1.154-1.154h12.66a1.155,1.155,0,0,1,1.154,1.154v6.744A1.155,1.155,0,0,1,676.586,366.73Zm-12.66-8.756a.858.858,0,0,0-.858.858v6.744a.858.858,0,0,0,.858.858h12.66a.859.859,0,0,0,.858-.858v-6.744a.859.859,0,0,0-.858-.858Z" transform="translate(-578.628 -314.261)" fill="#3f3d56"/><path d="M416.586,497.73h-12.66a1.155,1.155,0,0,1-1.154-1.154v-6.744a1.155,1.155,0,0,1,1.154-1.154h12.66a1.155,1.155,0,0,1,1.154,1.154v6.744A1.155,1.155,0,0,1,416.586,497.73Zm-12.66-8.756a.859.859,0,0,0-.857.858v6.744a.858.858,0,0,0,.858.858h12.66a.858.858,0,0,0,.858-.858v-6.744a.858.858,0,0,0-.858-.858Z" transform="translate(-357.16 -425.847)" fill="#3f3d56"/><path d="M546.586,497.73h-12.66a1.155,1.155,0,0,1-1.154-1.154v-6.744a1.155,1.155,0,0,1,1.154-1.154h12.66a1.155,1.155,0,0,1,1.154,1.154v6.744A1.155,1.155,0,0,1,546.586,497.73Zm-12.66-8.756a.858.858,0,0,0-.858.858v6.744a.859.859,0,0,0,.858.858h12.66a.859.859,0,0,0,.858-.858v-6.744a.859.859,0,0,0-.858-.858Z" transform="translate(-467.894 -425.847)" fill="#3f3d56"/><path d="M676.586,497.73h-12.66a1.155,1.155,0,0,1-1.154-1.154v-6.744a1.155,1.155,0,0,1,1.154-1.154h12.66a1.155,1.155,0,0,1,1.154,1.154v6.744A1.155,1.155,0,0,1,676.586,497.73Zm-12.66-8.756a.858.858,0,0,0-.858.858v6.744a.859.859,0,0,0,.858.858h12.66a.859.859,0,0,0,.858-.858v-6.744a.859.859,0,0,0-.858-.858Z" transform="translate(-578.628 -425.847)" fill="#3f3d56"/><path d="M416.586,628.73h-12.66a1.155,1.155,0,0,1-1.154-1.154v-6.744a1.155,1.155,0,0,1,1.154-1.154h12.66a1.155,1.155,0,0,1,1.154,1.154v6.744A1.155,1.155,0,0,1,416.586,628.73Zm-12.66-8.756a.859.859,0,0,0-.857.858v6.744a.858.858,0,0,0,.858.858h12.66a.858.858,0,0,0,.858-.858v-6.744a.858.858,0,0,0-.858-.858Z" transform="translate(-357.16 -537.433)" fill="#3f3d56"/><path d="M546.586,628.73h-12.66a1.155,1.155,0,0,1-1.154-1.154v-6.744a1.155,1.155,0,0,1,1.154-1.154h12.66a1.155,1.155,0,0,1,1.154,1.154v6.744A1.155,1.155,0,0,1,546.586,628.73Zm-12.66-8.756a.858.858,0,0,0-.858.858v6.744a.858.858,0,0,0,.858.858h12.66a.858.858,0,0,0,.858-.858v-6.744a.858.858,0,0,0-.858-.858Z" transform="translate(-467.894 -537.433)" fill="#3f3d56"/><path d="M676.586,628.73h-12.66a1.155,1.155,0,0,1-1.154-1.154v-6.744a1.155,1.155,0,0,1,1.154-1.154h12.66a1.155,1.155,0,0,1,1.154,1.154v6.744A1.155,1.155,0,0,1,676.586,628.73Zm-12.66-8.756a.858.858,0,0,0-.858.858v6.744a.858.858,0,0,0,.858.858h12.66a.859.859,0,0,0,.858-.858v-6.744a.859.859,0,0,0-.858-.858Z" transform="translate(-578.628 -537.433)" fill="#3f3d56"/><path d="M244.533,833.514H95.148a.148.148,0,0,1,0-.3H244.533a.148.148,0,0,1,0,.3Z" transform="translate(-95 -719.327)" fill="#3f3d56"/><path d="M590.756,731.01a1.276,1.276,0,0,0-1.26-1.291h-6.224v15.339h7.484Z" transform="translate(-510.911 -631.167)" fill="#3f3d56"/><path d="M539.552,744.483h-7.78V730.626a1.409,1.409,0,0,1,1.408-1.408h6.372Zm-7.484-.3h7.188V729.514H533.18a1.113,1.113,0,0,0-1.112,1.111Z" transform="translate(-467.043 -630.74)" fill="#3f3d56"/><circle cx="0.445" cy="0.445" r="0.445" transform="translate(65.248 106.258)" fill="#3f3d56"/></g></svg>