<svg xmlns="http://www.w3.org/2000/svg" width="23.941" height="25" viewBox="0 0 23.941 25"><g transform="translate(-10.265)"><path d="M33.012,198.262H32.5V185.767h0a2.982,2.982,0,0,1-1.7-.546,2.964,2.964,0,0,1-1.716.546,2.925,2.925,0,0,1-.38-.031v9.294a.961.961,0,0,1-.961.96H24.29v-2.632l1.217,2.031a.767.767,0,1,0,1.317-.789l-2.447-4.084a.759.759,0,0,0-.7-.363c-.018,0-2.835,0-2.852,0a.761.761,0,0,0-.712.364L17.664,194.6a.767.767,0,1,0,1.317.789l1.225-2.044v2.645H16.747a.961.961,0,0,1-.961-.96v-9.294a2.924,2.924,0,0,1-.38.031,3.018,3.018,0,0,1-.586-.058,2.966,2.966,0,0,1-1.131-.488,2.98,2.98,0,0,1-1.7.546h0v12.495h-.507a1.2,1.2,0,0,0,0,2.4H33.012a1.2,1.2,0,1,0,0-2.4Z" transform="translate(-0.009 -175.667)" fill="#ef6038"/><path d="M212.913,197.226a1.846,1.846,0,1,0,1.6,1.83A1.726,1.726,0,0,0,212.913,197.226Z" transform="translate(-190.679 -187.052)" fill="#ef6038"/><path d="M11.486,8.746A1.71,1.71,0,0,0,13.614,7.6l.09-.3a1.705,1.705,0,0,0,3.369.145l.042-.209a1.707,1.707,0,0,0,1.531,1.577c.058.006.115.008.172.008a1.71,1.71,0,0,0,1.7-1.54l.013-.127a1.706,1.706,0,0,0,3.412,0l.013.127a1.71,1.71,0,0,0,1.7,1.54c.057,0,.114,0,.172-.008a1.707,1.707,0,0,0,1.531-1.577l.042.209A1.705,1.705,0,0,0,30.767,7.3l.09.3a1.71,1.71,0,0,0,1.637,1.221,1.729,1.729,0,0,0,.49-.072,1.71,1.71,0,0,0,1.149-2.128L32.59,1.452A2.035,2.035,0,0,0,30.641,0H13.83a2.035,2.035,0,0,0-1.95,1.452L10.337,6.618A1.71,1.71,0,0,0,11.486,8.746Z" fill="#ef6038"/></g></svg>