<svg xmlns="http://www.w3.org/2000/svg" width="28.364" height="48" viewBox="0 0 28.364 48"><g transform="translate(-5 -1)" opacity="0.704"><path d="M7,4H27.533V34.87H7Z" transform="translate(1.733 3.43)" fill="#14279a" opacity="0.3"/><path d="M27.909,1H10.455A5.455,5.455,0,0,0,5,6.455V43.545A5.455,5.455,0,0,0,10.455,49H27.909a5.455,5.455,0,0,0,5.455-5.455V6.455A5.455,5.455,0,0,0,27.909,1ZM19.182,46.818a3.273,3.273,0,1,1,3.273-3.273A3.268,3.268,0,0,1,19.182,46.818ZM29,38.091H9.364V7.545H29Z" transform="translate(0 0)" fill="#14279a"/></g></svg>