<svg xmlns="http://www.w3.org/2000/svg" width="25.876" height="25.876" viewBox="0 0 25.876 25.876"><g transform="translate(177 204)"><g transform="translate(-177 -204)"><path d="M18.538,14.027c0-.008,2.141-5,2.029-5.06s-1.49,2.767-2.5,4.679l-.316-.166c.877-1.98,2.24-4.814,2.129-4.87s-1.578,2.719-2.647,4.6l-.316-.166c.938-1.949,2.388-4.736,2.279-4.793s-1.67,2.672-2.8,4.52l-.318-.167c1-1.915,2.54-4.655,2.432-4.712s-2.387,3.58-3.007,4.545a2.116,2.116,0,0,0,.187,2.645l-2.834,4.957Q11.4,17.561,9.948,15.083a2.916,2.916,0,0,0,.392-3.964c-.971-1.448-3-3.057-4.211-2.45-1.171.678-.942,3.258-.263,4.865a2.916,2.916,0,0,0,3.529,1.848l2.839,5.743L10.992,23.3a10.561,10.561,0,1,1,3.792.014q-.645-1.1-1.289-2.2,1.38-2.872,2.758-5.746a2.033,2.033,0,0,0,2.281-1.349C18.99,12.963,18.536,14.027,18.538,14.027ZM13.909,24.508c-.323.027-.643.049-.971.049-.36,0-.715-.022-1.067-.054q-.3.626-.6,1.252a12.884,12.884,0,0,0,1.668.12,13.015,13.015,0,0,0,1.593-.109ZM12.938,0A12.93,12.93,0,0,0,9.756,25.464l.677-1.185a11.613,11.613,0,1,1,4.928.02l.693,1.182A12.93,12.93,0,0,0,12.938,0Zm.454,23.464-.519-1.05-.5,1.044c.189.01.375.028.565.028C13.092,23.486,13.24,23.469,13.392,23.464Z" fill="#ef6038"/></g></g></svg>