<svg xmlns="http://www.w3.org/2000/svg" width="16.435" height="16.435" viewBox="0 0 16.435 16.435"><g transform="translate(-1.5 -1.5)"><circle cx="2.5" cy="2.5" r="2.5" transform="translate(7 7)" fill="none" stroke="#fff" stroke-linecap="square" stroke-miterlimit="10" stroke-width="1"/><path d="M17.435,10.746V8.688l-2.211-.276a5.614,5.614,0,0,0-.69-1.665L15.9,4.988,14.446,3.533,12.688,4.9a5.634,5.634,0,0,0-1.665-.688L10.746,2H8.688L8.412,4.212a5.614,5.614,0,0,0-1.665.69L4.988,3.533,3.533,4.988,4.9,6.747a5.634,5.634,0,0,0-.688,1.665L2,8.688v2.058l2.212.276a5.614,5.614,0,0,0,.69,1.665L3.533,14.446,4.988,15.9l1.759-1.368a5.634,5.634,0,0,0,1.665.69l.276,2.211h2.058l.276-2.211a5.614,5.614,0,0,0,1.665-.69L14.446,15.9,15.9,14.446l-1.368-1.759a5.634,5.634,0,0,0,.69-1.665Z" fill="none" stroke="#fff" stroke-linecap="square" stroke-miterlimit="10" stroke-width="1"/></g></svg>